<svg width="206" height="280" viewBox="0 0 206 280" fill="none" xmlns="http://www.w3.org/2000/svg">
<path d="M3.99994 274L5.99994 274L3.99994 274ZM10.9999 222L12.7557 222.958L12.7557 222.958L10.9999 222ZM49.9999 200.5L51.8748 201.196L51.8748 201.196L49.9999 200.5ZM179 139L179.724 140.864L179.724 140.864L179 139ZM153 142.5L151.272 141.492L151.272 141.492L153 142.5ZM110.497 22.1085C110.557 21.0056 109.711 20.0629 108.608 20.0029C107.506 19.943 106.563 20.7885 106.503 21.8915L110.497 22.1085ZM131 47C132.105 47 133 46.1046 133 45C133 43.8954 132.105 43 131 43V47ZM89.4999 43C88.3954 43 87.4999 43.8954 87.4999 45C87.4999 46.1046 88.3954 47 89.4999 47V43ZM46.5 221.5L45.8344 223.386L45.8344 223.386L46.5 221.5ZM187 159L185.102 159.63L187 159ZM201 168.5L200.401 170.408L200.401 170.408L201 168.5ZM28.5 180L26.8963 178.805L26.8963 178.805L28.5 180ZM12.5 158.5L10.5402 158.101L10.5402 158.101L12.5 158.5ZM3.49996 174L2.3673 172.352L2.3673 172.352L3.49996 174ZM50 105.5L51.4142 106.914L51.4142 106.914L50 105.5ZM31.5 92L32.6094 93.6641L32.6094 93.6641L31.5 92ZM131.22 26.9636C130.371 27.6707 130.256 28.9318 130.964 29.7804C131.671 30.6289 132.932 30.7436 133.78 30.0364L131.22 26.9636ZM139.78 25.0364C140.629 24.3293 140.744 23.0682 140.036 22.2196C139.329 21.3711 138.068 21.2564 137.22 21.9636L139.78 25.0364ZM143.152 37.0304C142.065 37.2224 141.338 38.2598 141.53 39.3476C141.722 40.4353 142.76 41.1615 143.848 40.9696L143.152 37.0304ZM152.348 39.4696C153.435 39.2776 154.162 38.2402 153.97 37.1524C153.778 36.0647 152.74 35.3385 151.652 35.5304L152.348 39.4696ZM81.8 36.1C82.6837 36.7627 83.9373 36.5837 84.6 35.7C85.2627 34.8163 85.0837 33.5627 84.2 32.9L81.8 36.1ZM78.2 28.4C77.3163 27.7373 76.0627 27.9163 75.4 28.8C74.7373 29.6837 74.9163 30.9373 75.8 31.6L78.2 28.4ZM92.2353 22.9412C92.7551 23.9158 93.9666 24.2845 94.9412 23.7647C95.9158 23.2449 96.2845 22.0334 95.7647 21.0588L92.2353 22.9412ZM91.7647 13.5588C91.2449 12.5842 90.0334 12.2155 89.0588 12.7353C88.0842 13.2551 87.7155 14.4666 88.2353 15.4412L91.7647 13.5588ZM109.586 7.58578C108.805 8.36683 108.805 9.63316 109.586 10.4142C110.367 11.1953 111.633 11.1953 112.414 10.4142L109.586 7.58578ZM113.5 2C113.5 0.895431 112.605 0 111.5 0C110.395 0 109.5 0.895431 109.5 2H113.5ZM136.5 259.5L138.397 258.868L138.397 258.868L136.5 259.5ZM149 259.992L149.084 261.99L149.084 261.99L149 259.992ZM161.5 259L162.394 260.789L162.394 260.789L161.5 259ZM152 219L152.303 217.023L152 219ZM109.5 194.5L110.318 192.675L110.318 192.675L109.5 194.5ZM112.5 168.825C111.395 168.825 110.5 169.72 110.5 170.825C110.5 171.929 111.395 172.825 112.5 172.825V168.825ZM87 145L86.7342 146.982L86.7342 146.982L87 145ZM94.5 192.5V194.5H95.0182L95.4713 194.248L94.5 192.5ZM74 192.5L75.9403 192.015L75.9403 192.015L74 192.5ZM86.1652 145L85.8945 143.018L85.8945 143.018L86.1652 145ZM85 192.999L85.1489 194.994L85.1489 194.994L85 192.999ZM85.2542 192.981L85.4031 194.975L85.4032 194.975L85.2542 192.981ZM93.9445 173.999C95.0486 174.03 95.9686 173.16 95.9992 172.056C96.0299 170.951 95.1597 170.031 94.0555 170.001L93.9445 173.999ZM76.0555 169.501C74.9514 169.47 74.0314 170.34 74.0008 171.444C73.9701 172.549 74.8403 173.469 75.9445 173.499L76.0555 169.501ZM5.99994 274C5.99982 263.868 6.9902 252.338 8.35528 242.658C9.03753 237.82 9.80984 233.469 10.5915 230.004C11.3906 226.462 12.1549 224.059 12.7557 222.958L9.24414 221.042C8.34497 222.691 7.48434 225.601 6.6896 229.124C5.87749 232.723 5.08725 237.186 4.39447 242.099C3.00947 251.921 1.99982 263.642 1.99994 274L5.99994 274ZM12.7557 222.958C13.721 221.188 16.1845 219.257 19.9021 217.243C23.5225 215.283 27.9486 213.44 32.3781 211.678C36.7542 209.938 41.1764 208.262 44.5957 206.686C46.3082 205.897 47.8551 205.096 49.0653 204.278C50.1899 203.519 51.3854 202.514 51.8748 201.196L48.1251 199.804C48.1288 199.794 48.0843 199.91 47.854 200.144C47.6308 200.372 47.2966 200.646 46.8267 200.963C45.8828 201.601 44.5644 202.297 42.9219 203.053C39.631 204.57 35.3834 206.178 30.9 207.961C26.4698 209.723 21.8465 211.641 17.9973 213.726C14.2453 215.758 10.8191 218.155 9.24414 221.042L12.7557 222.958ZM51.8748 201.196C55.2336 192.153 56.8694 178.9 57.6825 167.328C58.5002 155.693 58.5 145.51 58.5 142.5H54.5C54.5 145.49 54.4998 155.557 53.6924 167.047C52.8805 178.6 51.2663 191.347 48.1251 199.804L51.8748 201.196ZM58.5 142.5C58.5 141.264 58.1256 140.148 57.3828 139.228C56.6666 138.34 55.7054 137.753 54.7099 137.354C52.7663 136.576 50.2426 136.344 47.686 136.313C45.082 136.28 42.1858 136.458 39.397 136.637C36.5716 136.818 33.8621 137 31.4999 137V141C34.0193 141 36.8757 140.807 39.653 140.629C42.467 140.448 45.2107 140.282 47.6363 140.312C50.1093 140.343 52.005 140.58 53.2235 141.068C53.8089 141.302 54.1145 141.547 54.2697 141.739C54.3982 141.899 54.5 142.111 54.5 142.5H58.5ZM31.4999 137C31.598 137 31.9029 137.012 32.254 137.214C32.6671 137.451 32.9516 137.84 33.0686 138.26C33.167 138.614 33.1186 138.881 33.1026 138.958C33.0835 139.049 33.0642 139.079 33.0864 139.03C33.2037 138.772 33.5867 138.186 34.3811 137.218C35.9058 135.359 38.4756 132.646 41.8101 129.323C48.4573 122.699 57.946 113.849 67.6611 104.977C77.3706 96.1103 87.2851 87.2419 94.7736 80.5889C98.5175 77.2627 101.654 74.491 103.855 72.551C104.955 71.581 105.821 70.819 106.412 70.2996C106.708 70.0399 106.934 69.8409 107.087 69.7068C107.163 69.6398 107.221 69.589 107.26 69.555C107.279 69.5381 107.294 69.5253 107.304 69.5167C107.309 69.5125 107.312 69.5093 107.315 69.5071C107.316 69.5061 107.317 69.5053 107.317 69.5048C107.318 69.5042 107.318 69.504 106 68C104.682 66.496 104.681 66.4963 104.681 66.4969C104.68 66.4974 104.679 66.4982 104.678 66.4993C104.675 66.5015 104.672 66.5048 104.667 66.5091C104.657 66.5178 104.642 66.5307 104.622 66.5479C104.583 66.5821 104.525 66.6332 104.448 66.7005C104.295 66.8351 104.068 67.0348 103.772 67.2951C103.179 67.8158 102.311 68.5791 101.21 69.5505C99.0058 71.4934 95.8652 74.2685 92.1169 77.5986C84.621 84.2581 74.6918 93.1397 64.9638 102.023C55.2415 110.901 45.6989 119.801 38.9867 126.49C35.6415 129.823 32.9496 132.656 31.2887 134.681C30.4903 135.654 29.7996 136.594 29.4445 137.376C29.3486 137.587 29.2488 137.846 29.188 138.135C29.1303 138.41 29.0792 138.844 29.2149 139.332C29.3693 139.887 29.7313 140.378 30.2634 140.683C30.7334 140.953 31.1987 141 31.4999 141V137ZM106 68C104.674 69.4974 104.674 69.4977 104.675 69.4982C104.676 69.4987 104.676 69.4994 104.678 69.5005C104.68 69.5025 104.683 69.5056 104.688 69.5098C104.697 69.5181 104.711 69.5305 104.73 69.547C104.767 69.58 104.823 69.6294 104.897 69.6946C105.044 69.825 105.262 70.0187 105.547 70.2714C106.116 70.777 106.95 71.519 108.011 72.4643C110.132 74.3547 113.157 77.058 116.772 80.308C124.002 86.8088 133.588 95.4944 143.015 104.238C152.448 112.988 161.7 121.775 168.274 128.487C171.571 131.852 174.148 134.649 175.735 136.639C176.547 137.657 177.01 138.354 177.204 138.755C177.317 138.987 177.232 138.906 177.23 138.636C177.23 138.467 177.262 138.154 177.467 137.818C177.686 137.46 177.999 137.243 178.276 137.136L179.724 140.864C180.157 140.696 180.586 140.386 180.881 139.903C181.163 139.441 181.232 138.971 181.23 138.615C181.227 137.97 180.988 137.391 180.804 137.011C180.405 136.187 179.705 135.201 178.862 134.145C177.141 131.987 174.445 129.07 171.132 125.688C164.487 118.905 155.177 110.064 145.735 101.306C136.287 92.5425 126.685 83.842 119.447 77.3336C115.827 74.079 112.797 71.3718 110.672 69.4781C109.61 68.5312 108.774 67.7876 108.203 67.2806C107.917 67.0271 107.698 66.8328 107.55 66.7017C107.477 66.6362 107.42 66.5865 107.383 66.5531C107.364 66.5364 107.35 66.5238 107.34 66.5154C107.335 66.5112 107.332 66.508 107.329 66.5058C107.328 66.5048 107.327 66.504 107.327 66.5034C107.326 66.5029 107.326 66.5026 106 68ZM178.276 137.136C173.92 138.827 168.332 138.854 163.194 138.828C160.72 138.815 158.288 138.792 156.355 139.011C155.384 139.121 154.418 139.303 153.575 139.637C152.732 139.971 151.835 140.527 151.272 141.492L154.728 143.508C154.675 143.598 154.675 143.504 155.048 143.356C155.421 143.209 155.991 143.078 156.806 142.985C158.447 142.799 160.598 142.815 163.174 142.828C168.138 142.853 174.529 142.881 179.724 140.864L178.276 137.136ZM151.272 141.492C150.654 142.553 150.228 144.097 149.903 145.762C149.566 147.49 149.297 149.579 149.089 151.882C148.672 156.494 148.485 162.091 148.507 167.633C148.529 173.176 148.76 178.708 149.189 183.19C149.403 185.429 149.669 187.438 149.99 189.07C150.295 190.615 150.697 192.096 151.308 193.066L154.692 190.934C154.516 190.654 154.219 189.838 153.915 188.297C153.628 186.843 153.378 184.978 153.171 182.81C152.757 178.48 152.529 173.074 152.507 167.617C152.485 162.159 152.67 156.694 153.073 152.243C153.274 150.015 153.528 148.073 153.829 146.527C154.143 144.919 154.471 143.947 154.728 143.508L151.272 141.492ZM151.308 193.066C151.94 194.07 153.092 194.993 154.278 195.804C155.533 196.664 157.105 197.581 158.843 198.524C162.317 200.407 166.647 202.496 170.795 204.543C174.984 206.611 178.984 208.635 181.929 210.44C183.409 211.346 184.538 212.147 185.275 212.821C185.643 213.158 185.856 213.412 185.965 213.579C186.08 213.757 186 213.715 186 213.5H190C190 212.66 189.671 211.942 189.318 211.4C188.959 210.847 188.485 210.336 187.975 209.87C186.958 208.939 185.574 207.982 184.019 207.029C180.894 205.115 176.734 203.014 172.566 200.957C168.358 198.879 164.135 196.843 160.75 195.007C159.06 194.091 157.627 193.25 156.538 192.504C155.379 191.71 154.847 191.18 154.692 190.934L151.308 193.066ZM186 213.5C186 215.901 185.012 228.768 184.005 242.289C183.01 255.67 182 269.653 182 274H186C186 269.847 186.99 256.08 187.994 242.586C188.988 229.232 190 216.099 190 213.5H186ZM72 277.5C71.9706 275.5 71.9704 275.5 71.97 275.5C71.9695 275.5 71.9687 275.5 71.9678 275.5C71.9658 275.5 71.9628 275.5 71.9587 275.5C71.9507 275.501 71.9385 275.501 71.9224 275.501C71.89 275.501 71.8416 275.502 71.7777 275.503C71.6497 275.505 71.4596 275.507 71.2113 275.51C70.7149 275.516 69.9861 275.525 69.0582 275.534C67.2023 275.553 64.5503 275.574 61.3677 275.586C55.0009 275.609 46.5168 275.594 38.0368 275.438C29.5467 275.282 21.1004 274.986 14.7935 274.452C11.6269 274.185 9.07499 273.863 7.3458 273.488C6.46395 273.297 5.91585 273.116 5.63145 272.979C5.4861 272.909 5.5208 272.902 5.61695 273C5.72794 273.112 5.99994 273.453 5.99994 274L1.99994 274C1.99995 274.828 2.40476 275.44 2.77307 275.812C3.12656 276.17 3.5431 276.413 3.8958 276.583C4.60749 276.926 5.52033 277.185 6.49787 277.397C8.48744 277.828 11.2481 278.167 14.4565 278.438C20.8996 278.983 29.4533 279.281 37.9632 279.437C46.4832 279.594 54.9991 279.609 61.3824 279.586C64.5747 279.574 67.2352 279.553 69.0981 279.534C70.0296 279.525 70.7617 279.516 71.2613 279.51C71.5111 279.507 71.7028 279.504 71.8322 279.503C71.8969 279.502 71.946 279.501 71.9791 279.501C71.9956 279.5 72.0081 279.5 72.0165 279.5C72.0207 279.5 72.0239 279.5 72.0261 279.5C72.0271 279.5 72.028 279.5 72.0285 279.5C72.0291 279.5 72.0294 279.5 72 277.5ZM72 277.5C73.9938 277.657 73.9938 277.658 73.9938 277.657C73.9938 277.657 73.9939 277.657 73.9939 277.656C73.994 277.655 73.9942 277.652 73.9945 277.649C73.995 277.642 73.9959 277.632 73.997 277.618C73.9993 277.59 74.0029 277.546 74.0078 277.489C74.0176 277.374 74.0327 277.201 74.0534 276.975C74.095 276.523 74.1593 275.857 74.2497 275.009C74.4307 273.312 74.7162 270.888 75.1333 267.99C75.9688 262.187 77.3274 254.519 79.42 247C81.5232 239.443 84.3216 232.211 87.9592 227.159C91.5814 222.129 95.7274 219.63 100.664 220.472L101.336 216.528C94.2636 215.322 88.7801 219.174 84.7132 224.822C80.6616 230.448 77.7111 238.222 75.5665 245.927C73.4115 253.67 72.0234 261.521 71.1741 267.42C70.749 270.374 70.4576 272.847 70.2723 274.585C70.1796 275.454 70.1134 276.139 70.0702 276.609C70.0486 276.845 70.0328 277.026 70.0223 277.149C70.017 277.211 70.0131 277.258 70.0104 277.291C70.0091 277.307 70.0081 277.319 70.0074 277.328C70.007 277.332 70.0068 277.336 70.0066 277.338C70.0065 277.339 70.0064 277.34 70.0063 277.341C70.0063 277.342 70.0062 277.343 72 277.5ZM182 274C182 273.265 182.436 272.863 182.532 272.783C182.639 272.693 182.675 272.699 182.521 272.762C182.231 272.879 181.688 273.029 180.837 273.19C179.166 273.505 176.713 273.785 173.683 274.03C167.644 274.518 159.563 274.845 151.446 275.063C143.337 275.282 135.225 275.391 129.138 275.445C126.095 275.473 123.56 275.486 121.785 275.493C120.898 275.497 120.201 275.498 119.726 275.499C119.489 275.5 119.307 275.5 119.185 275.5C119.124 275.5 119.077 275.5 119.046 275.5C119.031 275.5 119.019 275.5 119.011 275.5C119.008 275.5 119.005 275.5 119.003 275.5C119.002 275.5 119.001 275.5 119.001 275.5C119 275.5 119 275.5 119 277.5C119 279.5 119 279.5 119.001 279.5C119.001 279.5 119.002 279.5 119.003 279.5C119.005 279.5 119.008 279.5 119.012 279.5C119.02 279.5 119.032 279.5 119.048 279.5C119.08 279.5 119.126 279.5 119.188 279.5C119.312 279.5 119.495 279.5 119.734 279.499C120.211 279.498 120.911 279.497 121.801 279.493C123.581 279.486 126.123 279.473 129.174 279.445C135.275 279.39 143.413 279.281 151.554 279.062C159.687 278.843 167.856 278.514 174.005 278.017C177.068 277.77 179.693 277.476 181.577 277.121C182.503 276.946 183.357 276.738 184.019 276.471C184.341 276.341 184.742 276.148 185.095 275.853C185.437 275.568 186 274.953 186 274H182ZM119 275.5H72V279.5H119V275.5ZM100.664 220.472C105.807 221.349 109.5 224.937 112.15 230.329C114.812 235.746 116.279 242.723 117.018 249.746C117.753 256.739 117.753 263.629 117.566 268.785C117.473 271.359 117.334 273.492 117.218 274.977C117.16 275.72 117.108 276.301 117.071 276.694C117.052 276.89 117.037 277.039 117.027 277.139C117.022 277.188 117.018 277.225 117.015 277.249C117.014 277.261 117.013 277.27 117.013 277.276C117.012 277.278 117.012 277.28 117.012 277.281C117.012 277.282 117.012 277.282 117.012 277.282C117.012 277.282 117.012 277.282 119 277.5C120.988 277.718 120.988 277.717 120.988 277.716C120.988 277.716 120.988 277.715 120.989 277.714C120.989 277.711 120.989 277.708 120.99 277.704C120.99 277.697 120.992 277.686 120.993 277.671C120.996 277.642 121.001 277.601 121.006 277.546C121.017 277.437 121.033 277.278 121.053 277.071C121.092 276.658 121.146 276.055 121.206 275.288C121.325 273.756 121.468 271.567 121.564 268.93C121.755 263.663 121.758 256.571 120.996 249.327C120.237 242.112 118.704 234.595 115.74 228.565C112.764 222.51 108.202 217.7 101.336 216.528L100.664 220.472ZM107.997 68.1085L109.247 45.1085L105.253 44.8915L104.003 67.8915L107.997 68.1085ZM109.247 45.1085L110.497 22.1085L106.503 21.8915L105.253 44.8915L109.247 45.1085ZM107.25 47H131V43H107.25V47ZM107.25 43H89.4999V47H107.25V43ZM30 264H38.5V260H30V264ZM38.5 264H52V260H38.5V264ZM47.1656 219.614C46.4096 219.347 45.6352 219.238 44.8589 219.293L45.1411 223.283C45.3477 223.269 45.5737 223.294 45.8344 223.386L47.1656 219.614ZM40.475 262.315L43.3488 244.315L39.3989 243.685L36.525 261.685L40.475 262.315ZM43.3488 244.315L46.975 221.604L43.025 220.973L39.3989 243.685L43.3488 244.315ZM52 264C53.0968 264 53.6639 263.208 53.7878 263.027C53.9797 262.745 54.0929 262.453 54.1591 262.261C54.3007 261.85 54.408 261.348 54.4952 260.835C54.6745 259.781 54.8256 258.329 54.9384 256.633C55.165 253.225 55.2484 248.653 55.0506 243.917L51.0541 244.083C51.2461 248.681 51.1639 253.109 50.9472 256.367C50.8383 258.004 50.6983 259.303 50.5518 260.165C50.4761 260.61 50.4118 260.858 50.3774 260.958C50.3557 261.021 50.3798 260.924 50.4821 260.774C50.5164 260.724 50.9933 260 52 260V264ZM55.0506 243.917C54.8376 238.818 54.295 233.43 53.2147 229.072C52.6757 226.898 51.9805 224.886 51.0678 223.271C50.1705 221.683 48.9223 220.234 47.1656 219.614L45.8344 223.386C46.2846 223.545 46.9063 224.037 47.5855 225.239C48.2494 226.414 48.8374 228.039 49.3322 230.035C50.3193 234.017 50.8459 239.1 51.0541 244.083L55.0506 243.917ZM44.8589 219.293C42.8197 219.437 41.1414 220.667 39.8205 222.154C38.4804 223.663 37.2926 225.675 36.24 227.903C34.1292 232.371 32.3792 238.107 31.0436 243.521L34.9272 244.479C36.2385 239.163 37.9133 233.725 39.8567 229.612C40.8312 227.549 41.828 225.917 42.8113 224.81C43.8138 223.681 44.5977 223.322 45.1411 223.283L44.8589 219.293ZM31.0436 243.521C29.8773 248.249 29.0089 252.808 28.4865 256.196C28.2259 257.886 28.0473 259.312 27.9627 260.336C27.9213 260.836 27.8973 261.298 27.9075 261.665C27.912 261.829 27.9253 262.091 27.9887 262.36C28.0169 262.479 28.0904 262.762 28.2836 263.061C28.4821 263.368 29.031 264 30 264V260C30.9414 260 31.4656 260.615 31.6426 260.889C31.8142 261.154 31.8692 261.388 31.8818 261.441C31.9142 261.579 31.9085 261.645 31.9059 261.554C31.902 261.411 31.9112 261.123 31.9491 260.665C32.0229 259.772 32.1865 258.449 32.4398 256.806C32.9451 253.528 33.7907 249.086 34.9272 244.479L31.0436 243.521ZM53.0523 242H41.3739V246H53.0523V242ZM41.3739 242H32.9854V246H41.3739V242ZM179.985 180.161C180.229 180.43 180.297 180.68 180.303 180.7C180.318 180.751 180.311 180.748 180.302 180.662C180.285 180.492 180.278 180.196 180.3 179.754C180.342 178.882 180.484 177.67 180.715 176.23C181.176 173.362 181.965 169.767 182.897 166.527C183.855 163.197 184.883 160.538 185.736 159.32C185.937 159.032 186.048 158.945 186.045 158.948C186.027 158.96 185.734 159.155 185.274 159.068C184.839 158.986 184.683 158.73 184.74 158.809C184.796 158.886 184.933 159.121 185.102 159.63L188.898 158.37C188.663 157.662 188.368 156.995 187.971 156.45C187.574 155.907 186.943 155.312 186.016 155.137C185.064 154.957 184.264 155.306 183.728 155.687C183.207 156.057 182.789 156.553 182.458 157.026C181.179 158.854 180.004 162.116 179.053 165.421C178.077 168.816 177.253 172.568 176.766 175.596C176.523 177.104 176.357 178.478 176.304 179.558C176.278 180.092 176.276 180.614 176.323 181.07C176.346 181.297 176.387 181.56 176.464 181.823C176.532 182.056 176.678 182.466 177.015 182.839L179.985 180.161ZM185.102 159.63C185.741 161.554 185.57 164.153 185.241 166.717C185.091 167.89 184.893 169.16 184.811 170.093C184.769 170.569 184.742 171.091 184.787 171.57C184.821 171.931 184.934 172.836 185.667 173.491L188.333 170.509C188.816 170.941 188.791 171.422 188.77 171.195C188.759 171.085 188.759 170.854 188.795 170.445C188.869 169.609 189.034 168.589 189.209 167.226C189.53 164.718 189.859 161.264 188.898 158.37L185.102 159.63ZM185.667 173.491C186.191 173.959 186.788 174.072 187.184 174.087C187.572 174.101 187.918 174.03 188.165 173.964C188.658 173.833 189.185 173.602 189.649 173.382C190.131 173.154 190.686 172.87 191.239 172.591C191.807 172.305 192.405 172.008 193.033 171.72C195.668 170.512 198.286 169.744 200.401 170.408L201.599 166.592C197.912 165.434 194.031 166.862 191.366 168.084C190.669 168.403 190.017 168.728 189.439 169.019C188.847 169.317 188.362 169.566 187.938 169.766C187.496 169.975 187.251 170.068 187.136 170.099C187.079 170.114 187.163 170.083 187.332 170.089C187.51 170.096 187.934 170.153 188.333 170.509L185.667 173.491ZM200.401 170.408C201.62 170.791 201.274 171.028 201.158 170.514C201.051 170.04 201.4 170.05 200.709 170.744C199.493 171.962 196.802 173.515 193.427 175.038C190.136 176.522 186.472 177.858 183.56 178.716C182.097 179.146 180.876 179.441 180.011 179.58C179.569 179.651 179.296 179.668 179.162 179.665C179.094 179.663 179.133 179.657 179.235 179.684C179.309 179.704 179.661 179.801 179.985 180.161L177.015 182.839C177.432 183.303 177.937 183.479 178.217 183.553C178.526 183.634 178.826 183.658 179.068 183.664C179.555 183.675 180.102 183.616 180.645 183.529C181.749 183.352 183.153 183.005 184.69 182.553C187.777 181.644 191.613 180.244 195.072 178.684C198.447 177.161 201.755 175.358 203.54 173.569C204.348 172.759 205.448 171.354 205.06 169.634C204.663 167.874 203.005 167.033 201.599 166.592L200.401 170.408ZM30.1036 181.195C30.3876 180.814 30.4605 180.437 30.4842 180.277C30.5122 180.089 30.5087 179.934 30.5038 179.845C30.4941 179.667 30.4639 179.517 30.4461 179.436C30.4074 179.26 30.3518 179.08 30.302 178.931C30.1972 178.617 30.0432 178.214 29.8578 177.758C29.4828 176.837 28.9331 175.584 28.2649 174.145C26.9286 171.268 25.0866 167.581 23.158 164.221C21.2712 160.934 19.1685 157.719 17.2876 155.99C16.8019 155.544 16.2542 155.123 15.6566 154.833C15.0617 154.545 14.2645 154.315 13.3854 154.503C11.4929 154.907 10.8143 156.756 10.5402 158.101L14.4597 158.899C14.7081 157.68 14.933 158.263 14.2201 158.415C13.9308 158.477 13.7926 158.375 13.9125 158.433C14.0296 158.49 14.2526 158.634 14.5804 158.935C15.9538 160.197 17.7902 162.905 19.6889 166.212C21.5456 169.447 23.335 173.027 24.6372 175.83C25.2882 177.232 25.8096 178.422 26.1526 179.266C26.3261 179.692 26.4428 180.002 26.5073 180.196C26.5421 180.3 26.5458 180.324 26.5394 180.295C26.5378 180.287 26.5171 180.197 26.5098 180.063C26.5061 179.997 26.5021 179.861 26.5278 179.688C26.5493 179.544 26.6182 179.178 26.8963 178.805L30.1036 181.195ZM10.5402 158.101C9.94074 161.042 10.7059 164.413 11.3924 166.847C11.7201 168.009 12.1438 169.322 12.3397 169.993C12.4581 170.399 12.5209 170.652 12.5457 170.797C12.5585 170.872 12.5474 170.843 12.5496 170.749C12.5504 170.717 12.5498 170.29 12.872 169.838L16.1279 172.162C16.5127 171.623 16.5434 171.059 16.5485 170.845C16.555 170.571 16.5212 170.315 16.4885 170.123C16.4222 169.735 16.3022 169.293 16.1795 168.872C15.893 167.89 15.6004 167.031 15.2422 165.761C14.5569 163.331 14.072 160.802 14.4597 158.899L10.5402 158.101ZM12.872 169.838C13.132 169.474 13.4366 169.334 13.4717 169.317C13.5447 169.282 13.5712 169.28 13.5083 169.297C13.384 169.331 13.1574 169.376 12.7849 169.433C12.4239 169.488 12.0024 169.543 11.5019 169.61C11.0107 169.676 10.4604 169.751 9.88076 169.841C7.6485 170.189 4.61218 170.809 2.3673 172.352L4.63261 175.648C6.05752 174.669 8.27117 174.14 10.4965 173.793C11.0312 173.71 11.5458 173.64 12.0329 173.574C12.5105 173.511 12.9808 173.449 13.3878 173.387C13.7832 173.327 14.2009 173.254 14.5602 173.156C14.7391 173.107 14.9672 173.036 15.197 172.926C15.3889 172.834 15.8054 172.614 16.1279 172.162L12.872 169.838ZM2.3673 172.352C1.26261 173.111 -0.120774 174.416 0.19645 176.269C0.344972 177.136 0.836369 177.781 1.31589 178.222C1.7951 178.663 2.37307 179.007 2.94776 179.281C5.16759 180.343 8.77558 181.035 12.3651 181.491C16.0386 181.958 19.9854 182.211 23.0684 182.283C24.6074 182.32 25.9615 182.312 26.9753 182.26C27.4749 182.234 27.9392 182.195 28.3185 182.135C28.5023 182.106 28.7276 182.063 28.95 181.991C29.0611 181.956 29.2195 181.898 29.3907 181.806C29.539 181.726 29.8444 181.543 30.1036 181.195L26.8963 178.805C27.1322 178.488 27.3988 178.335 27.4933 178.284C27.6107 178.221 27.7004 178.191 27.7284 178.182C27.7845 178.164 27.7858 178.17 27.6924 178.184C27.5173 178.212 27.2144 178.242 26.7694 178.265C25.8939 178.31 24.649 178.32 23.1628 178.284C20.1955 178.214 16.3873 177.97 12.8696 177.523C9.26786 177.065 6.24839 176.426 4.67297 175.672C4.29884 175.494 4.10501 175.353 4.02487 175.279C3.94504 175.206 4.08954 175.305 4.13907 175.594C4.25831 176.29 3.66854 176.311 4.63261 175.648L2.3673 172.352ZM43.362 95.3047C44.029 94.9861 44.355 94.4067 44.4432 94.2524C44.5915 93.9928 44.7102 93.7098 44.8048 93.4577C44.9976 92.944 45.1861 92.2972 45.3672 91.6135C45.7306 90.241 46.1317 88.4547 46.5272 86.7694C46.9323 85.0427 47.333 83.4156 47.7149 82.2306C47.9098 81.6257 48.0691 81.2351 48.1804 81.0282C48.2394 80.9185 48.2336 80.9582 48.1426 81.0511C48.0742 81.121 47.6846 81.5 47 81.5L47 77.5C46.1279 77.5 45.5473 77.9844 45.2849 78.2523C45 78.5432 44.7975 78.8734 44.6574 79.1339C44.3707 79.6671 44.1231 80.3352 43.9077 81.0037C43.4688 82.3656 43.0344 84.1447 42.6329 85.8556C42.2218 87.6077 41.8445 89.2902 41.5004 90.5896C41.3277 91.2418 41.1802 91.7317 41.0599 92.052C40.9981 92.2169 40.966 92.2752 40.9699 92.2683C40.9725 92.2639 41.0077 92.2013 41.0818 92.1147C41.145 92.041 41.3241 91.8452 41.638 91.6953L43.362 95.3047ZM47 81.5C46.3184 81.5 45.8922 81.1447 45.7493 81.0058C45.6657 80.9244 45.6123 80.8543 45.585 80.8157C45.5564 80.7754 45.5413 80.7483 45.5379 80.742C45.5327 80.7326 45.548 80.7596 45.5794 80.8408C45.6094 80.9181 45.646 81.0238 45.6883 81.1618C45.8635 81.7339 46.0638 82.6228 46.2746 83.7802C46.6921 86.0727 47.1078 89.1757 47.449 92.3394C47.7898 95.4997 48.0515 98.6767 48.1663 101.11C48.2239 102.332 48.2427 103.331 48.2207 104.033C48.2095 104.39 48.1891 104.619 48.1704 104.742C48.1607 104.806 48.1588 104.79 48.179 104.727C48.1806 104.722 48.2708 104.401 48.5858 104.086L51.4142 106.914C51.7917 106.537 51.9376 106.106 51.9883 105.948C52.0575 105.731 52.0982 105.519 52.1248 105.344C52.1786 104.991 52.2055 104.58 52.2187 104.158C52.2456 103.302 52.2214 102.183 52.1618 100.921C52.0422 98.3858 51.7727 95.1253 51.426 91.9105C51.0797 88.6992 50.6517 85.4898 50.2098 83.0635C49.9909 81.8615 49.7576 80.7895 49.5129 79.9905C49.3949 79.6052 49.2446 79.1826 49.0458 78.8199C48.9491 78.6433 48.7875 78.3807 48.5375 78.1377C48.2972 77.9041 47.7754 77.5 47 77.5L47 81.5ZM48.5858 104.086C49.1831 103.488 49.886 103.529 49.9718 103.533C50.0732 103.538 50.1461 103.552 50.1792 103.558C50.1981 103.562 50.212 103.566 50.2204 103.568C50.2288 103.57 50.2334 103.572 50.2338 103.572C50.2339 103.572 50.2233 103.568 50.2004 103.56C50.1779 103.551 50.1476 103.54 50.1088 103.523C50.0302 103.49 49.9294 103.444 49.8047 103.383C49.292 103.132 48.5458 102.71 47.6196 102.145C45.7817 101.023 43.3917 99.4326 41.0592 97.7786C38.7215 96.121 36.4889 94.4332 34.9505 93.118C34.1659 92.4472 33.6378 91.9371 33.364 91.6114C33.2054 91.4227 33.2529 91.4361 33.3177 91.6036C33.3514 91.6908 33.4575 91.9897 33.3999 92.4043C33.3293 92.9121 33.0414 93.3761 32.6094 93.6641L30.3906 90.3359C29.8648 90.6864 29.5238 91.2368 29.438 91.8533C29.3652 92.3768 29.4944 92.8068 29.5867 93.0458C29.7689 93.5171 30.0768 93.9172 30.3021 94.1853C30.7963 94.7732 31.5312 95.4572 32.3512 96.1583C34.0222 97.5869 36.3658 99.3542 38.7455 101.042C41.1304 102.733 43.5991 104.377 45.5357 105.559C46.4967 106.146 47.3666 106.643 48.0458 106.975C48.3739 107.136 48.7315 107.295 49.0671 107.398C49.2258 107.446 49.4822 107.514 49.7797 107.529C49.9829 107.538 50.7694 107.559 51.4142 106.914L48.5858 104.086ZM32.6094 93.6641C32.4063 93.7995 32.2288 93.8573 32.1454 93.8807C32.0543 93.9063 31.9915 93.9139 31.9749 93.9157C31.9458 93.919 31.9743 93.9138 32.0883 93.9188C32.3117 93.9286 32.6568 93.9671 33.1282 94.0399C34.0621 94.1842 35.2621 94.4258 36.532 94.6831C37.7727 94.9346 39.0812 95.2012 40.1448 95.3711C40.674 95.4556 41.1932 95.5247 41.6404 95.5519C41.8629 95.5655 42.1099 95.5715 42.3541 95.5543C42.5546 95.5401 42.9533 95.4999 43.362 95.3047L41.638 91.6953C41.7969 91.6194 41.9237 91.5897 41.9776 91.5787C42.0094 91.5722 42.0334 91.5687 42.0479 91.5668C42.0625 91.5649 42.0712 91.5643 42.0727 91.5642C42.0745 91.5641 42.0598 91.5651 42.0245 91.5648C41.9901 91.5645 41.9436 91.563 41.8836 91.5593C41.6297 91.5438 41.2599 91.4985 40.7758 91.4211C39.8128 91.2673 38.5975 91.0204 37.3264 90.7628C36.0844 90.5111 34.7842 90.2483 33.7388 90.0868C33.2205 90.0067 32.706 89.9421 32.2638 89.9226C32.045 89.913 31.7891 89.9117 31.5319 89.9404C31.3376 89.962 30.8554 90.026 30.3906 90.3359L32.6094 93.6641ZM133.78 30.0364L139.78 25.0364L137.22 21.9636L131.22 26.9636L133.78 30.0364ZM143.848 40.9696L152.348 39.4696L151.652 35.5304L143.152 37.0304L143.848 40.9696ZM84.2 32.9L78.2 28.4L75.8 31.6L81.8 36.1L84.2 32.9ZM95.7647 21.0588L91.7647 13.5588L88.2353 15.4412L92.2353 22.9412L95.7647 21.0588ZM112.414 10.4142C112.717 10.1117 112.862 9.78356 112.92 9.64277C112.993 9.46545 113.042 9.29452 113.076 9.15922C113.145 8.88671 113.193 8.58522 113.23 8.29956C113.306 7.71842 113.359 6.99971 113.397 6.26731C113.475 4.79181 113.5 3.10459 113.5 2H109.5C109.5 3.06208 109.475 4.67486 109.403 6.05769C109.366 6.75446 109.319 7.3545 109.264 7.78482C109.235 8.00489 109.21 8.1323 109.196 8.18726C109.189 8.21571 109.195 8.18315 109.223 8.11578C109.236 8.08493 109.333 7.83826 109.586 7.58578L112.414 10.4142ZM134.603 260.132C134.81 260.754 135.235 261.111 135.48 261.28C135.74 261.459 136.002 261.568 136.193 261.635C136.579 261.771 137.012 261.855 137.413 261.912C138.235 262.031 139.309 262.095 140.496 262.126C142.89 262.189 146.005 262.12 149.084 261.99L148.916 257.994C145.87 258.122 142.86 258.186 140.6 258.128C139.459 258.098 138.572 258.038 137.984 257.953C137.842 257.933 137.731 257.913 137.647 257.895C137.606 257.886 137.575 257.878 137.553 257.872C137.531 257.866 137.522 257.862 137.524 257.863C137.525 257.864 137.546 257.871 137.58 257.887C137.612 257.903 137.674 257.934 137.75 257.987C137.874 258.072 138.222 258.34 138.397 258.868L134.603 260.132ZM149.084 261.99C152.108 261.863 155.135 261.676 157.475 261.488C158.643 261.394 159.654 261.299 160.414 261.21C160.792 261.166 161.128 261.121 161.399 261.075C161.534 261.053 161.674 261.026 161.806 260.995C161.893 260.974 162.141 260.916 162.394 260.789L160.606 257.211C160.797 257.115 160.94 257.089 160.882 257.103C160.869 257.106 160.823 257.116 160.735 257.131C160.559 257.161 160.298 257.197 159.95 257.237C159.258 257.318 158.3 257.409 157.155 257.501C154.869 257.684 151.893 257.869 148.916 257.994L149.084 261.99ZM150.005 218.854L148.359 241.354L152.348 241.646L153.995 219.146L150.005 218.854ZM148.359 241.354L147.005 259.846L150.995 260.138L152.348 241.646L148.359 241.354ZM162.394 260.789C163.016 260.478 163.306 259.944 163.369 259.831C163.491 259.616 163.581 259.392 163.649 259.205C163.788 258.822 163.915 258.349 164.033 257.835C164.271 256.793 164.51 255.383 164.717 253.732C165.131 250.424 165.427 246.023 165.285 241.438L161.287 241.562C161.422 245.914 161.139 250.106 160.748 253.235C160.552 254.803 160.332 256.073 160.133 256.945C160.032 257.388 159.947 257.681 159.888 257.844C159.857 257.93 159.852 257.925 159.884 257.869C159.9 257.84 159.947 257.76 160.031 257.659C160.104 257.572 160.29 257.369 160.606 257.211L162.394 260.789ZM165.285 241.438C165.124 236.259 164.399 230.682 162.54 226.165C160.673 221.633 157.493 217.82 152.303 217.023L151.697 220.977C154.948 221.476 157.254 223.834 158.841 227.689C160.435 231.559 161.132 236.583 161.287 241.562L165.285 241.438ZM152.303 217.023C149.457 216.586 146.948 217.209 144.824 218.631C142.75 220.021 141.142 222.104 139.881 224.462C137.373 229.155 135.984 235.428 135.217 241.238L139.183 241.762C139.931 236.093 141.245 230.395 143.409 226.347C144.485 224.335 145.705 222.855 147.05 221.955C148.345 221.087 149.845 220.693 151.697 220.977L152.303 217.023ZM135.217 241.238C134.613 245.817 134.379 250.231 134.324 253.585C134.296 255.263 134.313 256.687 134.352 257.745C134.371 258.272 134.396 258.721 134.425 259.073C134.44 259.247 134.457 259.413 134.477 259.56C134.492 259.666 134.525 259.899 134.603 260.132L138.397 258.868C138.448 259.018 138.453 259.11 138.44 259.015C138.433 258.963 138.423 258.874 138.412 258.739C138.389 258.471 138.367 258.089 138.349 257.598C138.313 256.622 138.297 255.269 138.323 253.651C138.377 250.412 138.603 246.155 139.183 241.762L135.217 241.238ZM163.286 239.5H150.353V243.5H163.286V239.5ZM150.353 239.5H137.2V243.5H150.353V239.5ZM124.738 145.014C122.446 144.739 120.467 145.654 118.873 147.119C117.315 148.55 116.024 150.583 114.936 152.866C112.756 157.445 111.14 163.586 109.974 169.641C108.801 175.727 108.059 181.864 107.671 186.512C107.477 188.835 107.37 190.808 107.345 192.233C107.332 192.938 107.339 193.549 107.371 194.014C107.386 194.237 107.412 194.495 107.463 194.736C107.487 194.85 107.535 195.045 107.629 195.258C107.678 195.367 107.949 195.997 108.682 196.325L110.318 192.675C111.019 192.989 111.261 193.581 111.283 193.63C111.351 193.783 111.374 193.895 111.376 193.904C111.383 193.936 111.372 193.896 111.362 193.738C111.341 193.444 111.333 192.967 111.344 192.305C111.368 190.994 111.468 189.113 111.657 186.844C112.035 182.31 112.761 176.318 113.901 170.398C115.048 164.447 116.588 158.702 118.548 154.586C119.531 152.522 120.556 151.004 121.578 150.065C122.564 149.16 123.429 148.886 124.262 148.986L124.738 145.014ZM108.682 196.325C108.948 196.444 109.2 196.492 109.303 196.511C109.445 196.537 109.592 196.555 109.729 196.569C110.004 196.598 110.336 196.619 110.699 196.635C111.43 196.668 112.386 196.686 113.469 196.694C115.639 196.71 118.394 196.686 121.027 196.65L120.973 192.65C118.346 192.686 115.625 192.71 113.498 192.694C112.432 192.686 111.534 192.669 110.879 192.639C110.549 192.625 110.305 192.608 110.143 192.591C110.105 192.587 110.075 192.583 110.053 192.58C110.03 192.577 110.02 192.575 110.021 192.575C110.021 192.576 110.026 192.576 110.035 192.578C110.044 192.58 110.059 192.584 110.079 192.589C110.109 192.597 110.2 192.622 110.318 192.675L108.682 196.325ZM121.027 196.65C125.382 196.59 129.339 196.5 130 196.5V192.5C129.311 192.5 125.231 192.592 120.973 192.65L121.027 196.65ZM122.505 146.853L120.755 170.678L124.745 170.971L126.495 147.146L122.505 146.853ZM120.755 170.678L119.005 194.503L122.995 194.796L124.745 170.971L120.755 170.678ZM130 196.5C130.674 196.5 131.142 196.183 131.362 195.997C131.591 195.804 131.741 195.599 131.825 195.471C131.996 195.212 132.118 194.933 132.202 194.718C132.38 194.265 132.55 193.677 132.713 193.023C133.043 191.695 133.4 189.845 133.735 187.662C134.405 183.29 135.007 177.45 135.119 171.538L131.119 171.462C131.012 177.173 130.428 182.834 129.781 187.056C129.457 189.17 129.121 190.89 128.831 192.058C128.683 192.653 128.561 193.045 128.478 193.259C128.431 193.378 128.429 193.354 128.487 193.267C128.514 193.226 128.609 193.086 128.786 192.937C128.955 192.795 129.373 192.5 130 192.5V196.5ZM135.119 171.538C135.23 165.619 134.854 159.475 133.479 154.636C132.143 149.934 129.584 145.596 124.738 145.014L124.262 148.986C126.517 149.256 128.378 151.319 129.631 155.729C130.846 160.002 131.228 165.682 131.119 171.462L135.119 171.538ZM122.62 172.821L132.989 173.496L133.249 169.504L122.88 168.829L122.62 172.821ZM122.75 168.825H112.5V172.825H122.75V168.825ZM86.7342 146.982C87.3693 147.067 88.0978 147.481 88.89 148.598C89.6894 149.726 90.4134 151.386 91.032 153.522C92.2656 157.782 92.9431 163.443 93.2529 169.202C93.5612 174.935 93.4996 180.649 93.299 184.958C93.1987 187.114 93.0645 188.897 92.9279 190.142C92.859 190.77 92.7932 191.225 92.738 191.51C92.7089 191.66 92.693 191.709 92.6981 191.693C92.6993 191.689 92.7253 191.608 92.7869 191.493C92.8086 191.453 93.0187 191.035 93.5287 190.752L95.4713 194.248C96.0124 193.948 96.2546 193.49 96.3088 193.39C96.4031 193.214 96.4622 193.051 96.4972 192.945C96.5698 192.725 96.6233 192.486 96.6648 192.272C96.7507 191.829 96.8304 191.249 96.9041 190.578C97.0527 189.224 97.1919 187.352 97.2947 185.144C97.5004 180.725 97.5638 174.876 97.2471 168.987C96.9318 163.125 96.2344 157.107 94.8742 152.41C94.1959 150.067 93.3184 147.928 92.153 146.285C90.9803 144.631 89.3807 143.301 87.2657 143.018L86.7342 146.982ZM75.9403 192.015C75.9753 192.155 75.9699 192.22 75.9625 192.087C75.9575 191.995 75.9538 191.855 75.9537 191.659C75.9534 191.269 75.9672 190.726 75.9973 190.042C76.0576 188.678 76.1806 186.813 76.372 184.611C76.7549 180.208 77.4072 174.505 78.3625 168.833C79.3214 163.139 80.5704 157.569 82.1224 153.383C82.901 151.284 83.7183 149.637 84.5453 148.515C85.3957 147.36 86.0482 147.035 86.4359 146.982L85.8945 143.018C83.9421 143.285 82.4442 144.623 81.3249 146.142C80.1822 147.693 79.2105 149.731 78.3719 151.993C76.6895 156.53 75.3911 162.39 74.418 168.169C73.4413 173.968 72.777 179.78 72.3871 184.265C72.192 186.508 72.0646 188.431 72.0012 189.865C71.9697 190.58 71.9534 191.189 71.9537 191.662C71.9539 191.897 71.9581 192.116 71.9686 192.306C71.9767 192.454 71.9943 192.723 72.0597 192.985L75.9403 192.015ZM86.4359 146.982C86.5294 146.969 86.6272 146.968 86.7342 146.982L87.2657 143.018C86.8059 142.956 86.3472 142.957 85.8945 143.018L86.4359 146.982ZM72.0597 192.985C72.2645 193.804 72.8139 194.315 73.2715 194.601C73.7137 194.878 74.1968 195.03 74.6053 195.125C75.4278 195.316 76.4389 195.378 77.4767 195.388C79.5802 195.407 82.344 195.203 85.1489 194.994L84.8511 191.005C81.989 191.219 79.4125 191.405 77.5127 191.388C76.5488 191.379 75.8924 191.317 75.5079 191.228C75.3129 191.183 75.3076 191.157 75.3923 191.21C75.4925 191.273 75.8153 191.515 75.9403 192.015L72.0597 192.985ZM85.1489 194.994L85.4031 194.975L85.1053 190.986L84.8511 191.005L85.1489 194.994ZM85.4032 194.975C88.5502 194.74 91.7762 194.5 94.5 194.5V190.5C91.5971 190.5 88.2113 190.754 85.1052 190.986L85.4032 194.975ZM84.1658 144.951L83.0006 192.951L86.9994 193.048L88.1646 145.048L84.1658 144.951ZM94.0555 170.001L76.0555 169.501L75.9445 173.499L93.9445 173.999L94.0555 170.001ZM106.169 97.5072C101.244 97.0888 96.703 99.6111 93.4993 102.744C90.3429 105.831 87.9999 109.99 87.9999 113.5H91.9999C91.9999 111.51 93.5205 108.318 96.2959 105.604C99.024 102.936 102.483 101.208 105.831 101.493L106.169 97.5072ZM87.9999 113.5C87.9999 117.454 90.2445 121.741 93.4471 124.889C96.6766 128.063 101.22 130.414 106.169 129.993L105.83 126.007C102.377 126.301 98.921 124.661 96.2511 122.036C93.5542 119.385 91.9999 116.065 91.9999 113.5H87.9999ZM106.169 129.993C114.847 129.255 121.655 122.331 121.5 113.465L117.5 113.535C117.616 120.14 112.571 125.434 105.83 126.007L106.169 129.993ZM121.5 113.465C121.421 108.97 119.064 105.106 116.127 102.365C113.21 99.6436 109.466 97.7872 106.169 97.5072L105.831 101.493C108.034 101.68 110.973 103.027 113.398 105.29C115.803 107.534 117.446 110.436 117.5 113.535L121.5 113.465ZM119.5 111.5H106V115.5H119.5V111.5ZM106 111.5H89.9999V115.5H106V111.5ZM104 99.5V113.5H108V99.5H104ZM104 113.5V128H108V113.5H104Z" fill="white"/>
</svg>
