<svg width="225" height="228" viewBox="0 0 225 228" fill="none" xmlns="http://www.w3.org/2000/svg">
<path d="M106 82.5L106.111 82.9876L106.111 82.9876L106 82.5ZM91 48.5L91.0415 48.9983L91 48.5ZM115.87 76.6636C115.684 76.4593 115.368 76.4443 115.164 76.63C114.959 76.8158 114.944 77.132 115.13 77.3363L115.87 76.6636ZM120.13 82.8363C120.316 83.0406 120.632 83.0557 120.836 82.87C121.041 82.6842 121.056 82.368 120.87 82.1636L120.13 82.8363ZM118 77L118.464 76.8143L118.464 76.8143L118 77ZM134 54L133.897 54.4892L134 54ZM124.886 79.5L124.984 79.9902L124.984 79.9902L124.886 79.5ZM99.5 226L99.0002 225.986L99.998 226.045L99.5 226ZM103 99V98.5H102.514L102.5 98.9862L103 99ZM111 99L111.498 99.0451L111.547 98.5H111V99ZM179.5 101.5L179.929 101.243L179.929 101.243L179.5 101.5ZM32.0002 223L32.3538 222.647L32.3538 222.647L32.0002 223ZM99 226.082L98.9866 226.581L98.9866 226.581L99 226.082ZM36.5584 177.503C36.2842 177.471 36.0357 177.667 36.0034 177.942C35.9712 178.216 36.1673 178.464 36.4416 178.497L36.5584 177.503ZM173.5 185.5C173.776 185.5 174 185.276 174 185C174 184.724 173.776 184.5 173.5 184.5V185.5ZM39.75 157L39.7855 156.501L39.359 156.471L39.2628 156.888L39.75 157ZM38.25 163.5L37.7628 163.388L37.6307 163.96L38.217 163.999L38.25 163.5ZM114 225.5L113.501 225.465C113.491 225.603 113.54 225.739 113.634 225.841C113.729 225.942 113.861 226 114 226V225.5ZM123 99L123.499 99.0256L122.501 98.9645L123 99ZM116.5 225.5V226H116.975L116.999 225.526L116.5 225.5ZM120.5 85L120.808 85.3938L120.817 85.3871L120.825 85.3801L120.5 85ZM86 48L85.6573 47.6359L85.6573 47.6359L86 48ZM110.5 88L110.971 87.8336L110.971 87.8336L110.5 88ZM119 106L118.646 106.354L119.416 105.723L119 106ZM73 122L72.6276 121.666L73.3155 122.388L73 122ZM107.5 83.5L107.263 83.0597L107.186 83.1012L107.128 83.1663L107.5 83.5ZM114 80L114.372 79.6655L114.109 79.3735L113.763 79.5597L114 80ZM118.5 85L118.815 85.3879L119.223 85.0562L118.872 84.6655L118.5 85ZM147.962 168.999C148.238 169.019 148.478 168.813 148.499 168.538C148.519 168.262 148.313 168.022 148.038 168.001L147.962 168.999ZM103.001 160.471C102.985 160.747 103.196 160.983 103.471 160.999C103.747 161.015 103.983 160.804 103.999 160.529L103.001 160.471ZM120.5 99.5L120.968 99.3244L120.847 99H120.5V99.5ZM96.5 99.5V99H96.3067L96.1637 99.13L96.5 99.5ZM91 104.5L90.654 104.139L91.3363 104.87L91 104.5ZM115 81.5L115.447 81.2764L115.144 80.6696L114.654 81.139L115 81.5ZM116.5 84.5L116.785 84.9111L117.141 84.6642L116.947 84.2764L116.5 84.5ZM109.715 88.5889C109.488 88.7461 109.432 89.0575 109.589 89.2846C109.746 89.5116 110.058 89.5683 110.285 89.4111L109.715 88.5889ZM121.532 103.676C121.629 103.934 121.917 104.065 122.176 103.968C122.434 103.871 122.565 103.583 122.468 103.324L121.532 103.676ZM16.1085 111.988C16.378 111.928 16.548 111.661 16.4881 111.392C16.4282 111.122 16.1611 110.952 15.8915 111.012L16.1085 111.988ZM2.39153 114.012C2.12197 114.072 1.952 114.339 2.01191 114.608C2.07181 114.878 2.3389 115.048 2.60847 114.988L2.39153 114.012ZM15.7759 88.447C16.0228 88.5707 16.3232 88.4709 16.447 88.224C16.5707 87.9772 16.4709 87.6767 16.2241 87.553L15.7759 88.447ZM1.22406 80.0339C0.977198 79.9101 0.67676 80.01 0.553014 80.2568C0.429268 80.5037 0.529075 80.8041 0.775938 80.9279L1.22406 80.0339ZM29.0559 67.7297C29.1828 67.975 29.4844 68.071 29.7297 67.9441C29.975 67.8172 30.071 67.5155 29.9441 67.2703L29.0559 67.7297ZM22.4441 52.7703C22.3172 52.525 22.0156 52.429 21.7703 52.5559C21.525 52.6827 21.429 52.9844 21.5559 53.2297L22.4441 52.7703ZM51.5142 67.6173C51.579 67.8857 51.8491 68.0508 52.1176 67.986C52.386 67.9212 52.5511 67.6511 52.4863 67.3827L51.5142 67.6173ZM48.986 52.8826C48.9212 52.6142 48.6511 52.4491 48.3827 52.5139C48.1142 52.5787 47.9492 52.8489 48.014 53.1173L48.986 52.8826ZM204.772 111.055C204.526 111.181 204.429 111.482 204.555 111.728C204.681 111.974 204.982 112.071 205.228 111.945L204.772 111.055ZM224.728 101.945C224.974 101.819 225.071 101.518 224.945 101.272C224.819 101.026 224.518 100.929 224.272 101.055L224.728 101.945ZM209 127.5C208.724 127.5 208.5 127.724 208.5 128C208.5 128.276 208.724 128.5 209 128.5V127.5ZM224.449 129.997C224.723 130.026 224.969 129.826 224.997 129.551C225.026 129.277 224.826 129.031 224.551 129.003L224.449 129.997ZM205.281 144.087C205.053 143.931 204.742 143.99 204.587 144.219C204.431 144.447 204.49 144.758 204.719 144.913L205.281 144.087ZM217.219 153.413C217.447 153.569 217.758 153.509 217.913 153.281C218.069 153.053 218.01 152.742 217.781 152.587L217.219 153.413ZM165 67.9999L165.312 67.6095L165.312 67.6095L165 67.9999ZM179.5 41.5L179.084 41.7773L179.084 41.7773L179.5 41.5ZM109.5 1.99999L109.724 2.44721L109.724 2.44721L109.5 1.99999ZM41.4999 31.5L41.4124 31.0077L41.4124 31.0077L41.4999 31.5ZM24.4999 9L24.8535 9.35356L24.8535 9.35356L24.4999 9ZM37.4999 13.5L37.8535 13.8535L37.8535 13.8535L37.4999 13.5ZM43.9999 1L43.9999 0.5L43.9999 1ZM40.0517 157.003C39.777 156.974 39.5312 157.174 39.5027 157.448C39.4741 157.723 39.6737 157.969 39.9483 157.997L40.0517 157.003ZM169.95 170.998C170.225 171.025 170.47 170.825 170.498 170.55C170.525 170.275 170.325 170.03 170.05 170.002L169.95 170.998ZM40.2538 157.526L40.2021 158.024L40.2021 158.024L40.2538 157.526ZM38.515 162.878C38.4479 163.146 38.6105 163.418 38.8784 163.485C39.1462 163.552 39.4178 163.389 39.485 163.122L38.515 162.878ZM40.2538 158L40.2997 157.502L39.873 157.463L39.7688 157.878L40.2538 158ZM165 169.5L165.121 169.985L165.046 169.002L165 169.5ZM161 170.5L160.969 170.999L161.046 171.004L161.121 170.985L161 170.5ZM39.5 163L39.0257 162.842L38.82 163.459L39.4692 163.499L39.5 163ZM41 158.5L41.0415 158.002L40.6499 157.969L40.5257 158.342L41 158.5ZM155 168L155.062 168.496L155.042 167.502L155 168ZM147 169L146.97 169.499L147.016 169.502L147.062 169.496L147 169ZM40.2538 162.5L39.7827 162.332L39.5597 162.959L40.2234 162.999L40.2538 162.5ZM41.5 159L41.5356 158.501L41.1565 158.474L41.029 158.832L41.5 159ZM139.5 166L139.464 166.499L139.545 165.502L139.5 166ZM61.6102 159L61.655 158.502L61.5437 159.496L61.6102 159ZM117.5 166.5L117.457 166.998L117.567 166.004L117.5 166.5ZM42 160L42.0429 159.502L41.7046 159.473L41.5528 159.776L42 160ZM41 162L40.5528 161.776L40.2135 162.455L40.9709 162.499L41 162ZM101 165.5L100.971 165.999L101.105 165.011L101 165.5ZM94 164L94.1048 163.511L94.0755 163.505L94.0457 163.502L94 164ZM45 159.5L45.0457 159.002L44.8697 158.986L44.7226 159.084L45 159.5ZM42 161.5L41.7226 161.084L40.4796 161.913L41.9711 161.999L42 161.5ZM76.4711 163.999C76.7467 164.015 76.9832 163.805 76.9992 163.529C77.0151 163.253 76.8046 163.017 76.5289 163.001L76.4711 163.999ZM77.63 116.664C77.4443 116.868 77.4593 117.184 77.6637 117.37C77.868 117.556 78.1842 117.541 78.37 117.336L77.63 116.664ZM103 89.5L103.37 89.8363L103.663 89.5143L103.384 89.1799L103 89.5ZM90.5 74.5L90.0561 74.7302L90.0811 74.7784L90.1159 74.8201L90.5 74.5ZM83.5 61L83.9364 60.756L83.0561 61.2302L83.5 61ZM92.1667 76.5L91.7826 76.8201L91.7826 76.8201L92.1667 76.5ZM98.1581 81.5257C97.8961 81.4383 97.613 81.5799 97.5257 81.8419C97.4383 82.1039 97.5799 82.387 97.8419 82.4743L98.1581 81.5257ZM104 84L103.842 84.4743L104.038 84.5398L104.224 84.4472L104 84ZM107 82.5L107.224 82.9472L107.241 82.9386L107.257 82.9287L107 82.5ZM109.5 81L109.757 81.4287L109.955 81.31L109.993 81.0822L109.5 81ZM110 78L110.493 78.0822L110.511 77.9764L110.484 77.8728L110 78ZM107.5 68.5L107.942 68.2671L107.016 68.6272L107.5 68.5ZM112.5 78L112.058 78.2329L112.198 78.5H112.5V78ZM114.5 78V78.5H114.83L114.96 78.197L114.5 78ZM119 67.5L118.573 67.2393L118.555 67.27L118.54 67.303L119 67.5ZM124.5 58.5L124.128 58.1655L124.097 58.1999L124.073 58.2393L124.5 58.5ZM129 53.5L128.929 53.005L128.75 53.0307L128.628 53.1655L129 53.5ZM132.5 53L132.598 52.5097L132.514 52.4929L132.429 52.505L132.5 53ZM137.5 55.5L137.96 55.303L137.91 55.1879L137.812 55.1096L137.5 55.5ZM139 59L139.452 59.214L139.548 59.0103L139.46 58.803L139 59ZM134.048 68.286C133.93 68.5355 134.036 68.8337 134.286 68.9519C134.536 69.0701 134.834 68.9636 134.952 68.714L134.048 68.286ZM135.038 67.3077C134.932 67.5626 135.053 67.8553 135.308 67.9615C135.563 68.0677 135.855 67.9472 135.962 67.6923L135.038 67.3077ZM138 61.5L138.462 61.6923L138.5 61.6V61.5H138ZM137.314 54.9642C137.571 55.0668 137.862 54.9421 137.964 54.6857C138.067 54.4293 137.942 54.1383 137.686 54.0358L137.314 54.9642ZM135.5 53C135.776 53 136 52.7761 136 52.5C136 52.2239 135.776 52 135.5 52V53ZM130 52.5V52L129.924 52.9942L130 52.5ZM136.5 53.5L136.923 53.233L136.801 53.0404L136.576 53.0058L136.5 53.5ZM138.077 56.9337C138.225 57.1671 138.534 57.2369 138.767 57.0894C139 56.942 139.07 56.6331 138.923 56.3997L138.077 56.9337ZM130 54.5L129.863 54.0192L129.721 54.0598L129.624 54.1707L130 54.5ZM123 62.5L122.603 62.1963L123.376 62.8293L123 62.5ZM129.5 54V53.5H129.253L129.103 53.6963L129.5 54ZM133.637 53.9808C133.903 53.9049 134.057 53.6282 133.981 53.3626C133.905 53.0971 133.628 52.9434 133.363 53.0192L133.637 53.9808ZM129.51 55.4019C129.456 55.6727 129.631 55.9361 129.902 55.9903C130.173 56.0444 130.436 55.8688 130.49 55.5981L129.51 55.4019ZM130.99 53.0981C131.044 52.8273 130.869 52.5639 130.598 52.5097C130.327 52.4556 130.064 52.6312 130.01 52.9019L130.99 53.0981ZM127 55H127.5V53.6693L126.624 54.6707L127 55ZM127 56.5L127.372 56.8345L127.5 56.6919V56.5H127ZM117.564 70.7549C117.429 70.9955 117.514 71.3004 117.755 71.4358C117.996 71.5712 118.3 71.4858 118.436 71.2451L117.564 70.7549ZM123.5 59L123.124 58.6707L123.092 58.7067L123.068 58.7481L123.5 59ZM120 65L119.568 64.7481L120.41 65.2867L120 65ZM123.91 60.2867C124.068 60.0605 124.013 59.7487 123.787 59.5904C123.561 59.432 123.249 59.487 123.09 59.7133L123.91 60.2867ZM88.0611 71.2394C88.1933 71.4819 88.497 71.5712 88.7394 71.4389C88.9819 71.3067 89.0712 71.003 88.9389 70.7606L88.0611 71.2394ZM85.9389 65.2606C85.8067 65.0181 85.503 64.9288 85.2606 65.0611C85.0181 65.1933 84.9288 65.497 85.0611 65.7394L85.9389 65.2606ZM84.6877 49.6096C84.472 49.7821 84.4371 50.0967 84.6096 50.3123C84.7821 50.528 85.0967 50.5629 85.3123 50.3904L84.6877 49.6096ZM87.5 48V47.5H87.3246L87.1877 47.6096L87.5 48ZM91 48V48.5L91.0981 47.5097L91 48ZM88.5 47.5L88.5981 47.0097L88.2697 46.944L88.084 47.2226L88.5 47.5ZM87.084 48.7227C86.9308 48.9524 86.9929 49.2628 87.2227 49.416C87.4524 49.5692 87.7628 49.5071 87.916 49.2773L87.084 48.7227ZM107.854 68.3536C108.049 68.1583 108.049 67.8417 107.854 67.6464C107.658 67.4512 107.342 67.4512 107.146 67.6464L107.854 68.3536ZM106.646 68.1464C106.451 68.3417 106.451 68.6583 106.646 68.8536C106.842 69.0488 107.158 69.0488 107.354 68.8536L106.646 68.1464ZM119.036 65.8143C118.933 66.0707 119.058 66.3617 119.314 66.4642C119.571 66.5668 119.862 66.4421 119.964 66.1857L119.036 65.8143ZM120.964 63.6857C121.067 63.4293 120.942 63.1383 120.686 63.0358C120.429 62.9332 120.138 63.0579 120.036 63.3143L120.964 63.6857ZM135.474 68.1581C135.562 67.8961 135.42 67.613 135.158 67.5257C134.896 67.4383 134.613 67.5799 134.526 67.8419L135.474 68.1581ZM134.026 69.3419C133.938 69.6039 134.08 69.887 134.342 69.9743C134.604 70.0617 134.887 69.9201 134.974 69.6581L134.026 69.3419ZM125.332 80.3737C125.539 80.1902 125.557 79.8742 125.374 79.6678C125.19 79.4614 124.874 79.4428 124.668 79.6263L125.332 80.3737ZM120.5 84L120.162 84.3686L120.495 84.6736L120.832 84.3737L120.5 84ZM114.5 78.5L114.053 78.2764L113.884 78.6137L114.162 78.8686L114.5 78.5ZM118 71.5L118.485 71.6213L117.553 71.2764L118 71.5ZM117 75.5L116.515 75.3787L116.472 75.5508L116.547 75.7114L117 75.5ZM116.5 76L116.934 75.7519L116.471 74.9408L116.053 75.7764L116.5 76ZM116 77L115.553 76.7764L115.392 77.0987L115.646 77.3536L116 77ZM117 78L116.646 78.3536L116.666 78.3731L116.688 78.3904L117 78ZM122 82L121.688 82.3904L122.037 82.67L122.354 82.3536L122 82ZM124 80L124.354 80.3536L125.414 79.2929L123.929 79.505L124 80ZM120.5 80.5L120.429 80.005L120.342 80.9743L120.5 80.5ZM122 81L121.842 81.4743L122.135 81.5721L122.354 81.3536L122 81ZM122.5 80.5L122.916 80.7774L122.146 80.1464L122.5 80.5ZM120.5 83.5H120V85.1514L120.916 83.7773L120.5 83.5ZM120.5 81.5L120.805 81.1041L120 80.4829V81.5H120.5ZM114.872 78.8409L114.534 79.2095L114.534 79.2095L114.872 78.8409ZM115.901 78.2992C116.066 78.078 116.02 77.7647 115.799 77.5994C115.578 77.4342 115.265 77.4796 115.099 77.7008L115.901 78.2992ZM119.146 82.8536C119.342 83.0488 119.658 83.0488 119.854 82.8536C120.049 82.6583 120.049 82.3417 119.854 82.1464L119.146 82.8536ZM115.5 78.5L115.854 78.1464L115.124 78.8293L115.5 78.5ZM118.624 82.8293C118.806 83.0371 119.121 83.0581 119.329 82.8763C119.537 82.6944 119.558 82.3786 119.376 82.1707L118.624 82.8293ZM113 78.5L113.354 78.1464L113.031 77.8236L112.68 78.1159L113 78.5ZM119.5 85L119.81 85.3924L120.251 85.044L119.854 84.6464L119.5 85ZM110 92.5L109.683 92.887L109.994 93.1415L110.31 92.8924L110 92.5ZM93.5 79L93.8166 78.613L93.113 79.3166L93.5 79ZM98 84.5L97.613 84.8166L98.4287 84.2428L98 84.5ZM95 79.5L95.2906 79.0931L94.5713 79.7572L95 79.5ZM98.5 82L98.2094 82.4069L98.2796 82.457L98.3626 82.4808L98.5 82ZM105.5 84L105.363 84.4808L105.611 84.5517L105.812 84.3904L105.5 84ZM110.5 80L110.812 80.3904L111.033 80.214L110.996 79.9339L110.5 80ZM109.5 72.5L109.978 72.353L109.004 72.5661L109.5 72.5ZM111.5 79L111.022 79.147L111.389 80.3398L111.947 79.2236L111.5 79ZM112 78L112.447 78.2236L112.577 77.9641L112.416 77.7226L112 78ZM111 76.5L111.416 76.2226L110.5 74.8486V76.5H111ZM109.68 80.6159C109.468 80.7927 109.439 81.108 109.616 81.3201C109.793 81.5322 110.108 81.5609 110.32 81.3841L109.68 80.6159ZM113.854 80.6464C113.658 80.4512 113.342 80.4512 113.146 80.6464C112.951 80.8417 112.951 81.1583 113.146 81.3536L113.854 80.6464ZM117.5 85L117.146 85.3536L117.885 84.6812L117.5 85ZM113.885 79.8479C113.709 79.6351 113.394 79.6054 113.181 79.7815C112.968 79.9575 112.939 80.2727 113.115 80.4854L113.885 79.8479ZM106 85.5L105.832 85.9709L106.354 85.1464L106 85.5ZM105 84.5L104.824 84.0318L104.097 84.3045L104.646 84.8536L105 84.5ZM113 81.5L113.354 81.1464L113.126 80.9188L112.824 81.0318L113 81.5ZM117 85.5L116.646 85.8536L117 86.2071L117.354 85.8536L117 85.5ZM118 84.5L118.354 84.8536L117.682 84.1145L118 84.5ZM106.5 94L106.084 94.2774L106.391 94.7383L106.818 94.3855L106.5 94ZM99.5 83.5L99.8924 83.1902L99.084 83.7774L99.5 83.5ZM107 93L106.608 93.3098L107.416 92.7227L107 93ZM98.8536 82.1464C98.6583 81.9512 98.3417 81.9512 98.1464 82.1464C97.9512 82.3417 97.9512 82.6583 98.1464 82.8536L98.8536 82.1464ZM107.076 92.765C107.222 92.9992 107.531 93.0704 107.765 92.924C107.999 92.7776 108.07 92.4692 107.924 92.235L107.076 92.765ZM102.5 84.5L102.893 84.1911L102.076 84.765L102.5 84.5ZM108 91.5H108.5V91.3271L108.393 91.1911L108 91.5ZM108 92.5L107.545 92.7069L108.5 92.5H108ZM105.5 87L105.895 86.693L105.045 87.2069L105.5 87ZM109 91.5L108.605 91.807L109.454 91.2905L109 91.5ZM106 85L105.814 84.5358L105.325 84.7314L105.546 85.2095L106 85ZM106.276 85.5528C106.029 85.6763 105.929 85.9766 106.053 86.2236C106.176 86.4706 106.477 86.5707 106.724 86.4472L106.276 85.5528ZM114.5 82L114.724 82.4472L114.3 81.5419L114.5 82ZM106.5 85.5L106.3 85.0419L105.8 85.2606L106.061 85.7394L106.5 85.5ZM109.5 91L109.061 91.2394L109.381 91.8261L109.854 91.3536L109.5 91ZM110.5 90L110.854 90.3536L111.16 90.0469L110.9 89.7L110.5 90ZM107.5 86L107.9 85.7L107.063 86.2428L107.5 86ZM108.303 85.0404C108.049 85.1492 107.932 85.4431 108.04 85.697C108.149 85.9508 108.443 86.0684 108.697 85.9596L108.303 85.0404ZM112 84L112.265 84.424L111.803 83.5404L112 84ZM108 86.5H107.5V87.4021L108.265 86.924L108 86.5ZM108 85.5L108.416 85.2226L107.5 83.8486V85.5H108ZM111 90L110.584 90.2773L111.468 89.8244L111 90ZM109.5 86L109.257 85.5629L108.881 85.7722L109.032 86.1756L109.5 86ZM114 83.5L114.354 83.1464L114.087 82.8798L113.757 83.0629L114 83.5ZM115.5 85L115.743 85.4371L116.322 85.1152L115.854 84.6464L115.5 85ZM111 87.5H110.5V88.3498L111.243 87.9371L111 87.5ZM111 86L110.776 85.5528L110.5 85.691V86H111ZM114 84.5L114.354 84.1464L114.099 83.8916L113.776 84.0528L114 84.5ZM114.5 85L114.724 85.4472L115.344 85.137L114.854 84.6464L114.5 85ZM111.276 86.0528C111.029 86.1763 110.929 86.4766 111.053 86.7236C111.176 86.9706 111.477 87.0707 111.724 86.9472L111.276 86.0528ZM116.812 85.3904C117.028 85.2179 117.063 84.9033 116.89 84.6877C116.718 84.472 116.403 84.4371 116.188 84.6096L116.812 85.3904ZM111.188 88.6096C110.972 88.7821 110.937 89.0967 111.11 89.3123C111.282 89.528 111.597 89.5629 111.812 89.3904L111.188 88.6096ZM76.6367 117.656C76.447 117.857 76.4558 118.174 76.6565 118.363C76.8572 118.553 77.1736 118.544 77.3633 118.344L76.6367 117.656ZM103 90.5L103.416 90.2226L103.068 89.7004L102.637 90.1565L103 90.5ZM106 95L106.311 95.3919L106.671 95.1058L106.416 94.7226L106 95ZM79.5 116L79.1392 115.654L79.8105 116.392L79.5 116ZM103 91.5L103.434 91.2519L103.102 90.6711L102.639 91.1539L103 91.5ZM105 95L105.312 95.3904L105.646 95.1233L105.434 94.7519L105 95ZM85 111L84.6416 110.651L85.3123 111.39L85 111ZM103 92.5L103.464 92.3143L103.178 91.5997L102.642 92.1513L103 92.5ZM104 95L104.314 95.389L104.601 95.157L104.464 94.8143L104 95ZM91 105.5L90.654 105.139L91.3142 105.889L91 105.5ZM103 94L103.447 93.7764L103.144 93.1696L102.654 93.639L103 94ZM103.5 95L103.777 95.416L104.145 95.1712L103.947 94.7764L103.5 95ZM100.223 96.584C99.9929 96.7372 99.9308 97.0476 100.084 97.2774C100.237 97.5071 100.548 97.5692 100.777 97.416L100.223 96.584ZM113.002 225.957C112.978 226.233 113.182 226.475 113.457 226.498C113.733 226.522 113.975 226.318 113.998 226.043L113.002 225.957ZM120 150L120.499 150.023L119.502 149.957L120 150ZM116.5 226L116.342 226.474L116.969 226.683L116.999 226.023L116.5 226ZM118.5 175.5L119 175.52L118.001 175.465L118.5 175.5ZM115 225.5L114.501 225.465L114.474 225.852L114.842 225.974L115 225.5ZM115.5 224.985C115.492 225.261 115.709 225.491 115.985 225.5C116.261 225.508 116.491 225.291 116.5 225.015L115.5 224.985ZM117 208.515C117.008 208.239 116.791 208.009 116.515 208C116.239 207.992 116.009 208.209 116 208.485L117 208.515ZM100 209.986C99.9927 210.262 100.21 210.492 100.486 210.5C100.762 210.507 100.992 210.29 101 210.014L100 209.986ZM103.5 100V99.5H103.013L103 99.9864L103.5 100ZM110.5 100V100.5H111.602L110.876 99.6707L110.5 100ZM107 96L107.376 95.6707L107.024 95.2685L106.646 95.6464L107 96ZM104.5 98.5L104.146 98.1464L103.293 99H104.5V98.5ZM108.5 98.5V99H109.707L108.854 98.1464L108.5 98.5ZM107 97L107.354 96.6464L107.151 96.4441L106.874 96.5161L107 97ZM106.5 101C106.776 101 107 100.776 107 100.5C107 100.224 106.776 100 106.5 100V101ZM104 100.5V100H103.515L103.5 100.485L104 100.5ZM101 201L100.5 200.985L101.498 201.047L101 201ZM110.5 100.5L110.998 100.547L111.054 99.9521L110.458 100.002L110.5 100.5ZM104.5 101L104.458 100.502L104.013 100.539L104 100.985L104.5 101ZM102 185.5L101.5 185.485L102.498 185.547L102 185.5ZM110 101.5L110.498 101.547L110.555 100.942L109.95 101.002L110 101.5ZM105 102L104.646 101.646L103.656 102.637L105.05 102.498L105 102ZM105.5 101.5V101H105.293L105.146 101.146L105.5 101.5ZM106.5 101.5L106.999 101.525L107.026 101H106.5V101.5ZM103 170.5L102.501 170.475L103.498 170.547L103 170.5ZM109.5 102L109.998 102.047L110.056 101.435L109.445 101.503L109.5 102ZM105 102.5L104.945 102.003L104.514 102.051L104.5 102.484L105 102.5ZM103.5 149.5L103 149.484L103.968 149.676L103.5 149.5ZM105 145.5L105.468 145.676L105.492 145.613L105.498 145.546L105 145.5ZM109 102.5L109.498 102.546L109.557 101.915L108.929 102.005L109 102.5ZM105.5 103L105.429 102.505L105.018 102.564L105 102.979L105.5 103ZM104.5 126.5L104 126.479L104.993 126.584L104.5 126.5ZM108.5 103L108.993 103.084L109.092 102.5H108.5V103ZM107 103V102.5H106.522L106.501 102.977L107 103ZM105.5 136L105.001 135.977L105.999 136.038L105.5 136ZM108 103.5L108.499 103.538L108.566 102.658L107.776 103.053L108 103.5ZM106.776 103.553C106.529 103.676 106.429 103.977 106.553 104.224C106.676 104.471 106.977 104.571 107.224 104.447L106.776 103.553ZM155 168.5C155 168.776 155.224 169 155.5 169C155.776 169 156 168.776 156 168.5H155ZM155.5 168H156V167.557L155.56 167.504L155.5 168ZM139.06 165.504C138.786 165.47 138.537 165.666 138.504 165.94C138.47 166.214 138.666 166.463 138.94 166.496L139.06 165.504ZM112 92.5L112.411 92.2154L112.115 91.7884L111.7 92.1L112 92.5ZM108 95.5L107.7 95.1L107.263 95.4274L107.628 95.8338L108 95.5ZM134.089 125.285C134.246 125.512 134.558 125.568 134.785 125.411C135.012 125.254 135.068 124.942 134.911 124.715L134.089 125.285ZM134 124.5L133.628 124.834L134.413 124.218L134 124.5ZM120.5 99L120.402 98.5097L119.88 98.6141L120.017 99.1287L120.5 99ZM123 98.5H123.5V97.8901L122.902 98.0097L123 98.5ZM122 103C122 103.276 122.224 103.5 122.5 103.5C122.776 103.5 123 103.276 123 103H122ZM122.5 99H123V98.5232L122.524 98.5006L122.5 99ZM112 98.5L112.024 98.0006L111.948 98.9973L112 98.5ZM121.5 99.5L121.994 99.4256L121.937 99.0432L121.552 99.0027L121.5 99.5ZM128.582 118.774C128.733 119.005 129.043 119.07 129.274 118.918C129.505 118.767 129.57 118.457 129.418 118.226L128.582 118.774ZM126 115L125.633 115.339L126.422 114.732L126 115ZM112 93L112.422 92.7316L112.117 92.252L111.68 92.6159L112 93ZM109 95.5L108.68 95.1159L108.275 95.4536L108.634 95.8402L109 95.5ZM122 109.5L121.634 109.84L122.42 109.229L122 109.5ZM112 94L112.42 93.7289L112.084 93.2085L111.646 93.6464L112 94ZM110 96L109.646 95.6464L109.308 95.985L109.631 96.3379L110 96ZM115.5 102L115.131 102.338L115.926 101.738L115.5 102ZM111.5 95.5L111.926 95.238L111.594 94.6988L111.146 95.1464L111.5 95.5ZM111 96L110.646 95.6464L110.357 95.9363L110.584 96.2774L111 96ZM111.584 97.7774C111.737 98.0071 112.048 98.0692 112.277 97.916C112.507 97.7628 112.569 97.4524 112.416 97.2226L111.584 97.7774ZM105.889 82.0124C102.747 82.7266 99.7921 81.683 97.0846 79.6083C94.3712 77.529 91.9505 74.4442 89.9239 71.185C87.9005 67.9309 86.2876 64.5321 85.1806 61.8525C84.6273 60.5132 84.202 59.3574 83.916 58.4935C83.7728 58.0611 83.6658 57.7056 83.5952 57.4389C83.5598 57.3053 83.5347 57.1982 83.5188 57.1172C83.5012 57.028 83.5 56.9958 83.5 57L82.5 57C82.5 57.1696 82.5573 57.426 82.6285 57.6948C82.7059 57.9874 82.8195 58.3635 82.9667 58.8078C83.2613 59.6975 83.6952 60.8759 84.2564 62.2343C85.3783 64.9501 87.015 68.4008 89.0747 71.713C91.1312 75.0202 93.6271 78.2186 96.4764 80.402C99.3316 82.59 102.586 83.7888 106.111 82.9876L105.889 82.0124ZM83.5 57C83.5001 56.1924 83.3178 54.3974 84.1567 52.6815C84.9663 51.0256 86.7884 49.3527 91.0415 48.9983L90.9585 48.0017C86.4316 48.379 84.2538 50.2061 83.2583 52.2423C82.2923 54.2184 82.5001 56.3076 82.5 57L83.5 57ZM91.0415 48.9983C91.3044 48.9763 91.6477 49.0416 92.0773 49.2299C92.5037 49.4168 92.9866 49.7124 93.5167 50.1135C94.5771 50.9159 95.7814 52.1057 97.0424 53.5755C99.5622 56.5127 102.261 60.5124 104.433 64.6092C106.61 68.7147 108.234 72.8703 108.645 76.1251C108.85 77.754 108.745 79.1028 108.303 80.0979C107.874 81.0637 107.114 81.7341 105.889 82.0124L106.111 82.9876C107.636 82.6409 108.657 81.7644 109.217 80.5036C109.763 79.2721 109.853 77.7147 109.637 75.9999C109.204 72.5672 107.515 68.2853 105.317 64.1407C103.114 59.9875 100.375 55.9248 97.8014 52.9244C96.5154 51.4255 95.2588 50.1778 94.1201 49.3161C93.5506 48.8852 92.9992 48.5422 92.4788 48.314C91.9617 48.0873 91.4456 47.9611 90.9585 48.0017L91.0415 48.9983ZM115.13 77.3363L120.13 82.8363L120.87 82.1636L115.87 76.6636L115.13 77.3363ZM118.464 76.8143C117.892 75.3834 118.248 73.246 119.315 70.7383C120.368 68.2629 122.061 65.5513 123.966 63.0534C125.869 60.5563 127.969 58.2943 129.821 56.7132C130.749 55.9216 131.601 55.3124 132.326 54.9283C133.075 54.5313 133.594 54.4253 133.897 54.4892L134.103 53.5107C133.437 53.3704 132.647 53.6264 131.858 54.0447C131.045 54.4758 130.13 55.1352 129.172 55.9525C127.254 57.5892 125.107 59.9065 123.17 62.4471C121.234 64.9868 119.491 67.7711 118.395 70.3467C117.313 72.8899 116.805 75.3587 117.536 77.1857L118.464 76.8143ZM133.897 54.4892C134.971 54.7152 135.676 55.2172 136.122 55.9019C136.578 56.6005 136.796 57.5394 136.787 58.6836C136.769 60.9812 135.838 63.9338 134.429 66.911C133.025 69.8766 131.172 72.812 129.366 75.062C128.463 76.1873 127.579 77.1313 126.777 77.8199C125.961 78.5207 125.283 78.9107 124.788 79.0097L124.984 79.9902C125.74 79.8392 126.58 79.3073 127.429 78.5785C128.292 77.8374 129.218 76.8439 130.146 75.6879C132.002 73.3754 133.896 70.3733 135.333 67.3389C136.764 64.3162 137.768 61.2062 137.787 58.6913C137.797 57.4293 137.559 56.2745 136.96 55.3558C136.352 54.4233 135.405 53.7847 134.103 53.5107L133.897 54.4892ZM124.788 79.0097C122.351 79.4972 121.018 79.4626 120.188 79.0964C119.398 78.7481 118.959 78.0521 118.464 76.8143L117.536 77.1857C118.041 78.4478 118.602 79.4904 119.784 80.0114C120.925 80.5145 122.536 80.48 124.984 79.9902L124.788 79.0097ZM99.9998 226.014L103.5 99.0138L102.5 98.9862L99.0002 225.986L99.9998 226.014ZM103 99.5H111V98.5H103V99.5ZM110.502 98.9549L99.002 225.955L99.998 226.045L111.498 99.0451L110.502 98.9549ZM162 228C163.003 228 163.889 227.381 164.662 226.427C165.44 225.467 166.172 224.087 166.866 222.376C168.255 218.951 169.535 214.08 170.709 208.263C173.058 196.62 174.997 181.084 176.498 165.485C177.999 149.883 179.062 134.204 179.656 122.267C179.953 116.299 180.133 111.264 180.192 107.64C180.221 105.829 180.22 104.365 180.188 103.312C180.172 102.786 180.148 102.355 180.115 102.031C180.098 101.869 180.079 101.726 180.055 101.606C180.034 101.504 180 101.361 179.929 101.243L179.071 101.757C179.047 101.717 179.056 101.711 179.074 101.803C179.09 101.879 179.105 101.987 179.12 102.132C179.15 102.422 179.173 102.826 179.188 103.342C179.22 104.373 179.221 105.819 179.192 107.624C179.133 111.232 178.954 116.256 178.657 122.217C178.064 134.14 177.002 149.804 175.502 165.39C174.003 180.978 172.067 196.474 169.729 208.065C168.559 213.865 167.292 218.663 165.939 222.001C165.261 223.672 164.574 224.948 163.885 225.798C163.19 226.655 162.56 227 162 227V228ZM179.929 101.243C179.825 101.07 179.654 100.978 179.558 100.932C179.44 100.875 179.3 100.827 179.149 100.785C178.844 100.699 178.435 100.617 177.938 100.538C176.94 100.38 175.532 100.223 173.778 100.069C170.269 99.7609 165.339 99.4578 159.463 99.1648C147.708 98.5786 132.141 98.0316 116.515 97.5628C85.2667 96.6254 53.759 96 52.0002 96V97C53.7413 97 85.2336 97.6248 116.485 98.5624C132.109 99.0311 147.668 99.5779 159.413 100.164C165.286 100.456 170.201 100.759 173.691 101.066C175.438 101.219 176.818 101.373 177.781 101.526C178.265 101.602 178.629 101.677 178.876 101.747C179.001 101.782 179.081 101.812 179.126 101.834C179.194 101.866 179.129 101.852 179.071 101.757L179.929 101.243ZM52.0002 96C51.5894 96 51.2421 96.2269 50.9662 96.5052C50.685 96.7888 50.4179 97.185 50.1603 97.6607C49.6437 98.6151 49.1133 99.9893 48.5722 101.703C47.4878 105.137 46.3313 110.029 45.1506 115.886C42.7883 127.603 40.3179 143.24 38.1299 158.931C35.9417 174.624 34.0347 190.38 32.7997 202.339C32.1822 208.318 31.7323 213.353 31.4993 216.958C31.3829 218.759 31.3201 220.211 31.3183 221.249C31.3175 221.766 31.3317 222.192 31.3644 222.512C31.3806 222.671 31.4027 222.817 31.4344 222.941C31.4597 223.04 31.5124 223.219 31.6467 223.354L32.3538 222.647C32.4256 222.718 32.4241 222.775 32.4033 222.694C32.3889 222.638 32.373 222.546 32.3592 222.41C32.3317 222.142 32.3175 221.755 32.3183 221.251C32.32 220.245 32.3812 218.817 32.4972 217.023C32.729 213.436 33.1775 208.416 33.7944 202.442C35.0281 190.495 36.9335 174.751 39.1203 159.069C41.3073 143.385 43.7744 127.772 46.1309 116.083C47.3096 110.236 48.4578 105.386 49.5258 102.004C50.0609 100.31 50.5686 99.007 51.0397 98.1368C51.2761 97.7001 51.4903 97.3969 51.6763 97.2093C51.8677 97.0163 51.9736 97 52.0002 97V96ZM31.6467 223.354C31.7664 223.473 31.9271 223.536 32.0278 223.571C32.1503 223.614 32.2981 223.652 32.4628 223.688C32.7937 223.759 33.2382 223.828 33.7812 223.895C34.8699 224.031 36.3953 224.167 38.2883 224.302C42.0766 224.572 47.3647 224.843 53.6352 225.108C66.1776 225.637 82.6671 226.144 98.9866 226.581L99.0134 225.582C82.6952 225.144 66.2119 224.638 53.6773 224.108C47.4094 223.844 42.1329 223.574 38.3596 223.304C36.4718 223.17 34.9671 223.036 33.905 222.903C33.3726 222.837 32.9616 222.772 32.6728 222.71C32.5277 222.679 32.4246 222.651 32.3573 222.627C32.2682 222.596 32.3 222.593 32.3538 222.647L31.6467 223.354ZM98.9866 226.581C130.18 227.417 160.77 228 162 228V227C160.787 227 130.211 226.418 99.0134 225.582L98.9866 226.581ZM36.4416 178.497C87.4676 184.5 118.488 185.5 173.5 185.5V184.5C118.512 184.5 87.5324 183.5 36.5584 177.503L36.4416 178.497ZM175.022 171.08C174.416 170.689 173.353 170.315 171.961 169.947C170.549 169.575 168.74 169.193 166.598 168.806C162.312 168.031 156.663 167.227 150.132 166.418C137.069 164.8 120.453 163.158 104.107 161.689C87.7608 160.221 71.6805 158.923 59.6871 157.994C53.6903 157.529 48.7151 157.156 45.239 156.899C43.5009 156.77 42.1377 156.671 41.2089 156.604C40.7444 156.57 40.3887 156.544 40.1489 156.527C40.0291 156.519 39.9382 156.512 39.8774 156.508C39.8469 156.506 39.824 156.504 39.8086 156.503C39.8009 156.502 39.7952 156.502 39.7913 156.502C39.7894 156.502 39.7879 156.501 39.7869 156.501C39.786 156.501 39.7855 156.501 39.75 157C39.7145 157.499 39.715 157.499 39.7159 157.499C39.7169 157.499 39.7183 157.499 39.7203 157.499C39.7241 157.499 39.7298 157.5 39.7375 157.5C39.7528 157.501 39.7757 157.503 39.8061 157.505C39.8669 157.51 39.9576 157.516 40.0774 157.525C40.3169 157.542 40.6724 157.567 41.1366 157.601C42.065 157.668 43.4278 157.768 45.1653 157.896C48.6404 158.153 53.6144 158.526 59.6098 158.991C71.6008 159.92 87.6767 161.217 104.018 162.685C120.36 164.154 136.963 165.794 150.009 167.41C156.533 168.218 162.161 169.02 166.42 169.79C168.55 170.175 170.33 170.551 171.705 170.914C173.1 171.283 174.021 171.624 174.478 171.92L175.022 171.08ZM38.25 163.5C38.217 163.999 38.2175 163.999 38.2186 163.999C38.2196 163.999 38.2212 163.999 38.2233 163.999C38.2275 164 38.2338 164 38.2422 164.001C38.2589 164.002 38.284 164.003 38.3172 164.006C38.3837 164.01 38.4829 164.016 38.6137 164.025C38.8753 164.042 39.2634 164.068 39.7696 164.101C40.782 164.168 42.2667 164.266 44.1555 164.39C47.9333 164.638 53.328 164.991 59.7962 165.411C72.7324 166.251 89.9623 167.359 107.137 168.431C124.311 169.503 141.43 170.539 154.146 171.235C160.503 171.583 165.762 171.847 169.377 171.987C171.183 172.057 172.584 172.096 173.508 172.1C173.967 172.102 174.323 172.095 174.554 172.077C174.656 172.069 174.785 172.056 174.889 172.021C174.918 172.012 174.967 171.993 175.02 171.96C175.065 171.933 175.173 171.857 175.232 171.708C175.304 171.525 175.256 171.352 175.185 171.242C175.126 171.152 175.054 171.101 175.022 171.08L174.478 171.92C174.46 171.908 174.397 171.866 174.344 171.784C174.279 171.682 174.232 171.518 174.301 171.342C174.356 171.201 174.458 171.133 174.491 171.112C174.532 171.086 174.565 171.075 174.575 171.072C174.6 171.064 174.584 171.071 174.476 171.08C174.289 171.095 173.969 171.102 173.513 171.1C172.607 171.096 171.22 171.057 169.415 170.987C165.809 170.848 160.557 170.585 154.201 170.237C141.489 169.541 124.373 168.505 107.199 167.433C90.0258 166.361 72.7968 165.253 59.861 164.413C53.3931 163.993 47.9986 163.64 44.221 163.392C42.3323 163.268 40.8477 163.17 39.8354 163.104C39.3293 163.07 38.9412 163.045 38.6796 163.027C38.5488 163.019 38.4497 163.012 38.3832 163.008C38.35 163.006 38.3249 163.004 38.3082 163.003C38.2998 163.002 38.2935 163.002 38.2893 163.001C38.2872 163.001 38.2857 163.001 38.2846 163.001C38.2835 163.001 38.283 163.001 38.25 163.5ZM114.499 225.535L123.499 99.0355L122.501 98.9645L113.501 225.465L114.499 225.535ZM122.501 98.9743L116.001 225.474L116.999 225.526L123.499 99.0256L122.501 98.9743ZM116.5 225H114V226H116.5V225ZM70.308 124.894L107.467 95.8291L106.851 95.0414L69.692 124.106L70.308 124.894ZM107.467 95.8291L108.183 95.2688L107.567 94.4811L106.851 95.0414L107.467 95.8291ZM108.183 95.2688L110.62 93.3624L110.004 92.5747L107.567 94.4811L108.183 95.2688ZM110.62 93.3624L112.475 91.9117L111.859 91.124L110.004 92.5747L110.62 93.3624ZM112.475 91.9117L120.808 85.3938L120.192 84.6061L111.859 91.124L112.475 91.9117ZM120.5 85C120.825 85.3801 120.825 85.3799 120.825 85.3797C120.826 85.3795 120.826 85.3792 120.826 85.3788C120.827 85.378 120.829 85.3768 120.83 85.3753C120.834 85.3723 120.839 85.3679 120.846 85.362C120.859 85.3504 120.879 85.3331 120.906 85.3104C120.958 85.265 121.036 85.1977 121.136 85.1099C121.336 84.9342 121.628 84.6759 121.994 84.3446C122.728 83.6819 123.762 82.7265 124.966 81.5535C127.373 79.2091 130.468 75.9887 133.206 72.4959C135.936 69.0127 138.345 65.2161 139.333 61.722C139.828 59.9699 139.975 58.2637 139.601 56.699C139.223 55.123 138.325 53.727 136.797 52.5979L136.203 53.4021C137.55 54.398 138.308 55.5957 138.628 56.9318C138.951 58.2792 138.836 59.8035 138.37 61.4499C137.437 64.7526 135.126 68.4247 132.419 71.879C129.719 75.3237 126.658 78.5096 124.268 80.8371C123.074 82 122.05 82.9469 121.324 83.6026C120.961 83.9304 120.673 84.1854 120.476 84.3581C120.378 84.4444 120.302 84.5102 120.251 84.5542C120.226 84.5762 120.207 84.5928 120.194 84.6038C120.188 84.6093 120.183 84.6134 120.18 84.6161C120.178 84.6174 120.177 84.6184 120.176 84.619C120.176 84.6193 120.176 84.6195 120.175 84.6197C120.175 84.6198 120.175 84.6199 120.5 85ZM136.797 52.5979C135.273 51.4713 133.717 51.0298 132.169 51.1569C130.633 51.2831 129.153 51.965 127.757 52.9963C124.977 55.0514 122.42 58.5783 120.255 62.3117C118.083 66.0572 116.277 70.0642 115.014 73.1299C114.383 74.6639 113.886 75.9646 113.548 76.8825C113.378 77.3415 113.248 77.7049 113.16 77.954C113.116 78.0785 113.083 78.1745 113.061 78.2396C113.049 78.2721 113.041 78.2969 113.035 78.3137C113.032 78.3221 113.03 78.3285 113.029 78.3329C113.028 78.335 113.027 78.3367 113.027 78.3379C113.027 78.3384 113.027 78.3389 113.027 78.3392C113.026 78.3395 113.026 78.3398 113.5 78.5C113.974 78.6602 113.974 78.6601 113.974 78.66C113.974 78.6597 113.974 78.6594 113.974 78.659C113.974 78.6581 113.975 78.6566 113.976 78.6547C113.977 78.6508 113.979 78.6449 113.982 78.637C113.987 78.6212 113.995 78.5973 114.006 78.5658C114.028 78.5027 114.06 78.4088 114.104 78.2864C114.19 78.0416 114.318 77.6828 114.486 77.2287C114.821 76.3204 115.313 75.0314 115.939 73.5107C117.192 70.467 118.979 66.5052 121.12 62.8133C123.268 59.1091 125.742 55.7298 128.352 53.8005C129.652 52.8396 130.957 52.2598 132.251 52.1536C133.533 52.0483 134.852 52.4036 136.203 53.4021L136.797 52.5979ZM113.5 78.5C113.948 78.2787 113.948 78.2785 113.948 78.2781C113.948 78.2778 113.948 78.2773 113.947 78.2767C113.947 78.2755 113.946 78.2736 113.945 78.2712C113.942 78.2664 113.939 78.2593 113.934 78.2499C113.925 78.2311 113.911 78.2032 113.893 78.1666C113.856 78.0934 113.802 77.9851 113.731 77.8444C113.589 77.563 113.38 77.1518 113.111 76.6317C112.573 75.5915 111.796 74.115 110.837 72.3686C108.919 68.8771 106.27 64.3003 103.352 59.9705C100.44 55.6501 97.2364 51.5384 94.2032 49.0067C92.6889 47.7428 91.1753 46.8367 89.7273 46.5248C88.2465 46.2059 86.8489 46.5144 85.6573 47.6359L86.3427 48.3641C87.2761 47.4855 88.3316 47.2472 89.5168 47.5024C90.7348 47.7648 92.1002 48.554 93.5624 49.7745C96.4823 52.2115 99.622 56.2249 102.523 60.5294C105.417 64.8247 108.05 69.3728 109.96 72.8501C110.915 74.588 111.688 76.0569 112.223 77.0909C112.49 77.6079 112.698 78.0161 112.838 78.2947C112.908 78.434 112.962 78.541 112.998 78.6129C113.016 78.6489 113.029 78.6761 113.038 78.6943C113.043 78.7034 113.046 78.7102 113.048 78.7147C113.05 78.7169 113.05 78.7186 113.051 78.7197C113.051 78.7203 113.051 78.7206 113.051 78.7209C113.052 78.7212 113.052 78.7212 113.5 78.5ZM85.6573 47.6359C82.4518 50.6528 81.6576 54.5837 82.2249 58.701C82.79 62.8023 84.7081 67.1335 86.9854 71.0632C89.2664 74.9995 91.9289 78.5683 94.018 81.1504C95.0633 82.4423 95.9666 83.4891 96.6091 84.2136C96.9305 84.5759 97.1867 84.8577 97.363 85.0493C97.4512 85.1451 97.5194 85.2184 97.5657 85.268C97.5889 85.2928 97.6066 85.3116 97.6186 85.3244C97.6247 85.3308 97.6293 85.3356 97.6324 85.339C97.634 85.3406 97.6352 85.3419 97.636 85.3428C97.6364 85.3432 97.6368 85.3436 97.637 85.3438C97.6373 85.3441 97.6374 85.3443 98 85C98.3625 84.6556 98.3625 84.6556 98.3624 84.6555C98.3623 84.6554 98.3621 84.6551 98.3618 84.6548C98.3611 84.6542 98.3601 84.6531 98.3588 84.6517C98.3561 84.6488 98.3519 84.6444 98.3463 84.6385C98.3352 84.6267 98.3183 84.6088 98.2961 84.5849C98.2515 84.5373 98.1852 84.466 98.099 84.3723C97.9265 84.1848 97.6743 83.9075 97.3573 83.55C96.7231 82.8351 95.8298 81.7998 94.7954 80.5214C92.7254 77.9629 90.0968 74.438 87.8506 70.5618C85.6005 66.6789 83.7549 62.4789 83.2155 58.5645C82.6784 54.6662 83.4388 51.0971 86.3427 48.3641L85.6573 47.6359ZM98 85C97.6237 85.3292 97.6237 85.3292 97.6237 85.3292C97.6237 85.3292 97.6237 85.3293 97.6238 85.3293C97.6238 85.3293 97.6239 85.3294 97.6239 85.3295C97.6241 85.3297 97.6243 85.33 97.6247 85.3303C97.6253 85.3311 97.6263 85.3322 97.6276 85.3336C97.6301 85.3365 97.6339 85.3409 97.639 85.3467C97.6492 85.3584 97.6644 85.3757 97.6845 85.3987C97.7247 85.4447 97.7846 85.513 97.8631 85.6027C98.0201 85.782 98.2518 86.0466 98.5505 86.3877C99.1481 87.0698 100.014 88.0578 101.087 89.2813L101.839 88.6218C100.766 87.3985 99.9002 86.4107 99.3027 85.7288C99.004 85.3878 98.7724 85.1232 98.6155 84.944C98.537 84.8543 98.4772 84.786 98.437 84.7401C98.4169 84.7172 98.4017 84.6998 98.3916 84.6882C98.3865 84.6824 98.3827 84.678 98.3801 84.6751C98.3788 84.6736 98.3779 84.6725 98.3772 84.6718C98.3769 84.6714 98.3767 84.6712 98.3765 84.671C98.3764 84.6709 98.3764 84.6708 98.3763 84.6708C98.3763 84.6708 98.3763 84.6707 98.3763 84.6707C98.3763 84.6707 98.3763 84.6707 98 85ZM101.087 89.2813C101.093 89.288 101.099 89.2947 101.105 89.3014L101.857 88.642C101.851 88.6352 101.845 88.6285 101.839 88.6218L101.087 89.2813ZM101.105 89.3014C102.636 91.0471 104.588 93.2696 106.783 95.7655L107.534 95.105C105.339 92.6095 103.388 90.3874 101.857 88.6419L101.105 89.3014ZM106.783 95.7655C112.477 102.238 119.813 110.551 125.727 117.162C128.683 120.466 131.286 123.347 133.15 125.36C134.081 126.366 134.832 127.159 135.352 127.681C135.61 127.94 135.821 128.141 135.971 128.27C136.04 128.328 136.125 128.396 136.208 128.442C136.232 128.455 136.266 128.472 136.308 128.487C136.345 128.499 136.421 128.522 136.518 128.516C136.629 128.509 136.78 128.461 136.891 128.32C136.988 128.195 137 128.064 137 128H136C136 127.947 136.009 127.824 136.103 127.704C136.209 127.569 136.354 127.524 136.456 127.518C136.544 127.512 136.61 127.533 136.633 127.541C136.662 127.551 136.682 127.561 136.688 127.565C136.703 127.573 136.686 127.564 136.62 127.508C136.502 127.408 136.316 127.231 136.06 126.975C135.554 126.467 134.813 125.685 133.884 124.681C132.025 122.674 129.428 119.799 126.472 116.495C120.562 109.888 113.227 101.577 107.534 95.105L106.783 95.7655ZM137 128C137 127.856 136.958 127.714 136.919 127.602C136.875 127.48 136.814 127.344 136.742 127.198C136.598 126.906 136.391 126.542 136.133 126.119C135.616 125.271 134.875 124.153 133.973 122.836C132.168 120.2 129.697 116.737 127.041 112.988C121.717 105.476 115.654 96.8267 112.605 91.2771L111.729 91.7586C114.811 97.3697 120.914 106.072 126.225 113.566C128.885 117.32 131.348 120.774 133.148 123.401C134.048 124.715 134.776 125.816 135.279 126.64C135.531 127.053 135.721 127.388 135.846 127.641C135.909 127.768 135.951 127.866 135.977 127.938C136.006 128.021 136 128.032 136 128H137ZM112.605 91.2771C111.849 89.9003 111.289 88.7337 110.971 87.8336L110.029 88.1664C110.373 89.143 110.963 90.3653 111.729 91.7586L112.605 91.2771ZM110.971 87.8336C110.638 86.8875 110.717 85.7312 111.043 84.5202C111.367 83.3173 111.919 82.1179 112.458 81.1219L111.579 80.6458C111.02 81.6783 110.43 82.9537 110.078 84.2601C109.728 85.5583 109.598 86.9458 110.029 88.1664L110.971 87.8336ZM112.458 81.1219C112.532 80.9863 112.605 80.8547 112.677 80.7276L111.807 80.2342C111.732 80.3667 111.656 80.5041 111.579 80.6458L112.458 81.1219ZM112.677 80.7276C113.007 80.1464 113.315 79.6612 113.54 79.322C113.652 79.1526 113.744 79.0198 113.807 78.9301C113.839 78.8852 113.863 78.8512 113.879 78.8286C113.887 78.8174 113.893 78.809 113.897 78.8036C113.899 78.8009 113.901 78.7989 113.902 78.7978C113.902 78.7972 113.902 78.7968 113.903 78.7965C113.903 78.7964 113.903 78.7964 113.903 78.7964C113.903 78.7964 113.903 78.7964 113.903 78.7964C113.903 78.7964 113.903 78.7964 113.903 78.7964C113.903 78.7965 113.903 78.7965 113.5 78.5C113.097 78.2035 113.097 78.2035 113.097 78.2035C113.097 78.2035 113.097 78.2036 113.097 78.2036C113.097 78.2037 113.097 78.2038 113.097 78.2039C113.097 78.204 113.097 78.2043 113.097 78.2046C113.096 78.2051 113.096 78.2059 113.095 78.2068C113.094 78.2087 113.092 78.2114 113.089 78.2148C113.084 78.2216 113.077 78.2314 113.068 78.2442C113.049 78.2697 113.023 78.307 112.989 78.3551C112.921 78.4514 112.825 78.5914 112.707 78.7688C112.471 79.1234 112.15 79.6287 111.807 80.2342L112.677 80.7276ZM120.84 84.6336L114.84 79.0621L114.16 79.7949L120.16 85.3664L120.84 84.6336ZM114.84 79.0621L113.84 78.1336L113.16 78.8664L114.16 79.7949L114.84 79.0621ZM114.247 78.9972L111.766 80.4525L112.271 81.3151L114.753 79.8598L114.247 78.9972ZM111.766 80.4525L104.747 84.5687L105.253 85.4313L112.271 81.3151L111.766 80.4525ZM105 84.5H102.545V85.5H105V84.5ZM102.545 84.5H98V85.5H102.545V84.5ZM97.6464 85.3535L101.34 89.0473L102.047 88.3402L98.3535 84.6464L97.6464 85.3535ZM101.34 89.0473L101.358 89.0649L102.065 88.3578L102.047 88.3402L101.34 89.0473ZM101.358 89.0649L107.521 95.2285L108.229 94.5214L102.065 88.3578L101.358 89.0649ZM107.521 95.2285L118.646 106.354L119.354 105.646L108.229 94.5214L107.521 95.2285ZM119.416 105.723L110.728 92.6912L109.896 93.2459L118.584 106.277L119.416 105.723ZM110.728 92.6912L106.749 86.7226L105.917 87.2773L109.896 93.2459L110.728 92.6912ZM106.749 86.7226L105.416 84.7226L104.584 85.2773L105.917 87.2773L106.749 86.7226ZM105 85C104.628 84.6664 104.628 84.6664 104.628 84.6664C104.628 84.6664 104.628 84.6664 104.628 84.6664C104.628 84.6664 104.628 84.6664 104.627 84.6665C104.627 84.6665 104.627 84.6666 104.627 84.6667C104.627 84.667 104.627 84.6673 104.626 84.6678C104.625 84.6688 104.624 84.6702 104.622 84.6722C104.619 84.676 104.614 84.6818 104.607 84.6895C104.593 84.7049 104.573 84.7278 104.545 84.7581C104.491 84.8186 104.411 84.9085 104.305 85.0261C104.095 85.2613 103.785 85.607 103.389 86.0493L104.134 86.7163C104.53 86.274 104.84 85.9283 105.05 85.6932C105.156 85.5757 105.236 85.4857 105.29 85.4252C105.317 85.395 105.338 85.372 105.352 85.3567C105.359 85.349 105.364 85.3432 105.367 85.3394C105.369 85.3375 105.37 85.336 105.371 85.335C105.372 85.3345 105.372 85.3342 105.372 85.3339C105.372 85.3338 105.372 85.3337 105.372 85.3337C105.372 85.3336 105.372 85.3336 105.372 85.3336C105.372 85.3336 105.372 85.3336 105.372 85.3336C105.372 85.3336 105.372 85.3336 105 85ZM103.389 86.0493C102.85 86.6521 102.15 87.4342 101.321 88.3603L102.066 89.0271C102.895 88.1011 103.595 87.319 104.134 86.7163L103.389 86.0493ZM101.321 88.3603C101.245 88.4451 101.168 88.531 101.09 88.6181L101.836 89.2849C101.914 89.1978 101.991 89.1119 102.066 89.0271L101.321 88.3603ZM101.09 88.6181C96.5448 93.6992 88.4208 102.788 81.5619 110.507C78.1326 114.366 75.0188 117.883 72.8265 120.385C71.7308 121.636 70.8634 122.635 70.3017 123.297C70.0222 123.627 69.8132 123.879 69.6892 124.038C69.6366 124.105 69.5724 124.19 69.5349 124.258C69.5286 124.27 69.4952 124.329 69.4783 124.408C69.4715 124.44 69.4469 124.56 69.5022 124.7C69.532 124.763 69.6212 124.878 69.6808 124.927C69.7423 124.964 69.8641 125.007 69.9216 125.016C70.0392 125.027 70.1283 124.994 70.1544 124.984C70.1917 124.969 70.2202 124.953 70.2357 124.944C70.2675 124.925 70.2933 124.905 70.3081 124.894L69.6919 124.106C69.6926 124.106 69.6953 124.104 69.6998 124.1C69.7039 124.097 69.7126 124.091 69.7248 124.084C69.7353 124.078 69.7594 124.064 69.7931 124.051C69.8156 124.042 69.9018 124.009 70.0172 124.02C70.0736 124.029 70.1945 124.072 70.2554 124.108C70.3142 124.157 70.4028 124.271 70.4323 124.333C70.4868 124.471 70.4623 124.589 70.4563 124.617C70.447 124.661 70.4339 124.692 70.4283 124.705C70.4215 124.721 70.4155 124.732 70.4126 124.737C70.4037 124.754 70.4135 124.735 70.4778 124.653C70.5878 124.512 70.7848 124.274 71.0642 123.944C71.6205 123.289 72.4834 122.295 73.5787 121.044C75.7686 118.545 78.8804 115.03 82.3094 111.171C89.1671 103.454 97.2902 94.3658 101.836 89.2849L101.09 88.6181ZM70.3742 124.832L101.855 89.3033L101.107 88.6401L69.6258 124.168L70.3742 124.832ZM101.855 89.3033L102.086 89.043L101.337 88.3798L101.107 88.6401L101.855 89.3033ZM102.086 89.043L104.147 86.717L103.398 86.0538L101.337 88.3798L102.086 89.043ZM104.147 86.717L105.374 85.3316L104.626 84.6684L103.398 86.0538L104.147 86.717ZM97.8833 85.4862L100.883 86.2062L101.117 85.2338L98.1167 84.5138L97.8833 85.4862ZM100.883 86.2062L103.645 86.869L103.879 85.8966L101.117 85.2338L100.883 86.2062ZM103.645 86.869L103.656 86.8715L103.889 85.8992L103.879 85.8966L103.645 86.869ZM103.656 86.8716L106.217 87.4862L106.45 86.5138L103.889 85.8992L103.656 86.8716ZM106.217 87.4862L110.383 88.4862L110.617 87.5138L106.45 86.5138L106.217 87.4862ZM114.289 78.9753L112.031 80.0277L112.453 80.9341L114.711 79.8817L114.289 78.9753ZM112.031 80.0277L102.334 84.5468L102.756 85.4532L112.453 80.9341L112.031 80.0277ZM102.334 84.5468L100.789 85.2668L101.211 86.1732L102.756 85.4532L102.334 84.5468ZM73.3724 122.334L107.872 83.8337L107.128 83.1663L72.6276 121.666L73.3724 122.334ZM107.737 83.9402L114.237 80.4402L113.763 79.5597L107.263 83.0597L107.737 83.9402ZM113.628 80.3345L118.128 85.3345L118.872 84.6655L114.372 79.6655L113.628 80.3345ZM118.185 84.6121L72.6845 121.612L73.3155 122.388L118.815 85.3879L118.185 84.6121ZM39.2628 156.888L38.5128 160.138L39.4872 160.362L40.2372 157.112L39.2628 156.888ZM38.5128 160.138L37.7628 163.388L38.7372 163.612L39.4872 160.362L38.5128 160.138ZM148.038 168.001L39.0377 159.751L38.9623 160.749L147.962 168.999L148.038 168.001ZM103.999 160.529L107.499 99.5286L106.501 99.4713L103.001 160.471L103.999 160.529ZM107 100H120.5V99H107V100ZM107 99H96.5V100H107V99ZM96.1637 99.13L90.6637 104.13L91.3363 104.87L96.8363 99.87L96.1637 99.13ZM91.346 104.861L115.346 81.861L114.654 81.139L90.654 104.139L91.346 104.861ZM114.553 81.7236L116.053 84.7236L116.947 84.2764L115.447 81.2764L114.553 81.7236ZM116.215 84.0889L109.715 88.5889L110.285 89.4111L116.785 84.9111L116.215 84.0889ZM120.032 99.6755L121.532 103.676L122.468 103.324L120.968 99.3244L120.032 99.6755ZM15.8915 111.012L2.39153 114.012L2.60847 114.988L16.1085 111.988L15.8915 111.012ZM16.2241 87.553L1.22406 80.0339L0.775938 80.9279L15.7759 88.447L16.2241 87.553ZM29.9441 67.2703L22.4441 52.7703L21.5559 53.2297L29.0559 67.7297L29.9441 67.2703ZM52.4863 67.3827L48.986 52.8826L48.014 53.1173L51.5142 67.6173L52.4863 67.3827ZM205.228 111.945L224.728 101.945L224.272 101.055L204.772 111.055L205.228 111.945ZM209 128.5C209.171 128.5 209.905 128.559 211.034 128.662C212.145 128.763 213.603 128.904 215.188 129.06C218.358 129.372 222.032 129.747 224.449 129.997L224.551 129.003C222.134 128.753 218.458 128.377 215.287 128.065C213.701 127.909 212.24 127.768 211.125 127.666C210.028 127.566 209.229 127.5 209 127.5V128.5ZM204.719 144.913L217.219 153.413L217.781 152.587L205.281 144.087L204.719 144.913ZM165.312 67.6095C165.312 67.6094 165.309 67.6074 165.305 67.6007C165.3 67.5936 165.292 67.5805 165.283 67.5584C165.265 67.5125 165.246 67.4374 165.239 67.3232C165.223 67.0912 165.257 66.7629 165.352 66.3342C165.542 65.4808 165.951 64.341 166.529 63.0029C167.682 60.3335 169.468 56.9621 171.37 53.6886C173.271 50.4166 175.278 47.2581 176.869 45.0158C177.666 43.8915 178.348 43.0124 178.854 42.4654C179.113 42.1861 179.298 42.023 179.412 41.9509C179.474 41.9118 179.466 41.9312 179.407 41.9364C179.37 41.9397 179.308 41.9373 179.238 41.906C179.165 41.8736 179.115 41.8235 179.084 41.7773L179.916 41.2226C179.854 41.1295 179.764 41.046 179.646 40.9932C179.531 40.9414 179.416 40.9317 179.319 40.9403C179.141 40.956 178.987 41.0365 178.877 41.1059C178.648 41.2509 178.39 41.4945 178.12 41.7865C177.569 42.382 176.857 43.3037 176.053 44.4372C174.44 46.7105 172.417 49.8958 170.505 53.1863C168.594 56.4753 166.786 59.8852 165.611 62.6064C165.025 63.9635 164.587 65.1714 164.376 66.1169C164.271 66.5876 164.216 67.0214 164.241 67.3894C164.265 67.7472 164.371 68.1369 164.688 68.3904L165.312 67.6095ZM179.084 41.7773C179.084 41.7769 179.092 41.7906 179.105 41.8275C179.116 41.8636 179.129 41.9141 179.139 41.9816C179.16 42.1179 179.171 42.2991 179.167 42.5268C179.161 42.982 179.1 43.5723 178.999 44.2635C178.797 45.6437 178.442 47.3627 178.078 49.0839C177.715 50.7964 177.343 52.5128 177.114 53.8615C176.999 54.5347 176.917 55.1333 176.892 55.6027C176.879 55.8364 176.879 56.0546 176.901 56.2418C176.921 56.4082 176.967 56.6384 177.113 56.8172L177.886 56.1827C177.931 56.2365 177.91 56.2519 177.895 56.1245C177.882 56.018 177.879 55.8637 177.89 55.657C177.913 55.2455 177.987 54.6918 178.1 54.0291C178.325 52.7058 178.691 51.016 179.056 49.291C179.419 47.5747 179.781 45.825 179.989 44.4083C180.092 43.701 180.16 43.0609 180.167 42.5415C180.171 42.2819 180.16 42.0397 180.127 41.8276C180.095 41.6238 180.037 41.4042 179.916 41.2226L179.084 41.7773ZM177.113 56.8172C177.271 57.0088 177.509 57.0919 177.673 57.1363C177.862 57.1877 178.089 57.2213 178.336 57.244C178.833 57.2895 179.481 57.2968 180.216 57.2811C181.69 57.2495 183.584 57.1236 185.466 56.9989C187.356 56.8736 189.235 56.7496 190.704 56.7186C191.44 56.7031 192.057 56.7114 192.515 56.7519C192.744 56.7723 192.919 56.7995 193.041 56.8306C193.183 56.8669 193.184 56.8914 193.146 56.8535L193.853 56.1464C193.691 55.9835 193.464 55.9064 193.288 55.8616C193.092 55.8117 192.858 55.7784 192.603 55.7558C192.091 55.7104 191.43 55.7031 190.683 55.7188C189.186 55.7504 187.282 55.8763 185.4 56.001C183.509 56.1263 181.641 56.2504 180.195 56.2813C179.47 56.2968 178.867 56.2885 178.428 56.2481C178.207 56.2278 178.044 56.2009 177.935 56.1712C177.8 56.1346 177.832 56.1161 177.886 56.1827L177.113 56.8172ZM193.146 56.8535C193.082 56.7893 193.036 56.6981 193.027 56.5952C193.02 56.5041 193.045 56.4398 193.056 56.4158C193.074 56.377 193.082 56.3844 193.02 56.4422C192.908 56.547 192.693 56.7023 192.363 56.9059C191.713 57.3066 190.714 57.8333 189.465 58.4419C186.973 59.6567 183.533 61.1737 180.01 62.623C176.487 64.0724 172.89 65.45 170.083 66.3875C168.677 66.8569 167.481 67.212 166.596 67.4116C166.152 67.5119 165.802 67.569 165.552 67.5852C165.426 67.5933 165.341 67.59 165.289 67.5827C165.228 67.5741 165.258 67.5662 165.312 67.6095L164.688 68.3904C164.838 68.5104 165.015 68.554 165.15 68.5729C165.294 68.5932 165.453 68.5936 165.616 68.5831C165.943 68.5619 166.351 68.492 166.816 68.3871C167.75 68.1765 168.983 67.809 170.4 67.336C173.236 66.3886 176.856 65.0019 180.391 63.5478C183.926 62.0937 187.386 60.5679 189.904 59.3408C191.16 58.7286 192.194 58.1846 192.888 57.7573C193.229 57.5468 193.515 57.3488 193.703 57.1726C193.791 57.0898 193.9 56.9748 193.965 56.833C193.999 56.7576 194.035 56.6466 194.024 56.514C194.012 56.3695 193.949 56.2419 193.853 56.1464L193.146 56.8535ZM116.5 31.5C116.464 31.5 116.359 31.4802 116.18 31.308C116.004 31.1393 115.805 30.8688 115.589 30.4856C115.157 29.7216 114.71 28.6047 114.265 27.2287C113.375 24.4838 112.521 20.8036 111.803 17.0926C111.087 13.3845 110.51 9.6622 110.176 6.83961C110.009 5.4268 109.903 4.24816 109.87 3.41262C109.853 2.9923 109.855 2.67451 109.873 2.4625C109.883 2.35412 109.895 2.29496 109.902 2.27097C109.905 2.259 109.903 2.2735 109.887 2.30045C109.872 2.32438 109.825 2.3966 109.724 2.44721L109.276 1.55278C109.144 1.61901 109.068 1.72102 109.028 1.78845C108.986 1.8589 108.96 1.9306 108.942 1.98911C108.908 2.10608 108.889 2.24096 108.877 2.37611C108.853 2.65116 108.853 3.01842 108.87 3.45259C108.905 4.32603 109.014 5.53411 109.183 6.95724C109.521 9.80653 110.101 13.553 110.822 17.2824C111.542 21.0088 112.406 24.735 113.313 27.5369C113.766 28.9344 114.237 30.1261 114.718 30.9773C114.958 31.4017 115.213 31.7654 115.487 32.0291C115.758 32.2893 116.099 32.5 116.5 32.5V31.5ZM109.724 2.44721C109.758 2.42976 109.883 2.38334 110.206 2.63923C110.518 2.88619 110.886 3.323 111.297 3.93065C112.114 5.13738 113.01 6.87576 113.891 8.68925C114.763 10.485 115.626 12.3626 116.355 13.7838C116.719 14.4956 117.062 15.1154 117.366 15.5685C117.518 15.7941 117.671 15.9947 117.824 16.148C117.959 16.2846 118.167 16.4587 118.431 16.4953L118.568 15.5047C118.646 15.5154 118.637 15.548 118.533 15.4428C118.444 15.3542 118.332 15.2126 118.196 15.0106C117.926 14.6086 117.606 14.0321 117.244 13.3277C116.521 11.9162 115.679 10.081 114.79 8.25216C113.91 6.44103 112.987 4.64299 112.125 3.37001C111.697 2.73779 111.261 2.1989 110.827 1.85541C110.405 1.52083 109.843 1.26918 109.276 1.55278L109.724 2.44721ZM118.431 16.4953C118.712 16.5341 118.965 16.4029 119.129 16.2983C119.315 16.1796 119.512 16.0113 119.712 15.8168C120.116 15.4254 120.594 14.8673 121.117 14.2117C122.165 12.8978 123.439 11.1295 124.717 9.37166C126 7.60611 127.287 5.84999 128.377 4.53576C128.923 3.87746 129.407 3.34444 129.808 2.97998C130.009 2.79739 130.176 2.66838 130.31 2.58768C130.454 2.50086 130.51 2.49999 130.5 2.49999V1.49999C130.24 1.49999 129.995 1.61012 129.794 1.73132C129.583 1.85863 129.361 2.03465 129.135 2.24014C128.682 2.65182 128.163 3.22713 127.607 3.89752C126.494 5.24066 125.187 7.0234 123.908 8.78376C122.623 10.5519 121.366 12.2965 120.336 13.5882C119.819 14.2353 119.372 14.7532 119.016 15.0991C118.837 15.2732 118.695 15.3889 118.591 15.4555C118.464 15.5362 118.475 15.4918 118.568 15.5047L118.431 16.4953ZM130.5 2.49999C130.418 2.49999 130.337 2.45761 130.291 2.40188C130.263 2.36696 130.274 2.35843 130.287 2.42863C130.313 2.56797 130.313 2.82589 130.261 3.22368C130.158 4.00276 129.88 5.14339 129.456 6.54269C128.612 9.33229 127.218 13.0641 125.608 16.8022C123.997 20.5414 122.178 24.2682 120.488 27.0531C119.642 28.4477 118.839 29.5881 118.121 30.3735C117.761 30.7664 117.436 31.0567 117.149 31.2456C116.859 31.4373 116.645 31.5 116.5 31.5V32.5C116.917 32.5 117.324 32.3283 117.7 32.0806C118.08 31.83 118.468 31.4757 118.859 31.0483C119.641 30.1932 120.483 28.9898 121.343 27.5719C123.067 24.7318 124.906 20.9586 126.526 17.1978C128.147 13.4359 129.556 9.66769 130.413 6.8323C130.841 5.4191 131.139 4.21598 131.252 3.35444C131.308 2.93191 131.326 2.5453 131.27 2.24519C131.242 2.09566 131.187 1.91867 131.067 1.77023C130.929 1.60097 130.729 1.49999 130.5 1.49999V2.49999ZM41.4124 31.0077C41.3942 31.011 41.2865 31.0122 41.0471 30.8962C40.8225 30.7874 40.5418 30.6047 40.2083 30.3442C39.5429 29.8245 38.7256 29.0414 37.8113 28.0646C35.986 26.1144 33.8207 23.4431 31.7842 20.7018C29.7478 17.9607 27.8507 15.1637 26.559 12.9654C25.9115 11.8635 25.4258 10.9282 25.1489 10.233C25.0093 9.8825 24.9331 9.61813 24.908 9.43681C24.8778 9.2182 24.94 9.2671 24.8535 9.35356L24.1464 8.64644C23.8724 8.9204 23.8814 9.31305 23.9175 9.57393C23.9588 9.8721 24.0685 10.223 24.2199 10.603C24.5248 11.3687 25.0406 12.3552 25.6968 13.472C27.0125 15.7112 28.9318 18.5393 30.9814 21.2982C33.0309 24.0569 35.2211 26.7605 37.0813 28.7479C38.0097 29.7399 38.8677 30.5661 39.5927 31.1323C39.9544 31.4148 40.2976 31.6442 40.611 31.7961C40.9098 31.9409 41.2541 32.0515 41.5875 31.9923L41.4124 31.0077ZM24.8535 9.35356C24.7843 9.42279 24.7153 9.43946 24.7013 9.44245C24.6856 9.44582 24.69 9.44246 24.7254 9.44431C24.7966 9.44804 24.9162 9.46805 25.0927 9.51473C25.4409 9.60685 25.9212 9.77818 26.5041 10.01C27.6668 10.4725 29.1631 11.1451 30.6885 11.8174C32.2044 12.4855 33.7484 13.1531 34.9788 13.5904C35.5916 13.8083 36.1483 13.9769 36.5952 14.0569C36.8173 14.0967 37.0358 14.119 37.2318 14.1053C37.4153 14.0924 37.6647 14.0424 37.8535 13.8535L37.1464 13.1465C37.2102 13.0826 37.2542 13.1013 37.162 13.1077C37.0825 13.1133 36.9551 13.1054 36.7714 13.0726C36.4065 13.0073 35.9113 12.8606 35.3137 12.6482C34.1234 12.2251 32.6124 11.5725 31.0918 10.9023C29.5805 10.2362 28.0586 9.55211 26.8737 9.08084C26.2829 8.84584 25.757 8.65607 25.3484 8.54798C25.1465 8.49456 24.95 8.4547 24.7776 8.44568C24.6912 8.44116 24.5919 8.44321 24.4919 8.46462C24.3937 8.48566 24.2598 8.53302 24.1464 8.64644L24.8535 9.35356ZM37.8535 13.8535C38.0585 13.6486 38.275 13.2777 38.4881 12.8664C38.7124 12.4336 38.9672 11.8858 39.2411 11.2705C39.7869 10.0448 40.4301 8.5019 41.0725 7.02274C41.7202 5.53139 42.3714 4.09398 42.9504 3.03267C43.2411 2.49981 43.5028 2.08199 43.7264 1.80362C43.8387 1.66392 43.928 1.57623 43.9929 1.52741C44.0638 1.47408 44.0612 1.5 43.9999 1.5L43.9999 0.5C43.7512 0.5 43.5427 0.614697 43.3916 0.728368C43.2346 0.846549 43.086 1.00409 42.9468 1.17732C42.6677 1.52479 42.3727 2.00359 42.0725 2.55376C41.4698 3.65852 40.803 5.1329 40.1553 6.6244C39.5022 8.1281 38.8728 9.63911 38.3276 10.8638C38.056 11.4737 37.8107 12.0001 37.6003 12.4064C37.3786 12.8341 37.2257 13.0671 37.1464 13.1465L37.8535 13.8535ZM43.9999 1.5C43.8897 1.5 43.8272 1.4438 43.8188 1.43519C43.8157 1.43202 43.8385 1.45615 43.8748 1.53855C43.9466 1.70167 44.0215 1.97607 44.0892 2.37393C44.223 3.16024 44.3094 4.30628 44.3488 5.70933C44.4273 8.50848 44.3168 12.257 44.0558 16.028C43.7947 19.7997 43.3843 23.5765 42.8663 26.4343C42.6068 27.8663 42.3238 29.0476 42.0262 29.8771C41.8767 30.2939 41.7319 30.598 41.5987 30.7959C41.4537 31.0113 41.3824 31.0131 41.4124 31.0077L41.5875 31.9923C41.969 31.9244 42.2405 31.6332 42.4283 31.3542C42.6278 31.0578 42.8056 30.6661 42.9675 30.2147C43.2928 29.3079 43.5874 28.0634 43.8503 26.6126C44.3773 23.7048 44.791 19.8879 45.0534 16.097C45.3159 12.3055 45.4281 8.52277 45.3484 5.6813C45.3086 4.26404 45.2207 3.06242 45.075 2.20615C45.003 1.78272 44.9118 1.4121 44.79 1.13552C44.7294 0.998071 44.6485 0.853685 44.5347 0.736964C44.4155 0.61479 44.2352 0.5 43.9999 0.5V1.5ZM39.9483 157.997L40.2021 158.024L40.3054 157.029L40.0517 157.003L39.9483 157.997ZM40.2021 158.024L174.698 171.997L174.802 171.003L40.3054 157.029L40.2021 158.024ZM170.05 170.002L40.3035 157.029L40.204 158.024L169.95 170.998L170.05 170.002ZM39.485 163.122L40.7388 158.122L39.7688 157.878L38.515 162.878L39.485 163.122ZM40.2079 158.498L164.954 169.998L165.046 169.002L40.2997 157.502L40.2079 158.498ZM164.879 169.015L160.879 170.015L161.121 170.985L165.121 169.985L164.879 169.015ZM161.031 170.001L39.5308 162.501L39.4692 163.499L160.969 170.999L161.031 170.001ZM39.9743 163.158L41.4743 158.658L40.5257 158.342L39.0257 162.842L39.9743 163.158ZM40.9585 158.998L154.958 168.498L155.042 167.502L41.0415 158.002L40.9585 158.998ZM154.938 167.504L146.938 168.504L147.062 169.496L155.062 168.496L154.938 167.504ZM147.03 168.501L40.2842 162.001L40.2234 162.999L146.97 169.499L147.03 168.501ZM40.7248 162.668L41.971 159.168L41.029 158.832L39.7827 162.332L40.7248 162.668ZM41.4644 159.499L139.464 166.499L139.536 165.501L41.5356 158.501L41.4644 159.499ZM139.545 165.502L61.655 158.502L61.5655 159.498L139.455 166.498L139.545 165.502ZM61.5437 159.496L117.433 166.996L117.567 166.004L61.6767 158.504L61.5437 159.496ZM117.543 166.002L42.0429 159.502L41.9571 160.498L117.457 166.998L117.543 166.002ZM41.5528 159.776L40.5528 161.776L41.4472 162.224L42.4472 160.224L41.5528 159.776ZM40.9709 162.499L100.971 165.999L101.029 165.001L41.0291 161.501L40.9709 162.499ZM101.105 165.011L94.1048 163.511L93.8952 164.489L100.895 165.989L101.105 165.011ZM94.0457 163.502L45.0457 159.002L44.9543 159.998L93.9543 164.498L94.0457 163.502ZM44.7226 159.084L41.7226 161.084L42.2774 161.916L45.2774 159.916L44.7226 159.084ZM41.9711 161.999L76.4711 163.999L76.5289 163.001L42.0289 161.001L41.9711 161.999ZM78.37 117.336L103.37 89.8363L102.63 89.1637L77.63 116.664L78.37 117.336ZM90.9439 74.2698L83.9439 60.7698L83.0561 61.2302L90.0561 74.7302L90.9439 74.2698ZM103.384 89.1799L92.5508 76.1799L91.7826 76.8201L102.616 89.8201L103.384 89.1799ZM92.5508 76.1799L90.8841 74.1799L90.1159 74.8201L91.7826 76.8201L92.5508 76.1799ZM83.0636 61.244L91.7303 76.744L92.6031 76.256L83.9364 60.756L83.0636 61.244ZM97.8419 82.4743L103.842 84.4743L104.158 83.5257L98.1581 81.5257L97.8419 82.4743ZM104.224 84.4472L107.224 82.9472L106.776 82.0528L103.776 83.5528L104.224 84.4472ZM107.257 82.9287L109.757 81.4287L109.243 80.5713L106.743 82.0713L107.257 82.9287ZM109.993 81.0822L110.493 78.0822L109.507 77.9178L109.007 80.9178L109.993 81.0822ZM110.484 77.8728L107.984 68.3728L107.016 68.6272L109.516 78.1272L110.484 77.8728ZM107.058 68.7329L112.058 78.2329L112.942 77.7671L107.942 68.2671L107.058 68.7329ZM112.5 78.5H114.5V77.5H112.5V78.5ZM114.96 78.197L119.46 67.697L118.54 67.303L114.04 77.803L114.96 78.197ZM119.427 67.7607L124.927 58.7607L124.073 58.2393L118.573 67.2393L119.427 67.7607ZM124.872 58.8345L129.372 53.8345L128.628 53.1655L124.128 58.1655L124.872 58.8345ZM129.071 53.995L132.571 53.495L132.429 52.505L128.929 53.005L129.071 53.995ZM132.402 53.4903L134.902 53.9903L135.098 53.0097L132.598 52.5097L132.402 53.4903ZM134.688 53.8904L137.188 55.8904L137.812 55.1096L135.312 53.1096L134.688 53.8904ZM138.548 58.786L137.548 60.8971L138.452 61.3252L139.452 59.214L138.548 58.786ZM137.548 60.8971L134.048 68.286L134.952 68.714L138.452 61.3252L137.548 60.8971ZM135.962 67.6923L138.462 61.6923L137.538 61.3077L135.038 67.3077L135.962 67.6923ZM137.04 55.697L137.54 56.8636L138.46 56.4697L137.96 55.303L137.04 55.697ZM137.54 56.8636L138.54 59.197L139.46 58.803L138.46 56.4697L137.54 56.8636ZM138.5 61.5V61.1111H137.5V61.5H138.5ZM138.5 61.1111V56.6667H137.5V61.1111H138.5ZM137.686 54.0358L137.193 53.8386L136.821 54.7671L137.314 54.9642L137.686 54.0358ZM137.193 53.8386L135.186 53.0358L134.814 53.9642L136.821 54.7671L137.193 53.8386ZM135.186 53.0358L134.248 52.6608L133.877 53.5892L134.814 53.9642L135.186 53.0358ZM134.248 52.6608L132.686 52.0358L132.314 52.9642L133.877 53.5892L134.248 52.6608ZM132.5 53H135.5V52H132.5V53ZM132.5 52H130V53H132.5V52ZM129.924 52.9942L133.986 53.6192L134.139 52.6308L130.076 52.0058L129.924 52.9942ZM133.986 53.6192L136.424 53.9942L136.576 53.0058L134.139 52.6308L133.986 53.6192ZM136.077 53.767L136.584 54.5698L137.43 54.0358L136.923 53.233L136.077 53.767ZM136.584 54.5698L138.077 56.9337L138.923 56.3997L137.43 54.0358L136.584 54.5698ZM129.624 54.1707L122.624 62.1707L123.376 62.8293L130.376 54.8293L129.624 54.1707ZM123.397 62.8037L129.897 54.3037L129.103 53.6963L122.603 62.1963L123.397 62.8037ZM133.363 53.0192L131.613 53.5192L131.887 54.4808L133.637 53.9808L133.363 53.0192ZM131.613 53.5192L130.075 53.9586L130.349 54.9202L131.887 54.4808L131.613 53.5192ZM130.075 53.9586L129.863 54.0192L130.137 54.9808L130.349 54.9202L130.075 53.9586ZM129.5 54.5H130.3V53.5H129.5V54.5ZM130.3 54.5H131.75V53.5H130.3V54.5ZM130.49 55.5981L130.702 54.5375L129.722 54.3413L129.51 55.4019L130.49 55.5981ZM130.702 54.5374L130.79 54.0981L129.81 53.9019L129.722 54.3413L130.702 54.5374ZM130.79 54.0981L130.99 53.0981L130.01 52.9019L129.81 53.9019L130.79 54.0981ZM126.5 55V56.5H127.5V55H126.5ZM118.436 71.2451L125.186 59.2451L124.314 58.7549L117.564 70.7549L118.436 71.2451ZM126.628 56.1655L124.378 58.6655L125.122 59.3345L127.372 56.8345L126.628 56.1655ZM125.186 59.2451L126.311 57.2451L125.439 56.7549L124.314 58.7549L125.186 59.2451ZM126.311 57.2451L127.436 55.2451L126.564 54.7549L125.439 56.7549L126.311 57.2451ZM125.553 56.6175L123.178 58.6175L123.822 59.3825L126.197 57.3825L125.553 56.6175ZM123.876 59.3293L127.376 55.3293L126.624 54.6707L123.124 58.6707L123.876 59.3293ZM123.068 58.7481L119.568 64.7481L120.432 65.2519L123.932 59.2519L123.068 58.7481ZM120.41 65.2867L123.91 60.2867L123.09 59.7133L119.59 64.7133L120.41 65.2867ZM88.9389 70.7606L85.9389 65.2606L85.0611 65.7394L88.0611 71.2394L88.9389 70.7606ZM85.3123 50.3904L87.8123 48.3904L87.1877 47.6096L84.6877 49.6096L85.3123 50.3904ZM87.5 48.5H88.1667V47.5H87.5V48.5ZM88.1667 48.5H91V47.5H88.1667V48.5ZM91.0981 47.5097L88.5981 47.0097L88.4019 47.9903L90.9019 48.4903L91.0981 47.5097ZM88.084 47.2226L87.7506 47.7226L88.5827 48.2774L88.916 47.7774L88.084 47.2226ZM87.7506 47.7227L87.084 48.7227L87.916 49.2773L88.5827 48.2773L87.7506 47.7227ZM107.146 67.6464L106.646 68.1464L107.354 68.8536L107.854 68.3536L107.146 67.6464ZM119.964 66.1857L120.964 63.6857L120.036 63.3143L119.036 65.8143L119.964 66.1857ZM134.526 67.8419L134.026 69.3419L134.974 69.6581L135.474 68.1581L134.526 67.8419ZM124.668 79.6263L120.168 83.6263L120.832 84.3737L125.332 80.3737L124.668 79.6263ZM114.947 78.7236L118.447 71.7236L117.553 71.2764L114.053 78.2764L114.947 78.7236ZM117.515 71.3787L116.515 75.3787L117.485 75.6213L118.485 71.6213L117.515 71.3787ZM116.547 75.7114L118.409 79.7008L119.315 79.2779L117.453 75.2886L116.547 75.7114ZM118.409 79.7008L120.047 83.2114L120.953 82.7886L119.315 79.2779L118.409 79.7008ZM120.934 82.7519L118.618 78.6993L117.75 79.1954L120.066 83.2481L120.934 82.7519ZM118.618 78.6993L116.934 75.7519L116.066 76.2481L117.75 79.1954L118.618 78.6993ZM116.053 75.7764L115.553 76.7764L116.447 77.2236L116.947 76.2236L116.053 75.7764ZM115.646 77.3536L116.646 78.3536L117.354 77.6464L116.354 76.6464L115.646 77.3536ZM116.688 78.3904L117.872 79.3378L118.497 78.5569L117.312 77.6096L116.688 78.3904ZM117.872 79.3378L118.549 79.8798L119.174 79.0989L118.497 78.5569L117.872 79.3378ZM118.549 79.8798L121.362 82.1296L121.986 81.3487L119.174 79.0989L118.549 79.8798ZM121.362 82.1296L121.688 82.3904L122.312 81.6096L121.986 81.3487L121.362 82.1296ZM122.354 82.3536L124.354 80.3536L123.646 79.6464L121.646 81.6464L122.354 82.3536ZM123.929 79.505L120.429 80.005L120.571 80.995L124.071 80.495L123.929 79.505ZM120.342 80.9743L121.842 81.4743L122.158 80.5257L120.658 80.0257L120.342 80.9743ZM122.354 81.3536L122.854 80.8536L122.146 80.1464L121.646 80.6464L122.354 81.3536ZM121 83.5V83H120V83.5H121ZM121 83V81.5H120V83H121ZM122.084 80.2226L121.258 81.4618L122.09 82.0165L122.916 80.7774L122.084 80.2226ZM121.258 81.4618L120.965 81.9018L121.797 82.4565L122.09 82.0165L121.258 81.4618ZM120.965 81.9018L120.084 83.2227L120.916 83.7773L121.797 82.4565L120.965 81.9018ZM120.195 81.8959L121.075 82.5751L121.686 81.7832L120.805 81.1041L120.195 81.8959ZM120.838 83.6314L115.21 78.4723L114.534 79.2095L120.162 84.3686L120.838 83.6314ZM115.21 78.4723L114.838 78.1314L114.162 78.8686L114.534 79.2095L115.21 78.4723ZM115.099 77.7008L114.471 78.5417L115.273 79.1401L115.901 78.2992L115.099 77.7008ZM119.854 82.1464L115.854 78.1464L115.146 78.8536L119.146 82.8536L119.854 82.1464ZM115.124 78.8293L118.624 82.8293L119.376 82.1707L115.876 78.1707L115.124 78.8293ZM112.646 78.8536L119.146 85.3536L119.854 84.6464L113.354 78.1464L112.646 78.8536ZM119.19 84.6076L109.69 92.1076L110.31 92.8924L119.81 85.3924L119.19 84.6076ZM110.317 92.113L96.1738 80.5416L95.5405 81.3156L109.683 92.887L110.317 92.113ZM96.1738 80.5416L93.8166 78.613L93.1834 79.387L95.5405 81.3156L96.1738 80.5416ZM93.113 79.3166L97.613 84.8166L98.387 84.1834L93.887 78.6834L93.113 79.3166ZM98.4287 84.2428L96.2859 80.6713L95.4284 81.1858L97.5713 84.7572L98.4287 84.2428ZM96.2859 80.6713L95.4287 79.2428L94.5713 79.7572L95.4284 81.1858L96.2859 80.6713ZM94.7094 79.9069L98.2094 82.4069L98.7906 81.5931L95.2906 79.0931L94.7094 79.9069ZM98.3626 82.4808L105.363 84.4808L105.637 83.5192L98.6374 81.5192L98.3626 82.4808ZM105.812 84.3904L110.812 80.3904L110.188 79.6096L105.188 83.6096L105.812 84.3904ZM110.996 79.9339L109.996 72.4339L109.004 72.5661L110.004 80.0661L110.996 79.9339ZM109.022 72.647L110.522 77.522L111.478 77.228L109.978 72.353L109.022 72.647ZM110.522 77.522L111.022 79.147L111.978 78.853L111.478 77.228L110.522 77.522ZM111.947 79.2236L112.447 78.2236L111.553 77.7764L111.053 78.7764L111.947 79.2236ZM112.416 77.7226L111.416 76.2226L110.584 76.7774L111.584 78.2774L112.416 77.7226ZM110.32 81.3841L111.32 80.5508L110.68 79.7826L109.68 80.6159L110.32 81.3841ZM111.32 80.5508L113.32 78.8841L112.68 78.1159L110.68 79.7826L111.32 80.5508ZM110.5 76.5V77.375H111.5V76.5H110.5ZM110.5 77.375V80.1667H111.5V77.375H110.5ZM113.146 81.3536L117.146 85.3536L117.854 84.6464L113.854 80.6464L113.146 81.3536ZM117.885 84.6812L113.885 79.8479L113.115 80.4854L117.115 85.3188L117.885 84.6812ZM106.354 85.1464L105.354 84.1464L104.646 84.8536L105.646 85.8536L106.354 85.1464ZM105.176 84.9682L113.176 81.9682L112.824 81.0318L104.824 84.0318L105.176 84.9682ZM117.354 85.8536L118.354 84.8536L117.646 84.1464L116.646 85.1464L117.354 85.8536ZM117.682 84.1145L116.586 85.0193L117.223 85.7902L118.318 84.8855L117.682 84.1145ZM116.586 85.0193L106.182 93.6145L106.818 94.3855L117.223 85.7902L116.586 85.0193ZM106.916 93.7226L99.916 83.2226L99.084 83.7774L106.084 94.2774L106.916 93.7226ZM99.1076 83.8098L106.608 93.3098L107.392 92.6902L99.8924 83.1902L99.1076 83.8098ZM98.1464 82.8536C98.2455 82.9526 98.393 83.0375 98.5102 83.1006C98.6463 83.1739 98.8172 83.2564 99.0118 83.3449C99.4022 83.5226 99.9123 83.7356 100.483 83.9641L100.855 83.0359C100.289 82.8094 99.7958 82.603 99.426 82.4348C99.2407 82.3504 99.0924 82.2783 98.9842 82.2201C98.8572 82.1517 98.8352 82.128 98.8536 82.1464L98.1464 82.8536ZM100.483 83.9641C102.172 84.6408 104.437 85.4728 105.832 85.9709L106.168 85.0291C104.778 84.5327 102.526 83.7056 100.855 83.0359L100.483 83.9641ZM107.416 92.7227L101.085 83.2227L100.253 83.7773L106.584 93.2773L107.416 92.7227ZM107.924 92.235L102.924 84.235L102.076 84.765L107.076 92.765L107.924 92.235ZM102.107 84.8089L106.528 90.4364L107.315 89.8185L102.893 84.1911L102.107 84.8089ZM106.528 90.4364L107.607 91.8089L108.393 91.1911L107.315 89.8185L106.528 90.4364ZM107.5 91.5V92.5H108.5V91.5H107.5ZM108.455 92.2931L107.377 89.9205L106.466 90.3344L107.545 92.7069L108.455 92.2931ZM107.377 89.9205L105.955 86.7931L105.045 87.2069L106.466 90.3344L107.377 89.9205ZM105.105 87.307L108.605 91.807L109.395 91.193L105.895 86.693L105.105 87.307ZM109.454 91.2905L106.454 84.7905L105.546 85.2095L108.546 91.7095L109.454 91.2905ZM112.646 81.8536L113.146 82.3536L113.854 81.6464L113.354 81.1464L112.646 81.8536ZM113.146 82.3536L113.451 82.6579L114.158 81.9508L113.854 81.6464L113.146 82.3536ZM113.451 82.6579L113.48 82.6868L114.187 81.9798L114.158 81.9508L113.451 82.6579ZM113.48 82.6869L116.551 85.7583L117.258 85.0512L114.187 81.9798L113.48 82.6869ZM116.551 85.7583L116.646 85.8536L117.354 85.1464L117.258 85.0512L116.551 85.7583ZM106.186 85.4642L113.686 82.4642L113.314 81.5358L105.814 84.5358L106.186 85.4642ZM106.724 86.4472L106.938 86.3401L106.491 85.4456L106.276 85.5528L106.724 86.4472ZM106.938 86.3401L114.057 82.7805L113.61 81.8861L106.491 85.4456L106.938 86.3401ZM114.057 82.7805L114.724 82.4472L114.276 81.5528L113.61 81.8861L114.057 82.7805ZM114.3 81.5419L113.604 81.8463L114.005 82.7624L114.7 82.4581L114.3 81.5419ZM113.604 81.8463L106.3 85.0419L106.7 85.9581L114.005 82.7624L113.604 81.8463ZM106.061 85.7394L106.275 86.1323L107.153 85.6534L106.939 85.2606L106.061 85.7394ZM106.275 86.1323L109.061 91.2394L109.939 90.7606L107.153 85.6534L106.275 86.1323ZM110.9 89.7L107.9 85.7L107.1 86.3L110.1 90.3L110.9 89.7ZM109.854 91.3536L110.354 90.8536L109.646 90.1464L109.146 90.6464L109.854 91.3536ZM110.354 90.8536L110.854 90.3536L110.146 89.6464L109.646 90.1464L110.354 90.8536ZM107.063 86.2428L109.563 90.7428L110.437 90.2572L107.937 85.7572L107.063 86.2428ZM108.697 85.9596L112.197 84.4596L111.803 83.5404L108.303 85.0404L108.697 85.9596ZM111.735 83.576L108.206 85.7819L108.736 86.6299L112.265 84.424L111.735 83.576ZM108.206 85.7819L107.735 86.076L108.265 86.924L108.736 86.6299L108.206 85.7819ZM108.5 86.5V85.5H107.5V86.5H108.5ZM107.584 85.7774L108.055 86.4832L108.887 85.9285L108.416 85.2226L107.584 85.7774ZM108.055 86.4832L110.584 90.2773L111.416 89.7227L108.887 85.9285L108.055 86.4832ZM111.468 89.8244L109.968 85.8244L109.032 86.1756L110.532 90.1756L111.468 89.8244ZM109.743 86.4371L114.243 83.9371L113.757 83.0629L109.257 85.5629L109.743 86.4371ZM113.646 83.8536L115.146 85.3536L115.854 84.6464L114.354 83.1464L113.646 83.8536ZM115.257 84.5629L110.757 87.0629L111.243 87.9371L115.743 85.4371L115.257 84.5629ZM111.5 87.5V86H110.5V87.5H111.5ZM111.224 86.4472L114.224 84.9472L113.776 84.0528L110.776 85.5528L111.224 86.4472ZM113.646 84.8536L114.146 85.3536L114.854 84.6464L114.354 84.1464L113.646 84.8536ZM114.276 84.5528L111.276 86.0528L111.724 86.9472L114.724 85.4472L114.276 84.5528ZM116.188 84.6096L111.188 88.6096L111.812 89.3904L116.812 85.3904L116.188 84.6096ZM77.3633 118.344L103.363 90.8435L102.637 90.1565L76.6367 117.656L77.3633 118.344ZM102.584 90.7774L105.584 95.2774L106.416 94.7226L103.416 90.2226L102.584 90.7774ZM105.689 94.6081L79.1895 115.608L79.8105 116.392L106.311 95.3919L105.689 94.6081ZM79.8608 116.346L103.361 91.8461L102.639 91.1539L79.1392 115.654L79.8608 116.346ZM102.566 91.7481L104.566 95.2481L105.434 94.7519L103.434 91.2519L102.566 91.7481ZM104.688 94.6096L84.6877 110.61L85.3123 111.39L105.312 95.3904L104.688 94.6096ZM85.3584 111.349L103.358 92.8487L102.642 92.1513L84.6416 110.651L85.3584 111.349ZM102.536 92.6857L103.536 95.1857L104.464 94.8143L103.464 92.3143L102.536 92.6857ZM103.686 94.611L90.6858 105.111L91.3142 105.889L104.314 95.389L103.686 94.611ZM91.346 105.861L103.346 94.361L102.654 93.639L90.654 105.139L91.346 105.861ZM102.553 94.2236L103.053 95.2236L103.947 94.7764L103.447 93.7764L102.553 94.2236ZM103.223 94.584L100.223 96.584L100.777 97.416L103.777 95.416L103.223 94.584ZM113.998 226.043L120.498 150.043L119.502 149.957L113.002 225.957L113.998 226.043ZM119.501 149.977L116.001 225.977L116.999 226.023L120.499 150.023L119.501 149.977ZM117 226.02L119 175.52L118 175.48L116 225.98L117 226.02ZM118.001 175.465L114.501 225.465L115.499 225.535L118.999 175.535L118.001 175.465ZM114.842 225.974L116.342 226.474L116.658 225.526L115.158 225.026L114.842 225.974ZM116.5 225.015L117 208.515L116 208.485L115.5 224.985L116.5 225.015ZM101 210.014L104 100.014L103 99.9864L100 209.986L101 210.014ZM103.5 100.5H110.5V99.5H103.5V100.5ZM110.876 99.6707L107.376 95.6707L106.624 96.3293L110.124 100.329L110.876 99.6707ZM104.5 99H108.5V98H104.5V99ZM108.854 98.1464L107.354 96.6464L106.646 97.3536L108.146 98.8536L108.854 98.1464ZM106.646 95.6464L105.295 96.9976L106.002 97.7047L107.354 96.3536L106.646 95.6464ZM105.295 96.9976L104.146 98.1464L104.854 98.8536L106.002 97.7047L105.295 96.9976ZM106.874 96.5161L105.523 96.8672L105.775 97.835L107.126 97.4839L106.874 96.5161ZM106.5 100H104V101H106.5V100ZM103.5 100.485L100.5 200.985L101.5 201.015L104.5 100.515L103.5 100.485ZM101.498 201.047L110.998 100.547L110.002 100.453L100.502 200.953L101.498 201.047ZM110.458 100.002L104.458 100.502L104.542 101.498L110.542 100.998L110.458 100.002ZM104 100.985L101.5 185.485L102.5 185.515L105 101.015L104 100.985ZM102.498 185.547L110.498 101.547L109.502 101.453L101.502 185.453L102.498 185.547ZM109.95 101.002L106.432 101.354L106.532 102.349L110.05 101.998L109.95 101.002ZM106.432 101.354L104.95 101.502L105.05 102.498L106.532 102.349L106.432 101.354ZM105.354 102.354L105.854 101.854L105.146 101.146L104.646 101.646L105.354 102.354ZM105.5 102H106.5V101H105.5V102ZM106.001 101.475L105.983 101.826L106.982 101.877L106.999 101.525L106.001 101.475ZM105.983 101.826L105.958 102.313L106.957 102.363L106.982 101.877L105.983 101.826ZM105.958 102.313L105.931 102.842L106.93 102.892L106.957 102.363L105.958 102.313ZM105.931 102.842L105.043 120.35L106.042 120.4L106.93 102.892L105.931 102.842ZM105.043 120.35L103.654 147.732L104.653 147.782L106.042 120.4L105.043 120.35ZM103.654 147.732L102.501 170.475L103.499 170.525L104.653 147.782L103.654 147.732ZM103.498 170.547L109.998 102.047L109.002 101.953L102.502 170.453L103.498 170.547ZM109.445 101.503L106.402 101.841L106.513 102.835L109.555 102.497L109.445 101.503ZM106.402 101.841L104.945 102.003L105.055 102.997L106.513 102.835L106.402 101.841ZM104.5 102.484L103 149.484L104 149.516L105.5 102.516L104.5 102.484ZM103.968 149.676L104.622 147.933L103.685 147.581L103.032 149.324L103.968 149.676ZM104.622 147.933L105.468 145.676L104.532 145.324L103.685 147.581L104.622 147.933ZM105.498 145.546L109.498 102.546L108.502 102.454L104.502 145.454L105.498 145.546ZM108.929 102.005L106.36 102.372L106.501 103.362L109.071 102.995L108.929 102.005ZM106.36 102.372L105.429 102.505L105.571 103.495L106.501 103.362L106.36 102.372ZM105 102.979L104 126.479L105 126.521L106 103.021L105 102.979ZM104.993 126.584L106.035 120.459L105.05 120.291L104.007 126.416L104.993 126.584ZM106.035 120.459L106.946 115.107L105.961 114.939L105.05 120.291L106.035 120.459ZM106.946 115.107L108.151 108.031L107.165 107.863L105.961 114.939L106.946 115.107ZM108.151 108.031L108.993 103.084L108.007 102.916L107.165 107.863L108.151 108.031ZM108.5 102.5H107V103.5H108.5V102.5ZM106.501 102.977L105.954 115.001L106.953 115.046L107.499 103.023L106.501 102.977ZM105.954 115.001L105.001 135.977L105.999 136.023L106.953 115.046L105.954 115.001ZM105.999 136.038L108.156 107.986L107.159 107.909L105.001 135.962L105.999 136.038ZM108.156 107.986L108.499 103.538L107.501 103.462L107.159 107.909L108.156 107.986ZM107.776 103.053L106.776 103.553L107.224 104.447L108.224 103.947L107.776 103.053ZM156 168.5V168H155V168.5H156ZM155.56 167.504L139.06 165.504L138.94 166.496L155.44 168.496L155.56 167.504ZM111.7 92.1L107.7 95.1L108.3 95.9L112.3 92.9L111.7 92.1ZM134.911 124.715L123.411 108.104L122.589 108.673L134.089 125.285L134.911 124.715ZM123.411 108.104L123.204 107.805L122.382 108.374L122.589 108.673L123.411 108.104ZM123.204 107.805L116.891 98.687L116.069 99.2562L122.382 108.374L123.204 107.805ZM116.891 98.687L116.707 98.4199L115.884 98.9891L116.069 99.2562L116.891 98.687ZM116.707 98.4199L112.411 92.2154L111.589 92.7846L115.884 98.9891L116.707 98.4199ZM134.413 124.218L123.413 108.107L122.587 108.671L133.587 124.782L134.413 124.218ZM123.483 108.26L123.11 106.859L122.144 107.117L122.517 108.518L123.483 108.26ZM123.11 106.859L121.091 99.2775L120.125 99.5348L122.144 107.117L123.11 106.859ZM121.091 99.2775L120.983 98.8713L120.017 99.1287L120.125 99.5348L121.091 99.2775ZM120.598 99.4903L120.983 99.4134L120.787 98.4328L120.402 98.5097L120.598 99.4903ZM120.983 99.4134L123.098 98.9903L122.902 98.0097L120.787 98.4328L120.983 99.4134ZM122.5 98.5V108.389H123.5V98.5H122.5ZM123 103V99H122V103H123ZM122.524 98.5006L120.908 98.4236L120.861 99.4225L122.476 99.4994L122.524 98.5006ZM120.908 98.4236L116.319 98.2051L116.272 99.204L120.861 99.4225L120.908 98.4236ZM116.319 98.2051L116.073 98.1934L116.025 99.1923L116.272 99.204L116.319 98.2051ZM116.073 98.1934L115.633 98.1724L115.586 99.1713L116.025 99.1923L116.073 98.1934ZM115.633 98.1724L115.019 98.1432L114.971 99.1421L115.586 99.1713L115.633 98.1724ZM115.019 98.1432L113.411 98.0666L113.363 99.0655L114.971 99.1421L115.019 98.1432ZM113.411 98.0666L112.329 98.0151L112.281 99.014L113.363 99.0655L113.411 98.0666ZM112.329 98.0151L112.024 98.0006L111.976 98.9994L112.281 99.014L112.329 98.0151ZM111.948 98.9973L112.27 99.0312L112.375 98.0367L112.052 98.0027L111.948 98.9973ZM112.27 99.0312L113.387 99.1488L113.492 98.1543L112.375 98.0367L112.27 99.0312ZM113.387 99.1488L115.062 99.3251L115.167 98.3306L113.492 98.1543L113.387 99.1488ZM115.062 99.3251L115.699 99.3921L115.804 98.3976L115.167 98.3306L115.062 99.3251ZM115.699 99.3921L116.161 99.4407L116.265 98.4462L115.804 98.3976L115.699 99.3921ZM116.161 99.4407L116.428 99.4689L116.533 98.4744L116.265 98.4462L116.161 99.4407ZM116.428 99.4689L120.556 99.9034L120.66 98.9089L116.533 98.4744L116.428 99.4689ZM120.556 99.9034L121.448 99.9973L121.552 99.0027L120.66 98.9089L120.556 99.9034ZM107.628 95.8338L123.128 113.122L123.872 112.455L108.372 95.1662L107.628 95.8338ZM123.128 113.122L133.628 124.834L134.372 124.166L123.872 112.455L123.128 113.122ZM121.006 99.5744L122.133 107.063L123.121 106.914L121.994 99.4256L121.006 99.5744ZM122.133 107.063L122.298 108.164L123.287 108.015L123.121 106.914L122.133 107.063ZM122.298 108.164L122.478 109.355L123.467 109.206L123.287 108.015L122.298 108.164ZM122.478 109.355L122.667 110.614L123.656 110.465L123.467 109.206L122.478 109.355ZM122.667 110.614L122.916 112.269L123.905 112.12L123.656 110.465L122.667 110.614ZM122.916 112.269L123.006 112.863L123.994 112.714L123.905 112.12L122.916 112.269ZM129.418 118.226L123.391 109.007L122.554 109.554L128.582 118.774L129.418 118.226ZM123.391 109.007L116.632 98.6699L115.795 99.2171L122.554 109.554L123.391 109.007ZM116.632 98.6699L116.468 98.4192L115.631 98.9664L115.795 99.2171L116.632 98.6699ZM116.468 98.4192L112.418 92.2264L111.582 92.7736L115.631 98.9664L116.468 98.4192ZM107.633 95.8391L123.043 112.534L123.778 111.856L108.367 95.1609L107.633 95.8391ZM123.043 112.534L125.633 115.339L126.367 114.661L123.778 111.856L123.043 112.534ZM126.422 114.732L123.583 110.271L122.74 110.808L125.578 115.268L126.422 114.732ZM123.583 110.271L116.173 98.6264L115.329 99.1633L122.74 110.808L123.583 110.271ZM116.173 98.6264L116.031 98.4034L115.188 98.9403L115.329 99.1633L116.173 98.6264ZM116.031 98.4034L112.422 92.7316L111.578 93.2684L115.188 98.9403L116.031 98.4034ZM111.68 92.6159L108.68 95.1159L109.32 95.8841L112.32 93.3841L111.68 92.6159ZM108.634 95.8402L121.634 109.84L122.366 109.16L109.366 95.1598L108.634 95.8402ZM122.42 109.229L115.535 98.5568L114.695 99.0989L121.58 109.771L122.42 109.229ZM115.535 98.5568L115.415 98.3716L114.575 98.9137L114.695 99.0989L115.535 98.5568ZM115.415 98.3716L112.42 93.7289L111.58 94.2711L114.575 98.9137L115.415 98.3716ZM111.646 93.6464L109.646 95.6464L110.354 96.3536L112.354 94.3536L111.646 93.6464ZM109.631 96.3379L111.936 98.8524L112.674 98.1767L110.369 95.6621L109.631 96.3379ZM111.936 98.8524L111.954 98.8719L112.691 98.1961L112.674 98.1766L111.936 98.8524ZM111.954 98.8718L115.131 102.338L115.869 101.662L112.691 98.1961L111.954 98.8718ZM115.926 101.738L113.865 98.3895L113.014 98.9136L115.074 102.262L115.926 101.738ZM113.865 98.3895L113.813 98.304L112.961 98.8281L113.014 98.9136L113.865 98.3895ZM113.813 98.304L111.926 95.238L111.074 95.762L112.961 98.8281L113.813 98.304ZM111.146 95.1464L110.646 95.6464L111.354 96.3536L111.854 95.8536L111.146 95.1464ZM110.584 96.2774L111.584 97.7774L112.416 97.2226L111.416 95.7226L110.584 96.2774Z" fill="white"/>
</svg>
