<svg width="174" height="266" viewBox="0 0 174 266" fill="none" xmlns="http://www.w3.org/2000/svg">
<path d="M55 33.5H69M72 19L60 13M79 10.5L74.5 2M139 23L147 15.5M143.5 35H154M139 48L148.5 52M24.5 239.5C24.5 239.5 41 257.5 40 259.5C39.5 260.5 1.99998 254.5 2 252.5C2.00001 251.447 24.5 239.5 24.5 239.5ZM24.5 239.5L42 173M42 173C9.5 158.5 34 73.0001 44 73.0001C50.5 73.0001 89.1421 79.0488 93.5 81.5001C96.5 83.1875 82.5 173 42 173ZM153 246C149.095 252.639 142 263.5 144 263.5C146 263.5 172.317 260 172 258C171.683 256 160.029 250.491 153 246ZM153 246C147.728 218.273 146.272 202.727 141 175M141 175C107.5 177.5 107 88.0001 107 85.5001C107 82.879 152.888 74.3317 155 77.5001C157 80.5001 176.5 165.5 141 175ZM118 115C120.475 112.525 151.5 116 151.5 119.5C151.5 119.751 151.518 120.182 151.546 120.766M118 115L151.546 120.766M118 115C117.882 115.119 117.882 115.972 118 117.379M151.546 120.766C151.568 121.245 151.597 121.828 151.628 122.5M118 117.379C118.875 127.847 126.218 168.932 139 165.5C152.908 161.766 152.082 132.412 151.628 122.5M118 117.379L151.628 122.5M118 50C116.5 48.7704 123 27.75 124.5 28.5C125.5 29 124.767 36.8306 125.5 37.5C126.233 38.1694 135.5 34 136.5 35C137.5 36 119.5 51.2296 118 50ZM101.5 22C100.5 22.0492 92 4 93 4C94 4 98.5 8.5 99.5 8.5C100.5 8.5 105 1.99995 106.5 2C108 2.00005 103 21.9263 101.5 22ZM94.5 52C93.5 52.4678 83.5 47.8102 82 48C80.5 48.1898 98.5 63.4628 99.5 63.0001C100.5 62.5373 100.5 39.0696 99.5 40.0001C98.5 40.9305 95.5 51.5322 94.5 52ZM42 105.5C44 105.5 74 107 76.5 108C79.8477 109.339 61.122 165.5 47.5 161.5C22.1506 154.056 40 105.5 42 105.5Z" stroke="white" stroke-width="4" stroke-linecap="round"/>
</svg>
