<svg width="335" height="266" viewBox="0 0 335 266" fill="none" xmlns="http://www.w3.org/2000/svg">
<path d="M194.5 183.5V94.5H195.5H204.5L229.5 148L254.5 94.5H264.5V183.5H254.5V96L225 159.5L195.5 96.6311V183.5H194.5Z" fill="#575757"/>
<path d="M138.5 183.5L121.496 149.493L111.077 129.25L104 136.5V183.5H93V94.5H104V136.5L111.077 129.25L118.155 122L145 94.5L118.602 122.891L149 183.5H139H138.5Z" fill="#575757"/>
<path d="M156.5 131C158 136.5 171 148 171.5 148C171.752 148 183 139 186 130.5C186.845 128.106 186.169 124.5 186 124C185.109 121.372 182.701 118.92 181.5 118.5C179.841 117.92 178.697 118.043 177 118.5C174.32 119.221 171.838 123 171.5 123C171.162 123 168.68 119.221 166 118.5C164.303 118.043 163.174 117.967 161.5 118.5C158.734 119.381 157.475 121.266 156.5 124C156.408 124.258 156.084 129.475 156.5 131Z" fill="#575757"/>
<path d="M194.5 183.5H192.5V185.5H194.5V183.5ZM194.5 94.5V92.5H192.5V94.5H194.5ZM204.5 94.5L206.312 93.6533L205.773 92.5H204.5V94.5ZM254.5 94.5V92.5H253.227L252.688 93.6533L254.5 94.5ZM264.5 94.5H266.5V92.5H264.5V94.5ZM264.5 183.5V185.5H266.5V183.5H264.5ZM254.5 183.5H252.5V185.5H254.5V183.5ZM225 159.5L223.189 160.35C223.519 161.053 224.227 161.501 225.004 161.5C225.781 161.499 226.486 161.047 226.814 160.343L225 159.5ZM195.5 183.5V185.5H197.5V183.5H195.5ZM138.5 183.5L136.711 184.394L137.264 185.5H138.5V183.5ZM113.289 128.606C112.795 127.618 111.594 127.217 110.606 127.711C109.618 128.205 109.217 129.406 109.711 130.394L113.289 128.606ZM149 183.5V185.5H152.241L150.788 182.603L149 183.5ZM118.5 123L117.035 121.638L116.088 122.657L116.714 123.9L118.5 123ZM145 94.5L146.465 95.8619L143.569 93.1029L145 94.5ZM104 183.5V185.5H106V183.5H104ZM93 183.5H91V185.5H93V183.5ZM93 94.5V92.5H91V94.5H93ZM104 94.5H106V92.5H104V94.5ZM169.5 197.5C169.5 198.605 170.395 199.5 171.5 199.5C172.604 199.5 173.5 198.605 173.5 197.5H169.5ZM173.5 155.5C173.5 154.395 172.604 153.5 171.5 153.5C170.395 153.5 169.5 154.395 169.5 155.5H173.5ZM169.5 112.5C169.5 113.605 170.395 114.5 171.5 114.5C172.604 114.5 173.5 113.605 173.5 112.5H169.5ZM173.5 71C173.5 69.8954 172.604 69 171.5 69C170.395 69 169.5 69.8954 169.5 71H173.5ZM156.5 131L154.571 131.526L154.571 131.526L156.5 131ZM156.5 124L154.616 123.328L154.616 123.328L156.5 124ZM161.5 118.5L160.893 116.594L160.893 116.594L161.5 118.5ZM166 118.5L165.48 120.431L165.48 120.431L166 118.5ZM177 118.5L177.52 120.431L177.52 120.431L177 118.5ZM181.5 118.5L180.839 120.388L180.839 120.388L181.5 118.5ZM186 124L184.106 124.642L184.106 124.642L186 124ZM186 130.5L187.886 131.166L187.886 131.166L186 130.5ZM196.5 183.5V94.5H192.5V183.5H196.5ZM202.688 95.3467L227.688 148.847L231.312 147.153L206.312 93.6533L202.688 95.3467ZM231.312 148.847L256.312 95.3467L252.688 93.6533L227.688 147.153L231.312 148.847ZM254.5 96.5H264.5V92.5H254.5V96.5ZM262.5 94.5V183.5H266.5V94.5H262.5ZM264.5 181.5H254.5V185.5H264.5V181.5ZM226.862 160.229L231.362 148.729L227.638 147.271L223.138 158.771L226.862 160.229ZM226.811 158.65L197.311 95.7816L193.689 97.4807L223.189 160.35L226.811 158.65ZM197.311 95.7816L196.311 93.6504L192.689 95.3496L193.689 97.4807L197.311 95.7816ZM194.5 185.5H195.5V181.5H194.5V185.5ZM194.5 96.5H195.5V92.5H194.5V96.5ZM195.5 96.5H204.5V92.5H195.5V96.5ZM197.5 183.5V96.6311H193.5V183.5H197.5ZM197.5 96.6311V94.5H193.5V96.6311H197.5ZM256.5 183.5V96H252.5V183.5H256.5ZM256.5 96V94.5H252.5V96H256.5ZM226.814 160.343L256.314 96.8426L252.686 95.1574L223.186 158.657L226.814 160.343ZM140.289 182.606L123.285 148.598L119.707 150.387L136.711 184.394L140.289 182.606ZM123.285 148.598L113.289 128.606L109.711 130.394L119.707 150.387L123.285 148.598ZM150.786 182.6L120.286 122.1L116.714 123.9L147.214 184.4L150.786 182.6ZM119.965 124.362L120.066 124.253L117.137 121.529L117.035 121.638L119.965 124.362ZM120.066 124.253L146.465 95.8619L143.535 93.1381L117.137 121.529L120.066 124.253ZM102 136.5V183.5H106V136.5H102ZM104 181.5H93V185.5H104V181.5ZM95 183.5V94.5H91V183.5H95ZM93 96.5H104V92.5H93V96.5ZM102 94.5V136.5H106V94.5H102ZM143.569 93.1029L116.724 120.603L119.586 123.397L146.431 95.8971L143.569 93.1029ZM150.788 182.603L120.389 121.994L116.814 123.787L147.212 184.397L150.788 182.603ZM120.389 121.994L119.943 121.103L116.367 122.897L116.814 123.787L120.389 121.994ZM116.724 120.603L109.646 127.853L112.509 130.647L119.586 123.397L116.724 120.603ZM109.646 127.853L102.569 135.103L105.431 137.897L112.509 130.647L109.646 127.853ZM149 181.5H139V185.5H149V181.5ZM139 181.5H138.5V185.5H139V181.5ZM109.299 130.165L119.718 150.408L123.275 148.577L112.856 128.335L109.299 130.165ZM119.718 150.408L137.222 184.415L140.778 182.585L123.275 148.577L119.718 150.408ZM173.5 197.5V155.5H169.5V197.5H173.5ZM173.5 112.5V71H169.5V112.5H173.5ZM171.5 146C171.887 146 172.168 146.118 172.212 146.136C172.307 146.173 172.371 146.209 172.391 146.22C172.435 146.245 172.446 146.254 172.407 146.228C172.338 146.179 172.212 146.085 172.023 145.934C171.652 145.637 171.125 145.19 170.483 144.621C169.203 143.485 167.518 141.908 165.802 140.161C164.082 138.41 162.358 136.518 160.986 134.75C159.566 132.92 158.692 131.438 158.43 130.474L154.571 131.526C155.058 133.312 156.372 135.33 157.826 137.203C159.329 139.138 161.168 141.152 162.948 142.964C164.732 144.78 166.484 146.421 167.829 147.613C168.5 148.208 169.082 148.703 169.523 149.056C169.741 149.23 169.947 149.389 170.124 149.511C170.208 149.57 170.32 149.645 170.443 149.713C170.502 149.747 170.601 149.799 170.722 149.848C170.795 149.877 171.097 150 171.5 150V146ZM158.43 130.474C158.392 130.335 158.337 129.927 158.31 129.224C158.286 128.574 158.289 127.817 158.309 127.078C158.328 126.341 158.363 125.644 158.398 125.122C158.416 124.859 158.433 124.651 158.447 124.509C158.454 124.436 158.459 124.395 158.461 124.379C158.475 124.282 158.46 124.459 158.384 124.672L154.616 123.328C154.529 123.573 154.5 123.822 154.499 123.829C154.487 123.919 154.476 124.018 154.466 124.115C154.446 124.314 154.426 124.568 154.407 124.854C154.368 125.43 154.331 126.181 154.31 126.972C154.289 127.759 154.284 128.609 154.313 129.374C154.34 130.087 154.4 130.903 154.571 131.526L158.43 130.474ZM158.384 124.672C158.835 123.405 159.296 122.507 159.854 121.848C160.382 121.225 161.064 120.738 162.107 120.406L160.893 116.594C159.17 117.143 157.839 118.039 156.803 119.262C155.796 120.449 155.14 121.861 154.616 123.328L158.384 124.672ZM162.107 120.406C162.783 120.191 163.267 120.123 163.714 120.129C164.18 120.135 164.704 120.222 165.48 120.431L166.52 116.569C165.599 116.321 164.71 116.142 163.769 116.129C162.809 116.116 161.892 116.276 160.893 116.594L162.107 120.406ZM165.48 120.431C166.244 120.637 167.204 121.388 168.188 122.409C168.647 122.885 169.034 123.335 169.374 123.721C169.53 123.897 169.707 124.096 169.867 124.255C169.943 124.331 170.067 124.45 170.217 124.561C170.293 124.618 170.419 124.706 170.585 124.786C170.727 124.856 171.057 125 171.5 125V121C171.922 121 172.226 121.137 172.339 121.192C172.476 121.258 172.569 121.325 172.606 121.353C172.682 121.41 172.715 121.446 172.686 121.417C172.635 121.366 172.542 121.265 172.375 121.076C172.071 120.731 171.606 120.191 171.068 119.632C170.057 118.583 168.436 117.084 166.52 116.569L165.48 120.431ZM176.48 116.569C174.564 117.084 172.943 118.583 171.932 119.632C171.393 120.191 170.929 120.731 170.624 121.076C170.458 121.265 170.365 121.366 170.314 121.417C170.285 121.446 170.318 121.41 170.393 121.353C170.431 121.325 170.524 121.258 170.66 121.192C170.773 121.137 171.078 121 171.5 121V125C171.943 125 172.273 124.856 172.415 124.786C172.581 124.706 172.707 124.618 172.782 124.561C172.933 124.45 173.056 124.331 173.133 124.255C173.293 124.096 173.47 123.897 173.626 123.721C173.966 123.335 174.352 122.885 174.811 122.409C175.796 121.388 176.756 120.637 177.52 120.431L176.48 116.569ZM177.52 120.431C178.317 120.217 178.844 120.121 179.308 120.111C179.742 120.101 180.204 120.165 180.839 120.388L182.16 116.612C181.137 116.254 180.198 116.09 179.22 116.112C178.273 116.132 177.379 116.327 176.48 116.569L177.52 120.431ZM180.839 120.388C180.826 120.383 180.993 120.453 181.328 120.723C181.633 120.969 181.99 121.313 182.356 121.734C183.1 122.59 183.765 123.638 184.106 124.642L187.894 123.358C187.343 121.733 186.359 120.242 185.376 119.11C184.878 118.538 184.353 118.025 183.841 117.611C183.358 117.221 182.775 116.827 182.16 116.612L180.839 120.388ZM184.106 124.642C184.092 124.602 184.145 124.783 184.217 125.217C184.282 125.606 184.347 126.113 184.385 126.673C184.463 127.849 184.4 129.023 184.114 129.834L187.886 131.166C188.444 129.583 188.466 127.758 188.376 126.407C188.286 125.068 188.059 123.845 187.894 123.358L184.106 124.642ZM184.114 129.834C182.765 133.656 179.464 137.772 176.285 141.044C174.723 142.651 173.245 144.001 172.147 144.944C171.597 145.416 171.151 145.779 170.844 146.018C170.688 146.14 170.582 146.218 170.523 146.259C170.49 146.282 170.495 146.278 170.525 146.26C170.537 146.252 170.589 146.221 170.666 146.185C170.704 146.167 170.779 146.133 170.879 146.1C170.948 146.077 171.184 146 171.5 146V150C171.82 150 172.061 149.922 172.136 149.897C172.243 149.862 172.326 149.825 172.373 149.802C172.468 149.757 172.545 149.713 172.585 149.688C172.673 149.636 172.756 149.579 172.819 149.534C172.955 149.44 173.119 149.316 173.301 149.175C173.669 148.889 174.166 148.483 174.753 147.978C175.929 146.968 177.497 145.536 179.154 143.831C182.412 140.478 186.235 135.844 187.886 131.166L184.114 129.834Z" fill="#575757"/>
<path d="M53.5 193.5C53.5 193.5 56 202.5 57.5 202.5C59.1452 202.5 58.5 193.5 58.5 193.5M53.5 193.5C53.6821 194.5 55.9999 204 57.9998 204C60.9999 204 57.0001 180 54.5 180.5M53.5 193.5C53.1358 191.5 52.8365 180.833 54.5 180.5M56.5 202.5L58.0556 202.889M58.0556 202.889L58.5 203V202L58.0556 202.889ZM58.0556 202.889L57.5 204L59 207.5M54.5 180.5C53.1713 180.5 52.7867 190.809 52.5745 193.415M52.5745 193.415C52.5471 193.751 52.5227 193.959 52.4994 194M52.5745 193.415L53 193.5L53.5 195.5M52.5745 193.415L51.4293 193.186M52.4994 194C52.4583 194.073 52.0675 193.77 51.4822 193.245M52.4994 194L52.5979 194.492M51.4822 193.245C51.4594 193.225 51.4363 193.204 51.4129 193.183M51.4822 193.245L51.4293 193.186M51.4822 193.245L52.5979 194.492M51.4129 193.183C49.0609 191.058 43.8142 185.605 44.9994 186L51.4293 193.186M51.4129 193.183L51.4293 193.186M51.4129 193.183L50.5 193L55 200L53.5 195.5M52.5979 194.492L53.5 195.5M52.5979 194.492L53 196.5M72.5 224L59 207L68.5 220M1.50003 162C3.42059 160.4 10.4606 160.288 16.5002 161M1.50003 162C-0.360338 163.55 2.73038 165.966 8 168.725M1.50003 162L19.5 168.5M16.5002 161C19.326 161.333 22.0039 162.165 24.5 163.294M16.5002 161L19.5 168.5M45.0002 186.5C45.6578 187.404 43.5001 178.5 42.0002 177C38.9339 173.934 32.6982 167.005 24.5 163.294M45.0002 186.5C45.0002 186.5 44.8088 186.29 44.4658 185.923M45.0002 186.5C44.8669 186.317 44.6877 186.124 44.4658 185.923M24.5 163.294C24.5 163.294 29.1423 173.404 29.9573 173.978M29.9573 173.978C29.9729 173.989 29.9872 173.996 30 174M29.9573 173.978L30 174M29.9573 173.978L19.5 168.5M30 174C34.3083 175.293 42.3292 183.638 44.4658 185.923M30 174L19 173.846M44.4658 185.923C41.3069 183.055 29.5128 178.408 19 173.846M19 173.846C14.9555 172.091 11.1006 170.348 8 168.725M19.5 168.5L8 168.725M58.5 203.5C58.5 204.5 59.0004 208.5 62.0002 211M276 208C251 249.5 203.5 262.538 167 264.5C146.025 265.628 105.07 256.213 74.5 226.744C64.9073 217.497 56.3372 206.276 49.7279 192.786M46.5002 86.5C48.119 101.055 44.0002 113 36 124.5M46.5002 86.5L36.7952 100M46.5002 86.5C46.1159 83.0447 44.9562 79.4355 43.4239 76M36 124.5C36 124.5 36.7842 116.561 36.8336 105.5M36 124.5C36 117.273 34.7621 110.356 33.2968 103.5M36 124.5C35.8925 129.317 35.969 133.982 36.2169 138.5M36.7952 100C36.7618 98.214 36.7066 96.3753 36.6244 94.5M36.7952 100C36.8307 101.899 36.8415 103.739 36.8336 105.5M30.5002 58.5C31.3058 57.4258 38.9517 65.9732 43.4239 76M30.5002 58.5C32.7603 64.5668 34.2564 71.4826 35.2239 78.5M30.5002 58.5C29.1442 63.5065 28.5933 68.3171 28.5706 73M43.4239 76L36.067 86M36.067 86C35.8459 83.5096 35.5684 80.9984 35.2239 78.5M36.067 86C36.3226 88.8785 36.5029 91.7292 36.6244 94.5M35.2239 78.5L28.5706 73M28.5706 73C28.544 78.4715 29.2384 83.7687 30.2123 89M30.2123 89L36.6244 94.5M30.2123 89C31.1173 93.8611 32.2636 98.6654 33.2968 103.5M36.8336 105.5L33.2968 103.5M36.2169 138.5C42 134.5 48 127.5 48 127.5M36.2169 138.5C36.6326 146.076 37.5301 153.236 38.8494 160M48 127.5C48 127.5 45.3353 126.231 45 124.5C44.8063 123.5 47.5 120 49 120C50.2676 120 51.5 122.5 51.5 124.5C51.5 127.193 48 127.5 48 127.5ZM70.5 220C70.5 220 71.0919 221.085 72.6263 223.092M72.6263 223.092C74.5463 225.603 77.9419 229.557 83.5 234.634C83.5 234.634 78.5858 229.682 72.6263 223.092ZM72.6263 223.092C67.3398 217.246 61.2307 210.111 57 204C54.165 199.905 51.7724 196.281 49.7279 192.786M49.7279 192.786C44.9679 183.07 41.2249 172.178 38.8494 160M49.7279 192.786C44.1423 183.236 41.1558 174.641 38.8494 160M88.4999 238.501C90.4999 239.5 82.7369 221.352 81.4999 223.001C80.2629 224.65 83.4999 234.501 83.4999 234.501M88.4999 238.501C86.2629 237.383 83.4999 234.501 83.4999 234.501M88.4999 238.501C88.4999 238.501 86.8062 241.545 81.9475 241C77.5039 240.5 71.5106 236.507 68.5078 234.506L68.4999 234.501C68.1845 234.291 83.4999 234.501 83.4999 234.501M19 149.5C20.7173 148.634 20.1178 146.919 20 145C19.8309 142.244 18.6552 140.759 16 140C14.498 139.571 13.3563 139.225 12 140C9.62649 141.356 10.462 144.74 12 147C12.945 148.389 13.8844 149.04 15.5 149.5C16.8146 149.874 17.7794 150.115 19 149.5ZM19 149.5C19 149.5 25.5 153 31 154M31 154L38.5 160M31 154C31 154 31 148.5 29.5 144.5C27.2793 138.578 15 126 15 126M15 126C15 126 11.2635 125.28 10 123.5C8.95813 122.032 8.77044 120.786 9.00001 119C9.22273 117.268 9.40878 115.72 11 115C13.0747 114.061 14.7774 116.079 16 118C16.8645 119.358 17.1516 120.397 17 122C16.8355 123.739 15 126 15 126ZM52.9999 202C49.4999 198.5 31.5 189.5 30.5 191.5C29.5 193.5 43.9999 206.5 47 207.5C52.4999 209.333 57.5 206.5 57.5 206.5L52.9999 202ZM74.001 224C75.0012 217.496 70.0892 204.112 69.5008 204.504C68.001 205.504 68.0802 212.63 69.5008 217.504C70.626 221.364 73.9251 224.494 74.001 224ZM49.501 215.5C51.501 214 79.5018 223.5 72.0009 227.5C64.5 231.5 47.9865 216.636 49.501 215.5Z" stroke="#4E4E4E" stroke-linecap="round"/>
<path d="M281.5 72.0891C281.5 72.0891 279 63.0891 277.5 63.0891C275.855 63.0891 276.5 72.0891 276.5 72.0891M281.5 72.0891C281.318 71.0891 279 61.5892 277 61.5892C274 61.5892 278 85.5891 280.5 85.0891M281.5 72.0891C281.864 74.0891 282.164 84.7564 280.5 85.0891M278.5 63.0891L276.945 62.7002M276.945 62.7002L276.5 62.5891V63.5891L276.945 62.7002ZM276.945 62.7002L277.5 61.5891L276 58.0891M280.5 85.0891C281.829 85.0891 282.213 74.7799 282.426 72.1742M282.426 72.1742C282.453 71.8382 282.478 71.6303 282.501 71.5891M282.426 72.1742L282 72.0891L281.5 70.0891M282.426 72.1742L283.571 72.4032M282.501 71.5891C282.542 71.5164 282.933 71.8189 283.518 72.3441M282.501 71.5891L282.402 71.0973M283.518 72.3441C283.541 72.3646 283.564 72.3854 283.587 72.4065M283.518 72.3441L283.571 72.4032M283.518 72.3441L282.402 71.0973M283.587 72.4065C285.939 74.5315 291.186 79.9843 290.001 79.5891L283.571 72.4032M283.587 72.4065L283.571 72.4032M283.587 72.4065L284.5 72.5891L280 65.5891L281.5 70.0891M282.402 71.0973L281.5 70.0891M282.402 71.0973L282 69.0891M262.5 41.5891L276 58.5891L266.5 45.5891M333.5 103.589C331.58 105.19 324.54 105.301 318.5 104.589M333.5 103.589C335.361 102.039 332.27 99.6233 327 96.8641M333.5 103.589L315.5 97.0891M318.5 104.589C315.674 104.256 312.996 103.424 310.5 102.295M318.5 104.589L315.5 97.0891M290 79.0891C289.342 78.1849 291.5 87.0891 293 88.5891C296.066 91.6555 302.302 98.5841 310.5 102.295M290 79.0891C290 79.0891 290.191 79.2996 290.534 79.6663M290 79.0891C290.133 79.2723 290.313 79.4649 290.534 79.6663M310.5 102.295C310.5 102.295 305.858 92.1852 305.043 91.6115M305.043 91.6115C305.027 91.6004 305.013 91.5929 305 91.5891M305.043 91.6115L305 91.5891M305.043 91.6115L315.5 97.0891M305 91.5891C300.692 90.2966 292.671 81.9506 290.534 79.6663M305 91.5891L316 91.7433M290.534 79.6663C293.693 82.5337 305.487 87.1814 316 91.7433M316 91.7433C320.045 93.4983 323.9 95.2407 327 96.8641M315.5 97.0891L327 96.8641M276.5 62.0891C276.5 61.0891 276 57.0891 273 54.5891M59 57.5891C84 16.0891 131.5 3.05144 168 1.08907C188.975 -0.0386353 229.93 9.37653 260.5 38.8448C270.093 48.0918 278.663 59.3133 285.272 72.8032M288.5 179.089L298.205 165.589M288.5 179.089C288.884 182.544 290.044 186.154 291.576 189.589M288.5 179.089C287.864 173.366 288.114 168.047 289.139 163M299 141.089C299 148.316 300.238 155.233 301.703 162.089M299 141.089C299.108 136.272 299.031 131.607 298.783 127.089M299 141.089C294.145 148.068 290.72 155.21 289.139 163M299 141.089C299 141.089 298.449 146.673 298.241 155M298.205 165.589C298.238 167.375 298.294 169.214 298.376 171.089M298.205 165.589C298.169 163.69 298.159 161.85 298.167 160.089M304.5 207.089C303.694 208.163 296.048 199.616 291.576 189.589M304.5 207.089C302.24 201.022 300.744 194.107 299.776 187.089M304.5 207.089C305.856 202.083 306.407 197.272 306.43 192.589M291.576 189.589L298.933 179.589M298.933 179.589C299.154 182.079 299.432 184.591 299.776 187.089M298.933 179.589C298.678 176.711 298.497 173.86 298.376 171.089M299.776 187.089L306.43 192.589M306.43 192.589C306.456 187.118 305.762 181.82 304.788 176.589M304.788 176.589L298.376 171.089M304.788 176.589C303.883 171.728 302.737 166.924 301.703 162.089M298.167 160.089L301.703 162.089M298.167 160.089C298.175 158.305 298.202 156.602 298.241 155M298.783 127.089C293 131.089 287 138.089 287 138.089M298.783 127.089C298.368 119.513 297.47 112.353 296.151 105.589M287 138.089C287 138.089 289.665 139.358 290 141.089C290.194 142.089 287.5 145.589 286 145.589C284.733 145.589 283.5 143.089 283.5 141.089C283.5 138.397 287 138.089 287 138.089ZM264.5 45.5891C264.5 45.5891 263.908 44.5039 262.374 42.4971M262.374 42.4971C260.454 39.986 257.058 36.0319 251.5 30.9553C251.5 30.9553 256.414 35.9071 262.374 42.4971ZM262.374 42.4971C267.66 48.343 273.769 55.478 278 61.5891C280.835 65.684 283.228 69.3076 285.272 72.8032M285.272 72.8032C290.032 82.5187 293.775 93.4107 296.151 105.589M285.272 72.8032C290.858 82.3534 293.844 90.948 296.151 105.589M246.5 27.0882C244.5 26.0891 252.263 44.2374 253.5 42.5881C254.737 40.9387 251.5 31.0881 251.5 31.0881M246.5 27.0882C248.737 28.2057 251.5 31.0881 251.5 31.0881M246.5 27.0882C246.5 27.0882 248.194 24.0438 253.053 24.5895C257.496 25.0886 263.49 29.0821 266.492 31.0828L266.5 31.0881C266.816 31.2982 251.5 31.0881 251.5 31.0881M316 116.089C314.283 116.955 314.882 118.67 315 120.589C315.169 123.345 316.345 124.83 319 125.589C320.502 126.018 321.644 126.364 323 125.589C325.374 124.233 324.538 120.849 323 118.589C322.055 117.2 321.116 116.549 319.5 116.089C318.186 115.715 317.221 115.474 316 116.089ZM316 116.089C316 116.089 309.5 112.589 304 111.589M304 111.589L296.5 105.589M304 111.589C304 111.589 304 117.089 305.5 121.089C307.721 127.011 320 139.589 320 139.589M320 139.589C320 139.589 323.737 140.309 325 142.089C326.042 143.557 326.23 144.804 326 146.589C325.777 148.321 325.591 149.869 324 150.589C321.925 151.528 320.223 149.51 319 147.589C318.136 146.231 317.849 145.192 318 143.589C318.165 141.85 320 139.589 320 139.589ZM289.139 163L298.241 155M282 63.5891C285.5 67.0891 303.5 76.0891 304.5 74.0891C305.5 72.0891 291 59.0891 288 58.0891C282.5 56.2558 277.5 59.0891 277.5 59.0891L282 63.5891ZM260.999 41.5891C259.999 48.0931 264.911 61.4772 265.499 61.0849C266.999 60.0849 266.92 52.9589 265.499 48.0849C264.374 44.2248 261.075 41.0951 260.999 41.5891ZM285.499 50.0891C283.499 51.5891 255.498 42.0891 262.999 38.0891C270.5 34.0891 287.014 48.9531 285.499 50.0891Z" stroke="#4E4E4E" stroke-linecap="round"/>
</svg>
