<svg width="239" height="232" viewBox="0 0 239 232" fill="none" xmlns="http://www.w3.org/2000/svg">
<path d="M183.045 47L184.942 46.3675C184.76 45.8206 184.35 45.3789 183.819 45.1558C183.287 44.9327 182.685 44.9499 182.167 45.2029L183.045 47ZM197.545 90.5L198.383 92.3156C199.308 91.8883 199.764 90.8341 199.442 89.8675L197.545 90.5ZM160.045 74L158.522 72.7031C158.277 72.991 158.118 73.3426 158.065 73.717L160.045 74ZM82.0446 142L80.2246 141.171L80.2246 141.171L82.0446 142ZM128.545 229.5L128.246 231.478L128.246 231.478L128.545 229.5ZM197.545 182.5L199.488 182.973L199.488 182.973L197.545 182.5ZM149.045 110.903L148.895 112.897L148.895 112.897L149.045 110.903ZM152.045 111.177L151.828 113.165L151.828 113.165L152.045 111.177ZM140.045 68L139.167 66.2029C138.344 66.6048 137.899 67.5143 138.087 68.4106L140.045 68ZM7.54456 115L5.69547 114.238L5.69547 114.238L7.54456 115ZM85.5446 76L86.2432 74.126L86.2432 74.126L85.5446 76ZM118.545 157.5L120.485 157.985L120.485 157.985L118.545 157.5ZM36.0446 198L36.853 196.171L36.853 196.171L36.0446 198ZM97.0446 148L95.2887 147.042L95.2887 147.042L97.0446 148ZM152.045 131L152.893 129.189L152.893 129.189L152.045 131ZM174.045 184.5L172.203 183.72L172.203 183.72L174.045 184.5ZM131.545 209L131.99 207.05L131.99 207.05L131.545 209ZM31.0446 122.5L29.2562 121.605L29.2562 121.605L31.0446 122.5ZM85.5446 97.5L86.0565 95.5666L85.5446 97.5ZM43.5446 181L43.7842 179.014L43.7842 179.014L43.5446 181ZM114.545 157.5L112.656 156.843L112.656 156.843L114.545 157.5ZM135.945 50.2C136.607 51.0837 137.861 51.2627 138.745 50.6C139.628 49.9373 139.807 48.6837 139.145 47.8L135.945 50.2ZM130.145 35.8C129.482 34.9163 128.228 34.7373 127.345 35.4C126.461 36.0627 126.282 37.3163 126.945 38.2L130.145 35.8ZM156.576 26.3516C156.77 27.4389 157.809 28.163 158.896 27.9689C159.984 27.7747 160.708 26.7358 160.513 25.6484L156.576 26.3516ZM158.013 11.6484C157.819 10.5611 156.78 9.83697 155.693 10.0311C154.606 10.2253 153.882 11.2642 154.076 12.3516L158.013 11.6484ZM187.081 17.12C186.871 18.2044 187.58 19.2537 188.665 19.4636C189.749 19.6735 190.798 18.9645 191.008 17.88L187.081 17.12ZM194.008 2.38004C194.218 1.2956 193.509 0.246333 192.425 0.0364403C191.34 -0.173452 190.291 0.535512 190.081 1.61996L194.008 2.38004ZM209.853 49.6233C208.817 50.0052 208.286 51.1549 208.668 52.1914C209.05 53.2279 210.2 53.7585 211.236 53.3767L209.853 49.6233ZM230.236 46.3767C231.272 45.9948 231.803 44.8451 231.421 43.8086C231.039 42.7721 229.89 42.2415 228.853 42.6233L230.236 46.3767ZM221.545 77C220.44 77 219.545 77.8954 219.545 79C219.545 80.1046 220.44 81 221.545 81V77ZM236.045 81C237.149 81 238.045 80.1046 238.045 79C238.045 77.8954 237.149 77 236.045 77V81ZM209.416 107.2C208.421 106.719 207.225 107.135 206.744 108.129C206.263 109.123 206.679 110.319 207.673 110.8L209.416 107.2ZM223.173 118.3C224.168 118.781 225.364 118.365 225.845 117.371C226.326 116.377 225.91 115.181 224.916 114.7L223.173 118.3ZM182.115 45.2292L142.115 66.2292L143.974 69.7708L183.974 48.7708L182.115 45.2292ZM143.045 68C141.119 68.5392 141.119 68.5393 141.119 68.5395C141.119 68.5397 141.119 68.5399 141.119 68.5403C141.119 68.5411 141.119 68.5422 141.12 68.5437C141.121 68.5468 141.122 68.5514 141.124 68.5576C141.127 68.5699 141.132 68.5883 141.139 68.6128C141.153 68.6618 141.173 68.7349 141.2 68.831C141.254 69.0233 141.333 69.3078 141.436 69.6764C141.641 70.4135 141.939 71.4867 142.309 72.8303C143.051 75.5175 144.085 79.2856 145.253 83.6083C147.59 92.258 150.459 103.112 152.601 111.97L156.489 111.03C154.334 102.119 151.454 91.2231 149.114 82.565C147.944 78.2339 146.909 74.4586 146.165 71.766C145.794 70.4196 145.495 69.3438 145.289 68.6043C145.187 68.2346 145.107 67.949 145.053 67.7556C145.026 67.659 145.005 67.5854 144.992 67.5359C144.985 67.5111 144.979 67.4924 144.976 67.4799C144.974 67.4736 144.973 67.4688 144.972 67.4657C144.971 67.4641 144.971 67.4629 144.971 67.462C144.971 67.4616 144.971 67.4613 144.971 67.4611C144.971 67.4609 144.971 67.4608 143.045 68ZM155.479 113.268C163.937 108.796 174.657 103.56 183.278 99.4359C187.586 97.3751 191.363 95.5945 194.063 94.3292C195.413 93.6966 196.494 93.1929 197.237 92.8475C197.608 92.6748 197.895 92.5416 198.089 92.4518C198.186 92.4068 198.26 92.3727 198.309 92.3499C198.334 92.3384 198.353 92.3298 198.365 92.3241C198.371 92.3212 198.376 92.3191 198.379 92.3177C198.38 92.317 198.382 92.3164 198.382 92.3161C198.383 92.3159 198.383 92.3158 198.383 92.3157C198.383 92.3156 198.383 92.3156 197.545 90.5C196.706 88.6844 196.706 88.6845 196.705 88.6846C196.705 88.6847 196.705 88.6848 196.704 88.685C196.704 88.6854 196.702 88.686 196.701 88.6867C196.698 88.6882 196.693 88.6904 196.686 88.6934C196.674 88.6993 196.655 88.708 196.63 88.7196C196.58 88.7428 196.505 88.7773 196.407 88.8226C196.212 88.9131 195.923 89.047 195.55 89.2204C194.804 89.5673 193.72 90.0727 192.366 90.7071C189.658 91.9759 185.871 93.7612 181.552 95.8276C172.92 99.9575 162.14 105.221 153.61 109.732L155.479 113.268ZM199.442 89.8675L184.942 46.3675L181.147 47.6325L195.647 91.1325L199.442 89.8675ZM161.567 75.2969L184.567 48.2969L181.522 45.7031L158.522 72.7031L161.567 75.2969ZM183.543 82.0856L185.043 47.0856L181.046 46.9144L179.546 81.9144L183.543 82.0856ZM181.545 82C180.091 80.626 180.091 80.6261 180.091 80.6262C180.091 80.6263 180.091 80.6266 180.091 80.6268C180.09 80.6274 180.089 80.6282 180.088 80.6293C180.086 80.6314 180.083 80.6346 180.079 80.6388C180.071 80.6472 180.059 80.6597 180.044 80.6763C180.012 80.7094 179.966 80.7587 179.905 80.8234C179.783 80.9528 179.602 81.1441 179.369 81.3917C178.903 81.887 178.224 82.6079 177.377 83.5114C175.683 85.3182 173.312 87.8555 170.605 90.7778C165.194 96.6187 158.428 104.011 153.038 110.185L156.051 112.815C161.401 106.687 168.135 99.3298 173.539 93.4961C176.24 90.581 178.605 88.0498 180.295 86.2476C181.14 85.3464 181.816 84.6277 182.281 84.1343C182.513 83.8877 182.693 83.6974 182.814 83.5689C182.875 83.5046 182.921 83.4558 182.952 83.4231C182.967 83.4068 182.979 83.3944 182.986 83.3862C182.99 83.3821 182.993 83.3791 182.995 83.377C182.996 83.376 182.997 83.3752 182.997 83.3747C182.997 83.3745 182.998 83.3743 182.998 83.3742C182.998 83.3741 182.998 83.374 181.545 82ZM160.045 74C158.065 73.717 158.065 73.717 158.065 73.717C158.065 73.717 158.065 73.717 158.065 73.717C158.065 73.717 158.065 73.717 158.065 73.717C158.065 73.717 158.065 73.717 158.065 73.717C158.065 73.7171 158.065 73.7171 158.065 73.7172C158.065 73.7173 158.065 73.7174 158.065 73.7177C158.065 73.7181 158.064 73.7188 158.064 73.7197C158.064 73.7215 158.064 73.7242 158.063 73.7279C158.062 73.7351 158.061 73.746 158.059 73.7604C158.054 73.7893 158.048 73.8324 158.04 73.8893L162 74.4564C162.008 74.3993 162.014 74.356 162.018 74.327C162.02 74.3124 162.022 74.3015 162.023 74.2941C162.023 74.2904 162.024 74.2877 162.024 74.2858C162.024 74.2849 162.024 74.2842 162.024 74.2837C162.024 74.2835 162.024 74.2833 162.024 74.2832C162.024 74.2831 162.024 74.2831 162.024 74.2831C162.024 74.283 162.024 74.283 162.024 74.283C162.024 74.283 162.024 74.283 162.024 74.283C162.024 74.283 162.024 74.283 162.024 74.283C162.024 74.283 162.024 74.283 160.045 74ZM158.04 73.8894C157.741 75.9807 154.788 96.5806 152.567 111.2L156.522 111.8C158.745 97.162 161.7 76.5459 162 74.4563L158.04 73.8894ZM142.361 69.8796L159.336 76.0524L160.703 72.2932L143.728 66.1204L142.361 69.8796ZM159.336 76.0524L180.861 83.8796L182.228 80.1204L160.703 72.2932L159.336 76.0524ZM198.483 88.7338L182.483 80.2338L180.606 83.7662L196.606 92.2662L198.483 88.7338ZM80.2246 141.171C74.2414 154.3 74.1613 168.728 78.0004 182.072L81.8445 180.966C78.2164 168.356 78.349 154.933 83.8645 142.829L80.2246 141.171ZM78.0004 182.072C79.5059 187.304 81.616 192.38 84.2172 197.161L87.7309 195.25C85.2625 190.713 83.2659 185.906 81.8445 180.966L78.0004 182.072ZM84.2172 197.161C93.8321 214.835 110.336 228.774 128.246 231.478L128.843 227.522C112.512 225.057 96.9335 212.166 87.7309 195.25L84.2172 197.161ZM128.246 231.478C139.347 233.154 155.106 229.255 169.002 220.985C182.937 212.691 195.4 199.764 199.488 182.973L195.601 182.027C191.848 197.442 180.311 209.6 166.956 217.547C153.562 225.519 138.742 229.017 128.843 227.522L128.246 231.478ZM199.488 182.973C203.07 168.262 202.137 156.233 198.613 146.469C195.094 136.719 189.041 129.365 182.585 123.91C176.137 118.461 169.259 114.882 164.01 112.665C161.381 111.555 159.149 110.782 157.566 110.284C156.775 110.036 156.145 109.855 155.707 109.736C155.489 109.677 155.319 109.632 155.2 109.602C155.141 109.587 155.095 109.576 155.062 109.568C155.046 109.564 155.033 109.56 155.024 109.558C155.019 109.557 155.015 109.556 155.012 109.555C155.01 109.555 155.009 109.555 155.008 109.554C155.007 109.554 155.006 109.554 154.545 111.5C154.084 113.446 154.083 113.446 154.082 113.446C154.082 113.446 154.082 113.446 154.082 113.446C154.083 113.446 154.084 113.446 154.086 113.447C154.091 113.448 154.098 113.45 154.109 113.452C154.131 113.458 154.167 113.467 154.215 113.479C154.312 113.503 154.46 113.542 154.655 113.595C155.046 113.702 155.627 113.868 156.367 114.1C157.846 114.566 159.958 115.296 162.454 116.35C167.455 118.462 173.952 121.851 180.004 126.965C186.048 132.073 191.62 138.875 194.851 147.827C198.077 156.767 199.02 167.988 195.601 182.027L199.488 182.973ZM149.194 108.908C142.626 108.417 131.057 108.212 118.948 111.146L119.89 115.034C131.439 112.235 142.548 112.422 148.895 112.897L149.194 108.908ZM118.948 111.146C115.533 111.974 112.066 113.053 108.652 114.45L110.167 118.152C113.372 116.841 116.645 115.82 119.89 115.034L118.948 111.146ZM108.652 114.45C97.3347 119.081 86.5853 127.213 80.2246 141.171L83.8645 142.829C89.7153 129.99 99.5768 122.485 110.167 118.152L108.652 114.45ZM141.064 68.277L144.102 90.0044L148.064 89.4504L145.025 67.723L141.064 68.277ZM144.102 90.0044L147.064 111.18L151.025 110.626L148.064 89.4504L144.102 90.0044ZM154.545 111.5C154.87 109.527 154.87 109.527 154.87 109.527C154.87 109.527 154.87 109.527 154.87 109.527C154.87 109.527 154.87 109.527 154.87 109.527C154.869 109.527 154.869 109.526 154.868 109.526C154.867 109.526 154.866 109.526 154.865 109.526C154.862 109.525 154.858 109.525 154.854 109.524C154.845 109.523 154.832 109.521 154.817 109.518C154.785 109.513 154.739 109.506 154.68 109.497C154.563 109.479 154.392 109.454 154.17 109.423C153.728 109.362 153.083 109.278 152.262 109.189L151.828 113.165C152.608 113.25 153.214 113.329 153.621 113.385C153.824 113.413 153.978 113.436 154.078 113.451C154.129 113.459 154.166 113.465 154.189 113.469C154.201 113.47 154.209 113.472 154.214 113.473C154.217 113.473 154.218 113.473 154.219 113.473C154.219 113.473 154.22 113.473 154.22 113.473C154.22 113.473 154.219 113.473 154.219 113.473C154.219 113.473 154.219 113.473 154.219 113.473C154.219 113.473 154.219 113.473 154.219 113.473C154.219 113.473 154.219 113.473 154.545 111.5ZM152.262 109.189C151.418 109.097 150.386 108.998 149.194 108.908L148.895 112.897C150.04 112.983 151.026 113.078 151.828 113.165L152.262 109.189ZM138.118 68.5356L144.156 90.2629L148.01 89.1918L141.972 67.4644L138.118 68.5356ZM144.156 90.2629L150.118 111.712L153.972 110.641L148.01 89.1918L144.156 90.2629ZM143.045 66H140.045V70H143.045V66ZM182.167 45.2029L139.167 66.2029L140.922 69.7971L183.922 48.7971L182.167 45.2029ZM138.087 68.4106L147.087 111.313L151.002 110.492L142.002 67.5894L138.087 68.4106ZM9.39366 115.762C22.0667 85.0145 54.1874 66.4444 84.8459 77.874L86.2432 74.126C53.08 61.7626 18.9777 82.0121 5.69547 114.238L9.39366 115.762ZM84.8459 77.874C103.667 84.8906 113.446 98.2415 117.485 113.599L121.354 112.581C117.019 96.1022 106.409 81.6439 86.2432 74.126L84.8459 77.874ZM117.485 113.599C118.741 118.372 119.443 123.35 119.68 128.402L123.675 128.215C123.427 122.918 122.689 117.659 121.354 112.581L117.485 113.599ZM119.68 128.402C120.13 138.018 118.892 147.866 116.604 157.015L120.485 157.985C122.849 148.527 124.147 138.285 123.675 128.215L119.68 128.402ZM116.604 157.015C114.015 167.373 108.348 176.437 100.79 183.589L103.54 186.495C111.596 178.871 117.693 169.154 120.485 157.985L116.604 157.015ZM100.79 183.589C96.1688 187.963 90.8453 191.616 85.1003 194.406L86.8477 198.005C92.9508 195.041 98.6141 191.156 103.54 186.495L100.79 183.589ZM85.1003 194.406C70.1233 201.68 52.3967 203.039 36.853 196.171L35.2362 199.829C52.0087 207.241 70.9731 205.714 86.8477 198.005L85.1003 194.406ZM36.853 196.171C6.73112 182.86 -3.35664 146.697 9.39366 115.762L5.69547 114.238C-7.67321 146.673 2.66419 185.436 35.2362 199.829L36.853 196.171ZM98.8004 148.958C102.947 141.354 109.127 135.781 116.297 132.432L114.605 128.808C106.679 132.51 99.853 138.673 95.2887 147.042L98.8004 148.958ZM116.297 132.432C118.207 131.54 120.187 130.806 122.22 130.233L121.135 126.383C118.896 127.014 116.712 127.824 114.605 128.808L116.297 132.432ZM122.22 130.233C131.425 127.639 141.697 128.36 151.196 132.811L152.893 129.189C142.536 124.335 131.276 123.525 121.135 126.383L122.22 130.233ZM151.196 132.811C170.793 141.995 180.548 164.022 172.203 183.72L175.886 185.28C185.165 163.376 174.208 139.178 152.893 129.189L151.196 132.811ZM172.203 183.72C165.007 200.706 149.489 211.05 131.99 207.05L131.099 210.95C150.953 215.488 168.136 203.574 175.886 185.28L172.203 183.72ZM131.99 207.05C127.906 206.117 122.856 203.377 117.769 199.271C112.711 195.188 107.754 189.863 103.833 183.938L100.497 186.146C104.652 192.425 109.891 198.052 115.256 202.383C120.593 206.691 126.194 209.829 131.099 210.95L131.99 207.05ZM103.833 183.938C102.065 181.266 100.513 178.481 99.2595 175.643L95.6007 177.26C96.9552 180.326 98.6188 183.307 100.497 186.146L103.833 183.938ZM99.2595 175.643C95.2424 166.552 94.3483 157.121 98.8004 148.958L95.2887 147.042C90.0342 156.677 91.2876 167.498 95.6007 177.26L99.2595 175.643ZM32.833 123.395C42.9054 103.277 63.3419 93.69 85.0326 99.4334L86.0565 95.5666C62.4754 89.3227 40.1494 99.8465 29.2562 121.605L32.833 123.395ZM43.7842 179.014C38.1762 178.338 34.1638 175.879 31.3614 172.314C28.521 168.7 26.8329 163.827 26.1752 158.241C24.8565 147.042 27.7506 133.547 32.833 123.395L29.2562 121.605C23.8801 132.343 20.7791 146.62 22.2026 158.709C22.916 164.768 24.7831 170.418 28.2166 174.786C31.688 179.203 36.6679 182.185 43.3049 182.986L43.7842 179.014ZM85.0326 99.4334C94.2882 101.884 102.288 108.543 107.706 117.349L111.113 115.253C105.272 105.759 96.4975 98.3313 86.0565 95.5666L85.0326 99.4334ZM107.706 117.349C110.292 121.553 112.274 126.223 113.512 131.111L117.39 130.129C116.052 124.848 113.911 119.802 111.113 115.253L107.706 117.349ZM113.512 131.111C115.637 139.499 115.565 148.484 112.656 156.843L116.433 158.157C119.629 148.974 119.684 139.183 117.39 130.129L113.512 131.111ZM112.656 156.843C109.67 165.423 103.891 171.041 96.5465 174.657L98.3136 178.246C106.455 174.237 113.052 167.874 116.433 158.157L112.656 156.843ZM96.5465 174.657C91.5203 177.132 85.7502 178.672 79.6415 179.539L80.2034 183.499C86.5972 182.592 92.8032 180.959 98.3136 178.246L96.5465 174.657ZM79.6415 179.539C67.6421 181.241 54.5751 180.317 43.7842 179.014L43.3049 182.986C54.1958 184.3 67.6784 185.276 80.2034 183.499L79.6415 179.539ZM139.145 47.8L130.145 35.8L126.945 38.2L135.945 50.2L139.145 47.8ZM160.513 25.6484L158.013 11.6484L154.076 12.3516L156.576 26.3516L160.513 25.6484ZM191.008 17.88L194.008 2.38004L190.081 1.61996L187.081 17.12L191.008 17.88ZM211.236 53.3767L230.236 46.3767L228.853 42.6233L209.853 49.6233L211.236 53.3767ZM221.545 81H236.045V77H221.545V81ZM207.673 110.8L223.173 118.3L224.916 114.7L209.416 107.2L207.673 110.8Z" fill="white"/>
</svg>
